<?xml version="1.0" encoding="utf-8" standalone="no"?>
<!DOCTYPE svg PUBLIC "-//W3C//DTD SVG 1.1//EN"
  "http://www.w3.org/Graphics/SVG/1.1/DTD/svg11.dtd">
<svg xmlns:xlink="http://www.w3.org/1999/xlink" width="532.8pt" height="446.4pt" viewBox="0 0 532.8 446.4" xmlns="http://www.w3.org/2000/svg" version="1.1">
 <metadata>
  <rdf:RDF xmlns:dc="http://purl.org/dc/elements/1.1/" xmlns:cc="http://creativecommons.org/ns#" xmlns:rdf="http://www.w3.org/1999/02/22-rdf-syntax-ns#">
   <cc:Work>
    <dc:type rdf:resource="http://purl.org/dc/dcmitype/StillImage"/>
    <dc:date>2026-06-10T09:08:48.407933</dc:date>
    <dc:format>image/svg+xml</dc:format>
    <dc:creator>
     <cc:Agent>
      <dc:title>Matplotlib v3.10.9, https://matplotlib.org/</dc:title>
     </cc:Agent>
    </dc:creator>
   </cc:Work>
  </rdf:RDF>
 </metadata>
 <defs>
  <style type="text/css">*{stroke-linejoin: round; stroke-linecap: butt}</style>
 </defs>
 <g id="figure_1">
  <g id="patch_1">
   <path d="M 0 446.4 
L 532.8 446.4 
L 532.8 0 
L 0 0 
z
" style="fill: #ffffff"/>
  </g>
  <g id="axes_1">
   <g id="patch_2">
    <path d="M 57.17 131.376 
L 522 131.376 
L 522 10.8 
L 57.17 10.8 
z
" style="fill: #ffffff"/>
   </g>
   <g id="matplotlib.axis_1">
    <g id="xtick_1">
     <g id="line2d_1">
      <path d="M 202.753901 131.376 
L 202.753901 10.8 
" clip-path="url(#p14ed76b745)" style="fill: none; stroke: #b0b0b0; stroke-opacity: 0.25; stroke-width: 0.8; stroke-linecap: square"/>
     </g>
     <g id="line2d_2">
      <defs>
       <path id="m994f895a8a" d="M 0 0 
L 0 3.5 
" style="stroke: #000000; stroke-width: 0.8"/>
      </defs>
      <g>
       <use xlink:href="#m994f895a8a" x="202.753901" y="131.376" style="stroke: #000000; stroke-width: 0.8"/>
      </g>
     </g>
    </g>
    <g id="xtick_2">
     <g id="line2d_3">
      <path d="M 378.223428 131.376 
L 378.223428 10.8 
" clip-path="url(#p14ed76b745)" style="fill: none; stroke: #b0b0b0; stroke-opacity: 0.25; stroke-width: 0.8; stroke-linecap: square"/>
     </g>
     <g id="line2d_4">
      <g>
       <use xlink:href="#m994f895a8a" x="378.223428" y="131.376" style="stroke: #000000; stroke-width: 0.8"/>
      </g>
     </g>
    </g>
    <g id="xtick_3">
     <g id="line2d_5">
      <path d="M 80.105965 131.376 
L 80.105965 10.8 
" clip-path="url(#p14ed76b745)" style="fill: none; stroke: #b0b0b0; stroke-opacity: 0.25; stroke-width: 0.8; stroke-linecap: square"/>
     </g>
     <g id="line2d_6">
      <defs>
       <path id="m7f9f7416fa" d="M 0 0 
L 0 2 
" style="stroke: #000000; stroke-width: 0.6"/>
      </defs>
      <g>
       <use xlink:href="#m7f9f7416fa" x="80.105965" y="131.376" style="stroke: #000000; stroke-width: 0.6"/>
      </g>
     </g>
    </g>
    <g id="xtick_4">
     <g id="line2d_7">
      <path d="M 111.004615 131.376 
L 111.004615 10.8 
" clip-path="url(#p14ed76b745)" style="fill: none; stroke: #b0b0b0; stroke-opacity: 0.25; stroke-width: 0.8; stroke-linecap: square"/>
     </g>
     <g id="line2d_8">
      <g>
       <use xlink:href="#m7f9f7416fa" x="111.004615" y="131.376" style="stroke: #000000; stroke-width: 0.6"/>
      </g>
     </g>
    </g>
    <g id="xtick_5">
     <g id="line2d_9">
      <path d="M 132.927556 131.376 
L 132.927556 10.8 
" clip-path="url(#p14ed76b745)" style="fill: none; stroke: #b0b0b0; stroke-opacity: 0.25; stroke-width: 0.8; stroke-linecap: square"/>
     </g>
     <g id="line2d_10">
      <g>
       <use xlink:href="#m7f9f7416fa" x="132.927556" y="131.376" style="stroke: #000000; stroke-width: 0.6"/>
      </g>
     </g>
    </g>
    <g id="xtick_6">
     <g id="line2d_11">
      <path d="M 149.93231 131.376 
L 149.93231 10.8 
" clip-path="url(#p14ed76b745)" style="fill: none; stroke: #b0b0b0; stroke-opacity: 0.25; stroke-width: 0.8; stroke-linecap: square"/>
     </g>
     <g id="line2d_12">
      <g>
       <use xlink:href="#m7f9f7416fa" x="149.93231" y="131.376" style="stroke: #000000; stroke-width: 0.6"/>
      </g>
     </g>
    </g>
    <g id="xtick_7">
     <g id="line2d_13">
      <path d="M 163.826206 131.376 
L 163.826206 10.8 
" clip-path="url(#p14ed76b745)" style="fill: none; stroke: #b0b0b0; stroke-opacity: 0.25; stroke-width: 0.8; stroke-linecap: square"/>
     </g>
     <g id="line2d_14">
      <g>
       <use xlink:href="#m7f9f7416fa" x="163.826206" y="131.376" style="stroke: #000000; stroke-width: 0.6"/>
      </g>
     </g>
    </g>
    <g id="xtick_8">
     <g id="line2d_15">
      <path d="M 175.573327 131.376 
L 175.573327 10.8 
" clip-path="url(#p14ed76b745)" style="fill: none; stroke: #b0b0b0; stroke-opacity: 0.25; stroke-width: 0.8; stroke-linecap: square"/>
     </g>
     <g id="line2d_16">
      <g>
       <use xlink:href="#m7f9f7416fa" x="175.573327" y="131.376" style="stroke: #000000; stroke-width: 0.6"/>
      </g>
     </g>
    </g>
    <g id="xtick_9">
     <g id="line2d_17">
      <path d="M 185.749147 131.376 
L 185.749147 10.8 
" clip-path="url(#p14ed76b745)" style="fill: none; stroke: #b0b0b0; stroke-opacity: 0.25; stroke-width: 0.8; stroke-linecap: square"/>
     </g>
     <g id="line2d_18">
      <g>
       <use xlink:href="#m7f9f7416fa" x="185.749147" y="131.376" style="stroke: #000000; stroke-width: 0.6"/>
      </g>
     </g>
    </g>
    <g id="xtick_10">
     <g id="line2d_19">
      <path d="M 194.724856 131.376 
L 194.724856 10.8 
" clip-path="url(#p14ed76b745)" style="fill: none; stroke: #b0b0b0; stroke-opacity: 0.25; stroke-width: 0.8; stroke-linecap: square"/>
     </g>
     <g id="line2d_20">
      <g>
       <use xlink:href="#m7f9f7416fa" x="194.724856" y="131.376" style="stroke: #000000; stroke-width: 0.6"/>
      </g>
     </g>
    </g>
    <g id="xtick_11">
     <g id="line2d_21">
      <path d="M 255.575492 131.376 
L 255.575492 10.8 
" clip-path="url(#p14ed76b745)" style="fill: none; stroke: #b0b0b0; stroke-opacity: 0.25; stroke-width: 0.8; stroke-linecap: square"/>
     </g>
     <g id="line2d_22">
      <g>
       <use xlink:href="#m7f9f7416fa" x="255.575492" y="131.376" style="stroke: #000000; stroke-width: 0.6"/>
      </g>
     </g>
    </g>
    <g id="xtick_12">
     <g id="line2d_23">
      <path d="M 286.474142 131.376 
L 286.474142 10.8 
" clip-path="url(#p14ed76b745)" style="fill: none; stroke: #b0b0b0; stroke-opacity: 0.25; stroke-width: 0.8; stroke-linecap: square"/>
     </g>
     <g id="line2d_24">
      <g>
       <use xlink:href="#m7f9f7416fa" x="286.474142" y="131.376" style="stroke: #000000; stroke-width: 0.6"/>
      </g>
     </g>
    </g>
    <g id="xtick_13">
     <g id="line2d_25">
      <path d="M 308.397083 131.376 
L 308.397083 10.8 
" clip-path="url(#p14ed76b745)" style="fill: none; stroke: #b0b0b0; stroke-opacity: 0.25; stroke-width: 0.8; stroke-linecap: square"/>
     </g>
     <g id="line2d_26">
      <g>
       <use xlink:href="#m7f9f7416fa" x="308.397083" y="131.376" style="stroke: #000000; stroke-width: 0.6"/>
      </g>
     </g>
    </g>
    <g id="xtick_14">
     <g id="line2d_27">
      <path d="M 325.401837 131.376 
L 325.401837 10.8 
" clip-path="url(#p14ed76b745)" style="fill: none; stroke: #b0b0b0; stroke-opacity: 0.25; stroke-width: 0.8; stroke-linecap: square"/>
     </g>
     <g id="line2d_28">
      <g>
       <use xlink:href="#m7f9f7416fa" x="325.401837" y="131.376" style="stroke: #000000; stroke-width: 0.6"/>
      </g>
     </g>
    </g>
    <g id="xtick_15">
     <g id="line2d_29">
      <path d="M 339.295733 131.376 
L 339.295733 10.8 
" clip-path="url(#p14ed76b745)" style="fill: none; stroke: #b0b0b0; stroke-opacity: 0.25; stroke-width: 0.8; stroke-linecap: square"/>
     </g>
     <g id="line2d_30">
      <g>
       <use xlink:href="#m7f9f7416fa" x="339.295733" y="131.376" style="stroke: #000000; stroke-width: 0.6"/>
      </g>
     </g>
    </g>
    <g id="xtick_16">
     <g id="line2d_31">
      <path d="M 351.042854 131.376 
L 351.042854 10.8 
" clip-path="url(#p14ed76b745)" style="fill: none; stroke: #b0b0b0; stroke-opacity: 0.25; stroke-width: 0.8; stroke-linecap: square"/>
     </g>
     <g id="line2d_32">
      <g>
       <use xlink:href="#m7f9f7416fa" x="351.042854" y="131.376" style="stroke: #000000; stroke-width: 0.6"/>
      </g>
     </g>
    </g>
    <g id="xtick_17">
     <g id="line2d_33">
      <path d="M 361.218674 131.376 
L 361.218674 10.8 
" clip-path="url(#p14ed76b745)" style="fill: none; stroke: #b0b0b0; stroke-opacity: 0.25; stroke-width: 0.8; stroke-linecap: square"/>
     </g>
     <g id="line2d_34">
      <g>
       <use xlink:href="#m7f9f7416fa" x="361.218674" y="131.376" style="stroke: #000000; stroke-width: 0.6"/>
      </g>
     </g>
    </g>
    <g id="xtick_18">
     <g id="line2d_35">
      <path d="M 370.194382 131.376 
L 370.194382 10.8 
" clip-path="url(#p14ed76b745)" style="fill: none; stroke: #b0b0b0; stroke-opacity: 0.25; stroke-width: 0.8; stroke-linecap: square"/>
     </g>
     <g id="line2d_36">
      <g>
       <use xlink:href="#m7f9f7416fa" x="370.194382" y="131.376" style="stroke: #000000; stroke-width: 0.6"/>
      </g>
     </g>
    </g>
    <g id="xtick_19">
     <g id="line2d_37">
      <path d="M 431.045019 131.376 
L 431.045019 10.8 
" clip-path="url(#p14ed76b745)" style="fill: none; stroke: #b0b0b0; stroke-opacity: 0.25; stroke-width: 0.8; stroke-linecap: square"/>
     </g>
     <g id="line2d_38">
      <g>
       <use xlink:href="#m7f9f7416fa" x="431.045019" y="131.376" style="stroke: #000000; stroke-width: 0.6"/>
      </g>
     </g>
    </g>
    <g id="xtick_20">
     <g id="line2d_39">
      <path d="M 461.943669 131.376 
L 461.943669 10.8 
" clip-path="url(#p14ed76b745)" style="fill: none; stroke: #b0b0b0; stroke-opacity: 0.25; stroke-width: 0.8; stroke-linecap: square"/>
     </g>
     <g id="line2d_40">
      <g>
       <use xlink:href="#m7f9f7416fa" x="461.943669" y="131.376" style="stroke: #000000; stroke-width: 0.6"/>
      </g>
     </g>
    </g>
    <g id="xtick_21">
     <g id="line2d_41">
      <path d="M 483.86661 131.376 
L 483.86661 10.8 
" clip-path="url(#p14ed76b745)" style="fill: none; stroke: #b0b0b0; stroke-opacity: 0.25; stroke-width: 0.8; stroke-linecap: square"/>
     </g>
     <g id="line2d_42">
      <g>
       <use xlink:href="#m7f9f7416fa" x="483.86661" y="131.376" style="stroke: #000000; stroke-width: 0.6"/>
      </g>
     </g>
    </g>
    <g id="xtick_22">
     <g id="line2d_43">
      <path d="M 500.871364 131.376 
L 500.871364 10.8 
" clip-path="url(#p14ed76b745)" style="fill: none; stroke: #b0b0b0; stroke-opacity: 0.25; stroke-width: 0.8; stroke-linecap: square"/>
     </g>
     <g id="line2d_44">
      <g>
       <use xlink:href="#m7f9f7416fa" x="500.871364" y="131.376" style="stroke: #000000; stroke-width: 0.6"/>
      </g>
     </g>
    </g>
    <g id="xtick_23">
     <g id="line2d_45">
      <path d="M 514.765259 131.376 
L 514.765259 10.8 
" clip-path="url(#p14ed76b745)" style="fill: none; stroke: #b0b0b0; stroke-opacity: 0.25; stroke-width: 0.8; stroke-linecap: square"/>
     </g>
     <g id="line2d_46">
      <g>
       <use xlink:href="#m7f9f7416fa" x="514.765259" y="131.376" style="stroke: #000000; stroke-width: 0.6"/>
      </g>
     </g>
    </g>
   </g>
   <g id="matplotlib.axis_2">
    <g id="ytick_1">
     <g id="line2d_47">
      <path d="M 57.17 96.279155 
L 522 96.279155 
" clip-path="url(#p14ed76b745)" style="fill: none; stroke: #b0b0b0; stroke-opacity: 0.25; stroke-width: 0.8; stroke-linecap: square"/>
     </g>
     <g id="line2d_48">
      <defs>
       <path id="m63a77a60ce" d="M 0 0 
L -3.5 0 
" style="stroke: #000000; stroke-width: 0.8"/>
      </defs>
      <g>
       <use xlink:href="#m63a77a60ce" x="57.17" y="96.279155" style="stroke: #000000; stroke-width: 0.8"/>
      </g>
     </g>
     <g id="text_1">
      <!-- 0 -->
      <g transform="translate(43.8075 100.078374) scale(0.1 -0.1)">
       <defs>
        <path id="DejaVuSans-30" d="M 2034 4250 
Q 1547 4250 1301 3770 
Q 1056 3291 1056 2328 
Q 1056 1369 1301 889 
Q 1547 409 2034 409 
Q 2525 409 2770 889 
Q 3016 1369 3016 2328 
Q 3016 3291 2770 3770 
Q 2525 4250 2034 4250 
z
M 2034 4750 
Q 2819 4750 3233 4129 
Q 3647 3509 3647 2328 
Q 3647 1150 3233 529 
Q 2819 -91 2034 -91 
Q 1250 -91 836 529 
Q 422 1150 422 2328 
Q 422 3509 836 4129 
Q 1250 4750 2034 4750 
z
" transform="scale(0.015625)"/>
       </defs>
       <use xlink:href="#DejaVuSans-30"/>
      </g>
     </g>
    </g>
    <g id="ytick_2">
     <g id="line2d_49">
      <path d="M 57.17 59.378951 
L 522 59.378951 
" clip-path="url(#p14ed76b745)" style="fill: none; stroke: #b0b0b0; stroke-opacity: 0.25; stroke-width: 0.8; stroke-linecap: square"/>
     </g>
     <g id="line2d_50">
      <g>
       <use xlink:href="#m63a77a60ce" x="57.17" y="59.378951" style="stroke: #000000; stroke-width: 0.8"/>
      </g>
     </g>
     <g id="text_2">
      <!-- 50 -->
      <g transform="translate(37.445 63.17817) scale(0.1 -0.1)">
       <defs>
        <path id="DejaVuSans-35" d="M 691 4666 
L 3169 4666 
L 3169 4134 
L 1269 4134 
L 1269 2991 
Q 1406 3038 1543 3061 
Q 1681 3084 1819 3084 
Q 2600 3084 3056 2656 
Q 3513 2228 3513 1497 
Q 3513 744 3044 326 
Q 2575 -91 1722 -91 
Q 1428 -91 1123 -41 
Q 819 9 494 109 
L 494 744 
Q 775 591 1075 516 
Q 1375 441 1709 441 
Q 2250 441 2565 725 
Q 2881 1009 2881 1497 
Q 2881 1984 2565 2268 
Q 2250 2553 1709 2553 
Q 1456 2553 1204 2497 
Q 953 2441 691 2322 
L 691 4666 
z
" transform="scale(0.015625)"/>
       </defs>
       <use xlink:href="#DejaVuSans-35"/>
       <use xlink:href="#DejaVuSans-30" transform="translate(63.623047 0)"/>
      </g>
     </g>
    </g>
    <g id="ytick_3">
     <g id="line2d_51">
      <path d="M 57.17 22.478748 
L 522 22.478748 
" clip-path="url(#p14ed76b745)" style="fill: none; stroke: #b0b0b0; stroke-opacity: 0.25; stroke-width: 0.8; stroke-linecap: square"/>
     </g>
     <g id="line2d_52">
      <g>
       <use xlink:href="#m63a77a60ce" x="57.17" y="22.478748" style="stroke: #000000; stroke-width: 0.8"/>
      </g>
     </g>
     <g id="text_3">
      <!-- 100 -->
      <g transform="translate(31.0825 26.277966) scale(0.1 -0.1)">
       <defs>
        <path id="DejaVuSans-31" d="M 794 531 
L 1825 531 
L 1825 4091 
L 703 3866 
L 703 4441 
L 1819 4666 
L 2450 4666 
L 2450 531 
L 3481 531 
L 3481 0 
L 794 0 
L 794 531 
z
" transform="scale(0.015625)"/>
       </defs>
       <use xlink:href="#DejaVuSans-31"/>
       <use xlink:href="#DejaVuSans-30" transform="translate(63.623047 0)"/>
       <use xlink:href="#DejaVuSans-30" transform="translate(127.246094 0)"/>
      </g>
     </g>
    </g>
    <g id="text_4">
     <!-- magnitude [dB] -->
     <g transform="translate(25.002813 110.229406) rotate(-90) scale(0.1 -0.1)">
      <defs>
       <path id="DejaVuSans-6d" d="M 3328 2828 
Q 3544 3216 3844 3400 
Q 4144 3584 4550 3584 
Q 5097 3584 5394 3201 
Q 5691 2819 5691 2113 
L 5691 0 
L 5113 0 
L 5113 2094 
Q 5113 2597 4934 2840 
Q 4756 3084 4391 3084 
Q 3944 3084 3684 2787 
Q 3425 2491 3425 1978 
L 3425 0 
L 2847 0 
L 2847 2094 
Q 2847 2600 2669 2842 
Q 2491 3084 2119 3084 
Q 1678 3084 1418 2786 
Q 1159 2488 1159 1978 
L 1159 0 
L 581 0 
L 581 3500 
L 1159 3500 
L 1159 2956 
Q 1356 3278 1631 3431 
Q 1906 3584 2284 3584 
Q 2666 3584 2933 3390 
Q 3200 3197 3328 2828 
z
" transform="scale(0.015625)"/>
       <path id="DejaVuSans-61" d="M 2194 1759 
Q 1497 1759 1228 1600 
Q 959 1441 959 1056 
Q 959 750 1161 570 
Q 1363 391 1709 391 
Q 2188 391 2477 730 
Q 2766 1069 2766 1631 
L 2766 1759 
L 2194 1759 
z
M 3341 1997 
L 3341 0 
L 2766 0 
L 2766 531 
Q 2569 213 2275 61 
Q 1981 -91 1556 -91 
Q 1019 -91 701 211 
Q 384 513 384 1019 
Q 384 1609 779 1909 
Q 1175 2209 1959 2209 
L 2766 2209 
L 2766 2266 
Q 2766 2663 2505 2880 
Q 2244 3097 1772 3097 
Q 1472 3097 1187 3025 
Q 903 2953 641 2809 
L 641 3341 
Q 956 3463 1253 3523 
Q 1550 3584 1831 3584 
Q 2591 3584 2966 3190 
Q 3341 2797 3341 1997 
z
" transform="scale(0.015625)"/>
       <path id="DejaVuSans-67" d="M 2906 1791 
Q 2906 2416 2648 2759 
Q 2391 3103 1925 3103 
Q 1463 3103 1205 2759 
Q 947 2416 947 1791 
Q 947 1169 1205 825 
Q 1463 481 1925 481 
Q 2391 481 2648 825 
Q 2906 1169 2906 1791 
z
M 3481 434 
Q 3481 -459 3084 -895 
Q 2688 -1331 1869 -1331 
Q 1566 -1331 1297 -1286 
Q 1028 -1241 775 -1147 
L 775 -588 
Q 1028 -725 1275 -790 
Q 1522 -856 1778 -856 
Q 2344 -856 2625 -561 
Q 2906 -266 2906 331 
L 2906 616 
Q 2728 306 2450 153 
Q 2172 0 1784 0 
Q 1141 0 747 490 
Q 353 981 353 1791 
Q 353 2603 747 3093 
Q 1141 3584 1784 3584 
Q 2172 3584 2450 3431 
Q 2728 3278 2906 2969 
L 2906 3500 
L 3481 3500 
L 3481 434 
z
" transform="scale(0.015625)"/>
       <path id="DejaVuSans-6e" d="M 3513 2113 
L 3513 0 
L 2938 0 
L 2938 2094 
Q 2938 2591 2744 2837 
Q 2550 3084 2163 3084 
Q 1697 3084 1428 2787 
Q 1159 2491 1159 1978 
L 1159 0 
L 581 0 
L 581 3500 
L 1159 3500 
L 1159 2956 
Q 1366 3272 1645 3428 
Q 1925 3584 2291 3584 
Q 2894 3584 3203 3211 
Q 3513 2838 3513 2113 
z
" transform="scale(0.015625)"/>
       <path id="DejaVuSans-69" d="M 603 3500 
L 1178 3500 
L 1178 0 
L 603 0 
L 603 3500 
z
M 603 4863 
L 1178 4863 
L 1178 4134 
L 603 4134 
L 603 4863 
z
" transform="scale(0.015625)"/>
       <path id="DejaVuSans-74" d="M 1172 4494 
L 1172 3500 
L 2356 3500 
L 2356 3053 
L 1172 3053 
L 1172 1153 
Q 1172 725 1289 603 
Q 1406 481 1766 481 
L 2356 481 
L 2356 0 
L 1766 0 
Q 1100 0 847 248 
Q 594 497 594 1153 
L 594 3053 
L 172 3053 
L 172 3500 
L 594 3500 
L 594 4494 
L 1172 4494 
z
" transform="scale(0.015625)"/>
       <path id="DejaVuSans-75" d="M 544 1381 
L 544 3500 
L 1119 3500 
L 1119 1403 
Q 1119 906 1312 657 
Q 1506 409 1894 409 
Q 2359 409 2629 706 
Q 2900 1003 2900 1516 
L 2900 3500 
L 3475 3500 
L 3475 0 
L 2900 0 
L 2900 538 
Q 2691 219 2414 64 
Q 2138 -91 1772 -91 
Q 1169 -91 856 284 
Q 544 659 544 1381 
z
M 1991 3584 
L 1991 3584 
z
" transform="scale(0.015625)"/>
       <path id="DejaVuSans-64" d="M 2906 2969 
L 2906 4863 
L 3481 4863 
L 3481 0 
L 2906 0 
L 2906 525 
Q 2725 213 2448 61 
Q 2172 -91 1784 -91 
Q 1150 -91 751 415 
Q 353 922 353 1747 
Q 353 2572 751 3078 
Q 1150 3584 1784 3584 
Q 2172 3584 2448 3432 
Q 2725 3281 2906 2969 
z
M 947 1747 
Q 947 1113 1208 752 
Q 1469 391 1925 391 
Q 2381 391 2643 752 
Q 2906 1113 2906 1747 
Q 2906 2381 2643 2742 
Q 2381 3103 1925 3103 
Q 1469 3103 1208 2742 
Q 947 2381 947 1747 
z
" transform="scale(0.015625)"/>
       <path id="DejaVuSans-65" d="M 3597 1894 
L 3597 1613 
L 953 1613 
Q 991 1019 1311 708 
Q 1631 397 2203 397 
Q 2534 397 2845 478 
Q 3156 559 3463 722 
L 3463 178 
Q 3153 47 2828 -22 
Q 2503 -91 2169 -91 
Q 1331 -91 842 396 
Q 353 884 353 1716 
Q 353 2575 817 3079 
Q 1281 3584 2069 3584 
Q 2775 3584 3186 3129 
Q 3597 2675 3597 1894 
z
M 3022 2063 
Q 3016 2534 2758 2815 
Q 2500 3097 2075 3097 
Q 1594 3097 1305 2825 
Q 1016 2553 972 2059 
L 3022 2063 
z
" transform="scale(0.015625)"/>
       <path id="DejaVuSans-20" transform="scale(0.015625)"/>
       <path id="DejaVuSans-5b" d="M 550 4863 
L 1875 4863 
L 1875 4416 
L 1125 4416 
L 1125 -397 
L 1875 -397 
L 1875 -844 
L 550 -844 
L 550 4863 
z
" transform="scale(0.015625)"/>
       <path id="DejaVuSans-42" d="M 1259 2228 
L 1259 519 
L 2272 519 
Q 2781 519 3026 730 
Q 3272 941 3272 1375 
Q 3272 1813 3026 2020 
Q 2781 2228 2272 2228 
L 1259 2228 
z
M 1259 4147 
L 1259 2741 
L 2194 2741 
Q 2656 2741 2882 2914 
Q 3109 3088 3109 3444 
Q 3109 3797 2882 3972 
Q 2656 4147 2194 4147 
L 1259 4147 
z
M 628 4666 
L 2241 4666 
Q 2963 4666 3353 4366 
Q 3744 4066 3744 3513 
Q 3744 3084 3544 2831 
Q 3344 2578 2956 2516 
Q 3422 2416 3680 2098 
Q 3938 1781 3938 1306 
Q 3938 681 3513 340 
Q 3088 0 2303 0 
L 628 0 
L 628 4666 
z
" transform="scale(0.015625)"/>
       <path id="DejaVuSans-5d" d="M 1947 4863 
L 1947 -844 
L 622 -844 
L 622 -397 
L 1369 -397 
L 1369 4416 
L 622 4416 
L 622 4863 
L 1947 4863 
z
" transform="scale(0.015625)"/>
      </defs>
      <use xlink:href="#DejaVuSans-6d"/>
      <use xlink:href="#DejaVuSans-61" transform="translate(97.412109 0)"/>
      <use xlink:href="#DejaVuSans-67" transform="translate(158.691406 0)"/>
      <use xlink:href="#DejaVuSans-6e" transform="translate(222.167969 0)"/>
      <use xlink:href="#DejaVuSans-69" transform="translate(285.546875 0)"/>
      <use xlink:href="#DejaVuSans-74" transform="translate(313.330078 0)"/>
      <use xlink:href="#DejaVuSans-75" transform="translate(352.539062 0)"/>
      <use xlink:href="#DejaVuSans-64" transform="translate(415.917969 0)"/>
      <use xlink:href="#DejaVuSans-65" transform="translate(479.394531 0)"/>
      <use xlink:href="#DejaVuSans-20" transform="translate(540.917969 0)"/>
      <use xlink:href="#DejaVuSans-5b" transform="translate(572.705078 0)"/>
      <use xlink:href="#DejaVuSans-64" transform="translate(611.71875 0)"/>
      <use xlink:href="#DejaVuSans-42" transform="translate(675.195312 0)"/>
      <use xlink:href="#DejaVuSans-5d" transform="translate(743.798828 0)"/>
     </g>
    </g>
   </g>
   <g id="line2d_53">
    <path d="M 78.298636 84.859881 
L 162.018877 86.239924 
L 183.941818 87.741274 
L 200.946572 88.681887 
L 214.840468 89.900446 
L 226.58759 91.360286 
L 236.763409 91.858457 
L 245.739118 91.929942 
L 253.768163 94.020099 
L 261.031318 95.195691 
L 267.662059 98.511336 
L 273.761749 98.553138 
L 279.409181 98.762669 
L 284.666813 100.248665 
L 289.585 102.697164 
L 294.204926 101.237679 
L 298.560709 103.433065 
L 302.680926 104.41449 
L 306.589754 109.265077 
L 310.30783 102.078735 
L 313.852909 101.683495 
L 317.240375 105.508456 
L 320.48365 104.160706 
L 323.594508 105.54831 
L 326.58334 95.993784 
L 329.459359 93.99521 
L 332.230771 101.008564 
L 334.904921 99.378346 
L 337.488404 99.254219 
L 339.987167 92.336426 
L 342.406591 94.551494 
L 344.751559 87.792766 
L 347.026517 90.143613 
L 349.235526 104.719489 
L 351.3823 90.741972 
L 353.470251 92.959776 
L 355.502517 90.569246 
L 357.48199 82.943675 
L 359.411345 91.112259 
L 361.293057 89.23943 
L 363.129421 86.102894 
L 364.922573 92.645366 
L 366.6745 92.209577 
L 368.387054 91.463218 
L 370.061966 88.128744 
L 371.700856 96.81463 
L 373.305241 100.327406 
L 374.876543 103.119946 
L 376.416099 89.804673 
L 377.925167 95.740596 
L 380.856507 83.696929 
L 382.28095 82.753525 
L 383.679254 76.728262 
L 385.052362 80.058108 
L 386.401167 76.277385 
L 387.726512 73.283408 
L 389.029201 73.895873 
L 390.309995 74.139732 
L 391.569618 78.996778 
L 392.808758 80.604334 
L 394.028071 75.189313 
L 395.228182 71.931744 
L 396.409685 75.264205 
L 397.57315 72.947915 
L 398.719118 74.626465 
L 399.848108 89.360459 
L 400.960616 80.48873 
L 402.057116 79.943803 
L 403.138063 86.023081 
L 404.203891 88.689459 
L 405.255017 95.645296 
L 406.291842 87.516995 
L 407.314749 76.36965 
L 408.324108 77.988839 
L 409.320271 72.040902 
L 410.303581 71.255576 
L 411.274364 70.724769 
L 412.232936 72.426742 
L 413.1796 63.584576 
L 414.114648 62.514924 
L 415.038361 58.983671 
L 415.951012 61.421155 
L 416.852862 59.815008 
L 417.744164 62.439031 
L 418.625162 70.215083 
L 419.496091 61.753837 
L 420.357178 69.125593 
L 421.208645 62.187878 
L 422.050703 63.866224 
L 422.883557 64.810221 
L 423.707408 67.177736 
L 424.522447 61.407796 
L 425.328862 66.363185 
L 426.126832 73.128555 
L 426.916533 77.125296 
L 427.698134 75.140158 
L 428.4718 71.315974 
L 429.23769 64.147848 
L 429.995959 65.249193 
L 430.746758 58.71881 
L 431.490232 60.211297 
L 432.226522 62.560531 
L 432.955766 59.080458 
L 433.678098 60.131599 
L 434.393648 47.963666 
L 435.8049 49.613211 
L 436.500845 51.115687 
L 437.190492 51.799935 
L 437.873953 45.107486 
L 438.551339 47.390653 
L 439.222757 60.674208 
L 440.548103 50.531205 
L 441.202231 49.542027 
L 441.850792 52.278774 
L 442.49388 48.95782 
L 443.131586 57.167308 
L 444.391209 62.781261 
L 445.013297 61.257486 
L 445.630349 61.692915 
L 446.242444 59.373142 
L 446.849662 58.811508 
L 447.45208 49.056855 
L 448.049773 66.983102 
L 449.231276 38.6154 
L 449.815229 44.522869 
L 450.394741 39.918957 
L 450.969879 43.082794 
L 451.540709 49.107826 
L 452.107295 41.672919 
L 452.669699 40.918599 
L 453.227983 48.125301 
L 453.782207 35.471797 
L 454.332429 42.498173 
L 454.878707 46.507338 
L 455.421097 39.090072 
L 455.959654 42.046682 
L 456.494431 37.884039 
L 457.025482 38.770509 
L 458.076608 56.300791 
L 458.596784 50.501137 
L 459.113433 42.533854 
L 459.626603 58.685685 
L 460.13634 40.541981 
L 460.64269 39.738609 
L 461.145698 34.088265 
L 461.645408 38.015912 
L 462.141862 31.547036 
L 462.635103 33.642923 
L 463.125172 34.449027 
L 463.612109 34.365549 
L 464.095955 26.288527 
L 464.576748 28.151991 
L 465.054527 28.66611 
L 465.529329 33.944536 
L 466.001191 25.651753 
L 466.470149 32.681222 
L 466.936238 31.764121 
L 467.399495 26.664994 
L 467.859952 31.834112 
L 468.317644 44.064071 
L 468.772603 32.155931 
L 469.224862 38.080662 
L 469.674453 35.750543 
L 470.121407 56.517909 
L 470.565755 37.389468 
L 471.007527 36.83728 
L 471.446753 34.289103 
L 471.883461 27.241419 
L 472.317682 23.400965 
L 472.749442 26.749414 
L 473.178769 34.483391 
L 473.605692 21.681374 
L 474.452428 27.479694 
L 474.872293 25.267455 
L 475.289859 26.234986 
L 475.705148 24.4222 
L 476.118187 19.724255 
L 476.528999 23.186822 
L 476.937608 22.787271 
L 477.344038 29.813807 
L 477.748312 30.620183 
L 478.150453 35.684917 
L 478.550482 26.804422 
L 479.344296 36.247205 
L 479.738123 41.284221 
L 480.129926 40.503466 
L 480.519725 35.042421 
L 480.907539 36.317609 
L 481.293391 26.964337 
L 481.677298 24.568841 
L 482.059281 21.030018 
L 482.439359 23.34922 
L 482.81755 28.341939 
L 483.193874 26.822441 
L 483.568349 28.791465 
L 483.940993 23.592607 
L 484.311823 27.462338 
L 484.680857 27.51816 
L 485.048113 18.324704 
L 485.413607 17.780019 
L 485.777357 17.897031 
L 486.139379 17.840317 
L 486.499689 17.020011 
L 486.858304 32.418974 
L 487.215239 21.367681 
L 487.570509 22.791714 
L 487.924132 26.539593 
L 488.27612 36.659563 
L 488.626491 28.016803 
L 488.975258 32.521329 
L 489.322436 46.538647 
L 489.668039 28.925637 
L 490.012083 22.456234 
L 490.35458 22.814104 
L 490.695544 31.715998 
L 491.03499 31.605707 
L 491.37293 23.457985 
L 491.709379 22.581285 
L 492.044348 30.297636 
L 492.377852 23.448174 
L 492.709902 22.789799 
L 493.040512 18.002289 
L 493.369694 18.387099 
L 493.69746 27.06854 
L 494.023822 19.431023 
L 494.348792 23.064769 
L 494.672383 16.650776 
L 494.994605 20.038505 
L 495.315471 16.280727 
L 495.634991 18.719771 
L 495.953177 26.235854 
L 496.27004 30.076761 
L 496.585591 30.734751 
L 496.89984 33.628203 
L 497.2128 35.322642 
L 497.524479 39.05385 
L 497.834888 29.494627 
L 498.144039 29.789736 
L 498.45194 33.297899 
L 499.064035 21.968435 
L 499.368249 25.272593 
L 499.671253 19.103728 
L 499.973057 23.743663 
L 500.273671 18.789153 
L 500.573103 22.850893 
L 500.871364 36.356736 
L 500.871364 36.356736 
" clip-path="url(#p14ed76b745)" style="fill: none; stroke: #4c78a8; stroke-width: 1.5; stroke-linecap: square"/>
   </g>
   <g id="line2d_54">
    <path d="M 78.298636 86.146871 
L 131.120227 89.982841 
L 162.018877 91.353249 
L 183.941818 99.611776 
L 200.946572 101.608274 
L 214.840468 104.080017 
L 226.58759 109.312728 
L 236.763409 108.533031 
L 245.739118 111.817923 
L 253.768163 116.487944 
L 261.031318 111.837281 
L 267.662059 112.952909 
L 273.761749 115.930048 
L 279.409181 125.895273 
L 284.666813 116.030414 
L 289.585 115.68935 
L 294.204926 116.083935 
L 298.560709 120.206434 
L 302.680926 123.248144 
L 306.589754 114.119527 
L 310.30783 117.093755 
L 313.852909 116.040238 
L 317.240375 116.515772 
L 320.48365 116.554718 
L 323.594508 123.34769 
L 326.58334 117.399114 
L 329.459359 106.180044 
L 332.230771 115.336121 
L 334.904921 110.996271 
L 337.488404 107.877215 
L 339.987167 110.200104 
L 342.406591 121.254529 
L 344.751559 106.155995 
L 347.026517 116.023368 
L 349.235526 114.491505 
L 351.3823 112.699069 
L 353.470251 103.912745 
L 355.502517 101.674347 
L 357.48199 99.256602 
L 359.411345 100.01746 
L 361.293057 102.446845 
L 363.129421 104.620679 
L 364.922573 99.696067 
L 366.6745 99.657858 
L 368.387054 104.617591 
L 370.061966 107.506205 
L 371.700856 106.597541 
L 373.305241 115.610676 
L 374.876543 110.101843 
L 376.416099 106.902616 
L 377.925167 107.730061 
L 379.404931 106.378761 
L 380.856507 99.389096 
L 382.28095 105.576122 
L 383.679254 94.955149 
L 385.052362 95.49616 
L 386.401167 94.378691 
L 387.726512 94.396921 
L 389.029201 89.143294 
L 390.309995 94.115322 
L 391.569618 97.782514 
L 392.808758 93.162144 
L 394.028071 90.429152 
L 395.228182 89.081174 
L 396.409685 87.280585 
L 397.57315 98.418292 
L 398.719118 90.89057 
L 399.848108 103.353922 
L 400.960616 100.524836 
L 402.057116 93.629526 
L 403.138063 109.979392 
L 404.203891 102.249686 
L 405.255017 107.941168 
L 406.291842 101.423462 
L 408.324108 97.548868 
L 409.320271 90.538687 
L 410.303581 90.18666 
L 411.274364 89.234883 
L 412.232936 84.272992 
L 413.1796 86.301009 
L 414.114648 81.06881 
L 415.038361 78.771116 
L 415.951012 75.52531 
L 416.852862 82.328791 
L 417.744164 78.786735 
L 418.625162 79.975123 
L 419.496091 78.379106 
L 420.357178 73.527821 
L 421.208645 74.906551 
L 422.050703 83.040264 
L 422.883557 77.789481 
L 423.707408 80.955335 
L 424.522447 81.684813 
L 425.328862 89.305224 
L 426.126832 88.195171 
L 426.916533 88.604401 
L 427.698134 99.206124 
L 428.4718 96.91691 
L 429.995959 81.613972 
L 430.746758 81.976727 
L 431.490232 78.185024 
L 432.226522 70.674797 
L 432.955766 64.387922 
L 433.678098 66.182091 
L 434.393648 63.224441 
L 435.102541 69.132652 
L 435.8049 59.17669 
L 436.500845 63.894569 
L 437.190492 70.860359 
L 437.873953 66.700572 
L 438.551339 74.67876 
L 439.222757 71.780057 
L 439.888311 64.372323 
L 440.548103 66.087919 
L 441.202231 71.228257 
L 441.850792 71.320471 
L 442.49388 72.553657 
L 443.131586 71.997186 
L 443.764 73.432476 
L 444.391209 79.749442 
L 445.013297 73.136982 
L 445.630349 72.255347 
L 446.242444 71.606218 
L 446.849662 68.697319 
L 447.45208 61.402452 
L 448.049773 62.230383 
L 448.642814 67.513694 
L 449.231276 58.559786 
L 449.815229 57.770815 
L 450.394741 63.398423 
L 450.969879 57.759777 
L 451.540709 55.019722 
L 452.107295 57.828099 
L 452.669699 57.705735 
L 453.227983 62.331201 
L 453.782207 56.020414 
L 454.332429 55.743731 
L 454.878707 57.220134 
L 455.421097 60.060802 
L 455.959654 60.380097 
L 456.494431 58.581435 
L 457.025482 61.157639 
L 457.552857 58.453626 
L 458.076608 81.964176 
L 458.596784 68.404668 
L 459.113433 61.954352 
L 459.626603 52.46948 
L 460.13634 51.131957 
L 460.64269 53.749941 
L 461.145698 50.626126 
L 461.645408 53.743759 
L 462.141862 46.441255 
L 462.635103 47.380347 
L 463.125172 51.377452 
L 463.612109 52.208333 
L 464.095955 43.279401 
L 464.576748 45.859178 
L 465.054527 39.539749 
L 465.529329 44.85262 
L 466.001191 44.286529 
L 466.470149 48.354514 
L 466.936238 47.125149 
L 467.399495 43.818506 
L 468.317644 49.558816 
L 469.224862 51.325552 
L 470.121407 58.835094 
L 470.565755 59.02942 
L 471.007527 46.992127 
L 471.446753 42.967351 
L 472.317682 39.913588 
L 472.749442 36.905683 
L 473.178769 43.52611 
L 473.605692 38.2074 
L 474.030236 40.420917 
L 474.452428 39.995912 
L 474.872293 34.61569 
L 475.289859 46.950263 
L 475.705148 35.956872 
L 476.118187 41.866261 
L 476.528999 38.731868 
L 476.937608 44.334122 
L 477.344038 35.043007 
L 477.748312 45.018228 
L 478.150453 49.219846 
L 478.550482 43.727311 
L 478.948423 54.100516 
L 479.344296 49.537066 
L 479.738123 50.371556 
L 480.129926 53.78819 
L 480.519725 54.266372 
L 480.907539 45.022815 
L 481.293391 40.636135 
L 481.677298 41.675247 
L 482.059281 39.234688 
L 482.439359 45.129422 
L 483.193874 36.185325 
L 483.568349 36.100033 
L 483.940993 34.829105 
L 484.311823 31.942146 
L 484.680857 39.563636 
L 485.048113 36.803815 
L 485.413607 35.777998 
L 485.777357 44.876003 
L 486.139379 40.411266 
L 486.499689 33.890613 
L 486.858304 39.955574 
L 487.215239 41.621905 
L 487.570509 37.217709 
L 487.924132 38.648907 
L 488.27612 42.33724 
L 488.626491 40.75507 
L 489.322436 46.855595 
L 489.668039 46.333003 
L 490.012083 48.115238 
L 491.03499 33.330911 
L 491.37293 34.340912 
L 491.709379 39.15621 
L 492.044348 37.086958 
L 492.709902 31.305436 
L 493.040512 33.289878 
L 493.369694 34.413683 
L 494.348792 40.073252 
L 494.672383 33.243095 
L 494.994605 32.251695 
L 495.634991 43.658807 
L 495.953177 41.039347 
L 496.27004 43.576021 
L 496.585591 51.61816 
L 496.89984 46.321989 
L 497.2128 48.161268 
L 497.524479 54.665723 
L 497.834888 47.011281 
L 498.144039 42.900948 
L 498.45194 41.699214 
L 498.758602 38.487307 
L 499.064035 34.115323 
L 499.368249 36.779843 
L 499.671253 37.771272 
L 499.973057 35.176999 
L 500.573103 43.04287 
L 500.871364 47.843334 
L 500.871364 47.843334 
" clip-path="url(#p14ed76b745)" style="fill: none; stroke: #f58518; stroke-width: 1.5; stroke-linecap: square"/>
   </g>
   <g id="patch_3">
    <path d="M 57.17 131.376 
L 57.17 10.8 
" style="fill: none; stroke: #000000; stroke-width: 0.8; stroke-linejoin: miter; stroke-linecap: square"/>
   </g>
   <g id="patch_4">
    <path d="M 522 131.376 
L 522 10.8 
" style="fill: none; stroke: #000000; stroke-width: 0.8; stroke-linejoin: miter; stroke-linecap: square"/>
   </g>
   <g id="patch_5">
    <path d="M 57.17 131.376 
L 522 131.376 
" style="fill: none; stroke: #000000; stroke-width: 0.8; stroke-linejoin: miter; stroke-linecap: square"/>
   </g>
   <g id="patch_6">
    <path d="M 57.17 10.8 
L 522 10.8 
" style="fill: none; stroke: #000000; stroke-width: 0.8; stroke-linejoin: miter; stroke-linecap: square"/>
   </g>
   <g id="legend_1">
    <g id="line2d_55">
     <path d="M 66.17 23.898438 
L 76.17 23.898438 
L 86.17 23.898438 
" style="fill: none; stroke: #4c78a8; stroke-width: 1.5; stroke-linecap: square"/>
    </g>
    <g id="text_5">
     <!-- Q -->
     <g transform="translate(94.17 27.398438) scale(0.1 -0.1)">
      <defs>
       <path id="DejaVuSans-51" d="M 2522 4238 
Q 1834 4238 1429 3725 
Q 1025 3213 1025 2328 
Q 1025 1447 1429 934 
Q 1834 422 2522 422 
Q 3209 422 3611 934 
Q 4013 1447 4013 2328 
Q 4013 3213 3611 3725 
Q 3209 4238 2522 4238 
z
M 3406 84 
L 4238 -825 
L 3475 -825 
L 2784 -78 
Q 2681 -84 2626 -87 
Q 2572 -91 2522 -91 
Q 1538 -91 948 567 
Q 359 1225 359 2328 
Q 359 3434 948 4092 
Q 1538 4750 2522 4750 
Q 3503 4750 4090 4092 
Q 4678 3434 4678 2328 
Q 4678 1516 4351 937 
Q 4025 359 3406 84 
z
" transform="scale(0.015625)"/>
      </defs>
      <use xlink:href="#DejaVuSans-51"/>
     </g>
    </g>
    <g id="line2d_56">
     <path d="M 66.17 38.576563 
L 76.17 38.576563 
L 86.17 38.576563 
" style="fill: none; stroke: #f58518; stroke-width: 1.5; stroke-linecap: square"/>
    </g>
    <g id="text_6">
     <!-- gamma -->
     <g transform="translate(94.17 42.076563) scale(0.1 -0.1)">
      <use xlink:href="#DejaVuSans-67"/>
      <use xlink:href="#DejaVuSans-61" transform="translate(63.476562 0)"/>
      <use xlink:href="#DejaVuSans-6d" transform="translate(124.755859 0)"/>
      <use xlink:href="#DejaVuSans-6d" transform="translate(222.167969 0)"/>
      <use xlink:href="#DejaVuSans-61" transform="translate(319.580078 0)"/>
     </g>
    </g>
   </g>
  </g>
  <g id="axes_2">
   <g id="patch_7">
    <path d="M 57.17 266.252 
L 522 266.252 
L 522 145.676 
L 57.17 145.676 
z
" style="fill: #ffffff"/>
   </g>
   <g id="matplotlib.axis_3">
    <g id="xtick_24">
     <g id="line2d_57">
      <path d="M 202.753901 266.252 
L 202.753901 145.676 
" clip-path="url(#pfa193050dd)" style="fill: none; stroke: #b0b0b0; stroke-opacity: 0.25; stroke-width: 0.8; stroke-linecap: square"/>
     </g>
     <g id="line2d_58">
      <g>
       <use xlink:href="#m994f895a8a" x="202.753901" y="266.252" style="stroke: #000000; stroke-width: 0.8"/>
      </g>
     </g>
    </g>
    <g id="xtick_25">
     <g id="line2d_59">
      <path d="M 378.223428 266.252 
L 378.223428 145.676 
" clip-path="url(#pfa193050dd)" style="fill: none; stroke: #b0b0b0; stroke-opacity: 0.25; stroke-width: 0.8; stroke-linecap: square"/>
     </g>
     <g id="line2d_60">
      <g>
       <use xlink:href="#m994f895a8a" x="378.223428" y="266.252" style="stroke: #000000; stroke-width: 0.8"/>
      </g>
     </g>
    </g>
    <g id="xtick_26">
     <g id="line2d_61">
      <path d="M 80.105965 266.252 
L 80.105965 145.676 
" clip-path="url(#pfa193050dd)" style="fill: none; stroke: #b0b0b0; stroke-opacity: 0.25; stroke-width: 0.8; stroke-linecap: square"/>
     </g>
     <g id="line2d_62">
      <g>
       <use xlink:href="#m7f9f7416fa" x="80.105965" y="266.252" style="stroke: #000000; stroke-width: 0.6"/>
      </g>
     </g>
    </g>
    <g id="xtick_27">
     <g id="line2d_63">
      <path d="M 111.004615 266.252 
L 111.004615 145.676 
" clip-path="url(#pfa193050dd)" style="fill: none; stroke: #b0b0b0; stroke-opacity: 0.25; stroke-width: 0.8; stroke-linecap: square"/>
     </g>
     <g id="line2d_64">
      <g>
       <use xlink:href="#m7f9f7416fa" x="111.004615" y="266.252" style="stroke: #000000; stroke-width: 0.6"/>
      </g>
     </g>
    </g>
    <g id="xtick_28">
     <g id="line2d_65">
      <path d="M 132.927556 266.252 
L 132.927556 145.676 
" clip-path="url(#pfa193050dd)" style="fill: none; stroke: #b0b0b0; stroke-opacity: 0.25; stroke-width: 0.8; stroke-linecap: square"/>
     </g>
     <g id="line2d_66">
      <g>
       <use xlink:href="#m7f9f7416fa" x="132.927556" y="266.252" style="stroke: #000000; stroke-width: 0.6"/>
      </g>
     </g>
    </g>
    <g id="xtick_29">
     <g id="line2d_67">
      <path d="M 149.93231 266.252 
L 149.93231 145.676 
" clip-path="url(#pfa193050dd)" style="fill: none; stroke: #b0b0b0; stroke-opacity: 0.25; stroke-width: 0.8; stroke-linecap: square"/>
     </g>
     <g id="line2d_68">
      <g>
       <use xlink:href="#m7f9f7416fa" x="149.93231" y="266.252" style="stroke: #000000; stroke-width: 0.6"/>
      </g>
     </g>
    </g>
    <g id="xtick_30">
     <g id="line2d_69">
      <path d="M 163.826206 266.252 
L 163.826206 145.676 
" clip-path="url(#pfa193050dd)" style="fill: none; stroke: #b0b0b0; stroke-opacity: 0.25; stroke-width: 0.8; stroke-linecap: square"/>
     </g>
     <g id="line2d_70">
      <g>
       <use xlink:href="#m7f9f7416fa" x="163.826206" y="266.252" style="stroke: #000000; stroke-width: 0.6"/>
      </g>
     </g>
    </g>
    <g id="xtick_31">
     <g id="line2d_71">
      <path d="M 175.573327 266.252 
L 175.573327 145.676 
" clip-path="url(#pfa193050dd)" style="fill: none; stroke: #b0b0b0; stroke-opacity: 0.25; stroke-width: 0.8; stroke-linecap: square"/>
     </g>
     <g id="line2d_72">
      <g>
       <use xlink:href="#m7f9f7416fa" x="175.573327" y="266.252" style="stroke: #000000; stroke-width: 0.6"/>
      </g>
     </g>
    </g>
    <g id="xtick_32">
     <g id="line2d_73">
      <path d="M 185.749147 266.252 
L 185.749147 145.676 
" clip-path="url(#pfa193050dd)" style="fill: none; stroke: #b0b0b0; stroke-opacity: 0.25; stroke-width: 0.8; stroke-linecap: square"/>
     </g>
     <g id="line2d_74">
      <g>
       <use xlink:href="#m7f9f7416fa" x="185.749147" y="266.252" style="stroke: #000000; stroke-width: 0.6"/>
      </g>
     </g>
    </g>
    <g id="xtick_33">
     <g id="line2d_75">
      <path d="M 194.724856 266.252 
L 194.724856 145.676 
" clip-path="url(#pfa193050dd)" style="fill: none; stroke: #b0b0b0; stroke-opacity: 0.25; stroke-width: 0.8; stroke-linecap: square"/>
     </g>
     <g id="line2d_76">
      <g>
       <use xlink:href="#m7f9f7416fa" x="194.724856" y="266.252" style="stroke: #000000; stroke-width: 0.6"/>
      </g>
     </g>
    </g>
    <g id="xtick_34">
     <g id="line2d_77">
      <path d="M 255.575492 266.252 
L 255.575492 145.676 
" clip-path="url(#pfa193050dd)" style="fill: none; stroke: #b0b0b0; stroke-opacity: 0.25; stroke-width: 0.8; stroke-linecap: square"/>
     </g>
     <g id="line2d_78">
      <g>
       <use xlink:href="#m7f9f7416fa" x="255.575492" y="266.252" style="stroke: #000000; stroke-width: 0.6"/>
      </g>
     </g>
    </g>
    <g id="xtick_35">
     <g id="line2d_79">
      <path d="M 286.474142 266.252 
L 286.474142 145.676 
" clip-path="url(#pfa193050dd)" style="fill: none; stroke: #b0b0b0; stroke-opacity: 0.25; stroke-width: 0.8; stroke-linecap: square"/>
     </g>
     <g id="line2d_80">
      <g>
       <use xlink:href="#m7f9f7416fa" x="286.474142" y="266.252" style="stroke: #000000; stroke-width: 0.6"/>
      </g>
     </g>
    </g>
    <g id="xtick_36">
     <g id="line2d_81">
      <path d="M 308.397083 266.252 
L 308.397083 145.676 
" clip-path="url(#pfa193050dd)" style="fill: none; stroke: #b0b0b0; stroke-opacity: 0.25; stroke-width: 0.8; stroke-linecap: square"/>
     </g>
     <g id="line2d_82">
      <g>
       <use xlink:href="#m7f9f7416fa" x="308.397083" y="266.252" style="stroke: #000000; stroke-width: 0.6"/>
      </g>
     </g>
    </g>
    <g id="xtick_37">
     <g id="line2d_83">
      <path d="M 325.401837 266.252 
L 325.401837 145.676 
" clip-path="url(#pfa193050dd)" style="fill: none; stroke: #b0b0b0; stroke-opacity: 0.25; stroke-width: 0.8; stroke-linecap: square"/>
     </g>
     <g id="line2d_84">
      <g>
       <use xlink:href="#m7f9f7416fa" x="325.401837" y="266.252" style="stroke: #000000; stroke-width: 0.6"/>
      </g>
     </g>
    </g>
    <g id="xtick_38">
     <g id="line2d_85">
      <path d="M 339.295733 266.252 
L 339.295733 145.676 
" clip-path="url(#pfa193050dd)" style="fill: none; stroke: #b0b0b0; stroke-opacity: 0.25; stroke-width: 0.8; stroke-linecap: square"/>
     </g>
     <g id="line2d_86">
      <g>
       <use xlink:href="#m7f9f7416fa" x="339.295733" y="266.252" style="stroke: #000000; stroke-width: 0.6"/>
      </g>
     </g>
    </g>
    <g id="xtick_39">
     <g id="line2d_87">
      <path d="M 351.042854 266.252 
L 351.042854 145.676 
" clip-path="url(#pfa193050dd)" style="fill: none; stroke: #b0b0b0; stroke-opacity: 0.25; stroke-width: 0.8; stroke-linecap: square"/>
     </g>
     <g id="line2d_88">
      <g>
       <use xlink:href="#m7f9f7416fa" x="351.042854" y="266.252" style="stroke: #000000; stroke-width: 0.6"/>
      </g>
     </g>
    </g>
    <g id="xtick_40">
     <g id="line2d_89">
      <path d="M 361.218674 266.252 
L 361.218674 145.676 
" clip-path="url(#pfa193050dd)" style="fill: none; stroke: #b0b0b0; stroke-opacity: 0.25; stroke-width: 0.8; stroke-linecap: square"/>
     </g>
     <g id="line2d_90">
      <g>
       <use xlink:href="#m7f9f7416fa" x="361.218674" y="266.252" style="stroke: #000000; stroke-width: 0.6"/>
      </g>
     </g>
    </g>
    <g id="xtick_41">
     <g id="line2d_91">
      <path d="M 370.194382 266.252 
L 370.194382 145.676 
" clip-path="url(#pfa193050dd)" style="fill: none; stroke: #b0b0b0; stroke-opacity: 0.25; stroke-width: 0.8; stroke-linecap: square"/>
     </g>
     <g id="line2d_92">
      <g>
       <use xlink:href="#m7f9f7416fa" x="370.194382" y="266.252" style="stroke: #000000; stroke-width: 0.6"/>
      </g>
     </g>
    </g>
    <g id="xtick_42">
     <g id="line2d_93">
      <path d="M 431.045019 266.252 
L 431.045019 145.676 
" clip-path="url(#pfa193050dd)" style="fill: none; stroke: #b0b0b0; stroke-opacity: 0.25; stroke-width: 0.8; stroke-linecap: square"/>
     </g>
     <g id="line2d_94">
      <g>
       <use xlink:href="#m7f9f7416fa" x="431.045019" y="266.252" style="stroke: #000000; stroke-width: 0.6"/>
      </g>
     </g>
    </g>
    <g id="xtick_43">
     <g id="line2d_95">
      <path d="M 461.943669 266.252 
L 461.943669 145.676 
" clip-path="url(#pfa193050dd)" style="fill: none; stroke: #b0b0b0; stroke-opacity: 0.25; stroke-width: 0.8; stroke-linecap: square"/>
     </g>
     <g id="line2d_96">
      <g>
       <use xlink:href="#m7f9f7416fa" x="461.943669" y="266.252" style="stroke: #000000; stroke-width: 0.6"/>
      </g>
     </g>
    </g>
    <g id="xtick_44">
     <g id="line2d_97">
      <path d="M 483.86661 266.252 
L 483.86661 145.676 
" clip-path="url(#pfa193050dd)" style="fill: none; stroke: #b0b0b0; stroke-opacity: 0.25; stroke-width: 0.8; stroke-linecap: square"/>
     </g>
     <g id="line2d_98">
      <g>
       <use xlink:href="#m7f9f7416fa" x="483.86661" y="266.252" style="stroke: #000000; stroke-width: 0.6"/>
      </g>
     </g>
    </g>
    <g id="xtick_45">
     <g id="line2d_99">
      <path d="M 500.871364 266.252 
L 500.871364 145.676 
" clip-path="url(#pfa193050dd)" style="fill: none; stroke: #b0b0b0; stroke-opacity: 0.25; stroke-width: 0.8; stroke-linecap: square"/>
     </g>
     <g id="line2d_100">
      <g>
       <use xlink:href="#m7f9f7416fa" x="500.871364" y="266.252" style="stroke: #000000; stroke-width: 0.6"/>
      </g>
     </g>
    </g>
    <g id="xtick_46">
     <g id="line2d_101">
      <path d="M 514.765259 266.252 
L 514.765259 145.676 
" clip-path="url(#pfa193050dd)" style="fill: none; stroke: #b0b0b0; stroke-opacity: 0.25; stroke-width: 0.8; stroke-linecap: square"/>
     </g>
     <g id="line2d_102">
      <g>
       <use xlink:href="#m7f9f7416fa" x="514.765259" y="266.252" style="stroke: #000000; stroke-width: 0.6"/>
      </g>
     </g>
    </g>
   </g>
   <g id="matplotlib.axis_4">
    <g id="ytick_4">
     <g id="line2d_103">
      <path d="M 57.17 256.490359 
L 522 256.490359 
" clip-path="url(#pfa193050dd)" style="fill: none; stroke: #b0b0b0; stroke-opacity: 0.25; stroke-width: 0.8; stroke-linecap: square"/>
     </g>
     <g id="line2d_104">
      <g>
       <use xlink:href="#m63a77a60ce" x="57.17" y="256.490359" style="stroke: #000000; stroke-width: 0.8"/>
      </g>
     </g>
     <g id="text_7">
      <!-- 0 -->
      <g transform="translate(43.8075 260.289578) scale(0.1 -0.1)">
       <use xlink:href="#DejaVuSans-30"/>
      </g>
     </g>
    </g>
    <g id="ytick_5">
     <g id="line2d_105">
      <path d="M 57.17 226.838949 
L 522 226.838949 
" clip-path="url(#pfa193050dd)" style="fill: none; stroke: #b0b0b0; stroke-opacity: 0.25; stroke-width: 0.8; stroke-linecap: square"/>
     </g>
     <g id="line2d_106">
      <g>
       <use xlink:href="#m63a77a60ce" x="57.17" y="226.838949" style="stroke: #000000; stroke-width: 0.8"/>
      </g>
     </g>
     <g id="text_8">
      <!-- 2000 -->
      <g transform="translate(24.72 230.638168) scale(0.1 -0.1)">
       <defs>
        <path id="DejaVuSans-32" d="M 1228 531 
L 3431 531 
L 3431 0 
L 469 0 
L 469 531 
Q 828 903 1448 1529 
Q 2069 2156 2228 2338 
Q 2531 2678 2651 2914 
Q 2772 3150 2772 3378 
Q 2772 3750 2511 3984 
Q 2250 4219 1831 4219 
Q 1534 4219 1204 4116 
Q 875 4013 500 3803 
L 500 4441 
Q 881 4594 1212 4672 
Q 1544 4750 1819 4750 
Q 2544 4750 2975 4387 
Q 3406 4025 3406 3419 
Q 3406 3131 3298 2873 
Q 3191 2616 2906 2266 
Q 2828 2175 2409 1742 
Q 1991 1309 1228 531 
z
" transform="scale(0.015625)"/>
       </defs>
       <use xlink:href="#DejaVuSans-32"/>
       <use xlink:href="#DejaVuSans-30" transform="translate(63.623047 0)"/>
       <use xlink:href="#DejaVuSans-30" transform="translate(127.246094 0)"/>
       <use xlink:href="#DejaVuSans-30" transform="translate(190.869141 0)"/>
      </g>
     </g>
    </g>
    <g id="ytick_6">
     <g id="line2d_107">
      <path d="M 57.17 197.18754 
L 522 197.18754 
" clip-path="url(#pfa193050dd)" style="fill: none; stroke: #b0b0b0; stroke-opacity: 0.25; stroke-width: 0.8; stroke-linecap: square"/>
     </g>
     <g id="line2d_108">
      <g>
       <use xlink:href="#m63a77a60ce" x="57.17" y="197.18754" style="stroke: #000000; stroke-width: 0.8"/>
      </g>
     </g>
     <g id="text_9">
      <!-- 4000 -->
      <g transform="translate(24.72 200.986759) scale(0.1 -0.1)">
       <defs>
        <path id="DejaVuSans-34" d="M 2419 4116 
L 825 1625 
L 2419 1625 
L 2419 4116 
z
M 2253 4666 
L 3047 4666 
L 3047 1625 
L 3713 1625 
L 3713 1100 
L 3047 1100 
L 3047 0 
L 2419 0 
L 2419 1100 
L 313 1100 
L 313 1709 
L 2253 4666 
z
" transform="scale(0.015625)"/>
       </defs>
       <use xlink:href="#DejaVuSans-34"/>
       <use xlink:href="#DejaVuSans-30" transform="translate(63.623047 0)"/>
       <use xlink:href="#DejaVuSans-30" transform="translate(127.246094 0)"/>
       <use xlink:href="#DejaVuSans-30" transform="translate(190.869141 0)"/>
      </g>
     </g>
    </g>
    <g id="ytick_7">
     <g id="line2d_109">
      <path d="M 57.17 167.536131 
L 522 167.536131 
" clip-path="url(#pfa193050dd)" style="fill: none; stroke: #b0b0b0; stroke-opacity: 0.25; stroke-width: 0.8; stroke-linecap: square"/>
     </g>
     <g id="line2d_110">
      <g>
       <use xlink:href="#m63a77a60ce" x="57.17" y="167.536131" style="stroke: #000000; stroke-width: 0.8"/>
      </g>
     </g>
     <g id="text_10">
      <!-- 6000 -->
      <g transform="translate(24.72 171.335349) scale(0.1 -0.1)">
       <defs>
        <path id="DejaVuSans-36" d="M 2113 2584 
Q 1688 2584 1439 2293 
Q 1191 2003 1191 1497 
Q 1191 994 1439 701 
Q 1688 409 2113 409 
Q 2538 409 2786 701 
Q 3034 994 3034 1497 
Q 3034 2003 2786 2293 
Q 2538 2584 2113 2584 
z
M 3366 4563 
L 3366 3988 
Q 3128 4100 2886 4159 
Q 2644 4219 2406 4219 
Q 1781 4219 1451 3797 
Q 1122 3375 1075 2522 
Q 1259 2794 1537 2939 
Q 1816 3084 2150 3084 
Q 2853 3084 3261 2657 
Q 3669 2231 3669 1497 
Q 3669 778 3244 343 
Q 2819 -91 2113 -91 
Q 1303 -91 875 529 
Q 447 1150 447 2328 
Q 447 3434 972 4092 
Q 1497 4750 2381 4750 
Q 2619 4750 2861 4703 
Q 3103 4656 3366 4563 
z
" transform="scale(0.015625)"/>
       </defs>
       <use xlink:href="#DejaVuSans-36"/>
       <use xlink:href="#DejaVuSans-30" transform="translate(63.623047 0)"/>
       <use xlink:href="#DejaVuSans-30" transform="translate(127.246094 0)"/>
       <use xlink:href="#DejaVuSans-30" transform="translate(190.869141 0)"/>
      </g>
     </g>
    </g>
    <g id="text_11">
     <!-- phase [deg] -->
     <g transform="translate(18.640313 235.967906) rotate(-90) scale(0.1 -0.1)">
      <defs>
       <path id="DejaVuSans-70" d="M 1159 525 
L 1159 -1331 
L 581 -1331 
L 581 3500 
L 1159 3500 
L 1159 2969 
Q 1341 3281 1617 3432 
Q 1894 3584 2278 3584 
Q 2916 3584 3314 3078 
Q 3713 2572 3713 1747 
Q 3713 922 3314 415 
Q 2916 -91 2278 -91 
Q 1894 -91 1617 61 
Q 1341 213 1159 525 
z
M 3116 1747 
Q 3116 2381 2855 2742 
Q 2594 3103 2138 3103 
Q 1681 3103 1420 2742 
Q 1159 2381 1159 1747 
Q 1159 1113 1420 752 
Q 1681 391 2138 391 
Q 2594 391 2855 752 
Q 3116 1113 3116 1747 
z
" transform="scale(0.015625)"/>
       <path id="DejaVuSans-68" d="M 3513 2113 
L 3513 0 
L 2938 0 
L 2938 2094 
Q 2938 2591 2744 2837 
Q 2550 3084 2163 3084 
Q 1697 3084 1428 2787 
Q 1159 2491 1159 1978 
L 1159 0 
L 581 0 
L 581 4863 
L 1159 4863 
L 1159 2956 
Q 1366 3272 1645 3428 
Q 1925 3584 2291 3584 
Q 2894 3584 3203 3211 
Q 3513 2838 3513 2113 
z
" transform="scale(0.015625)"/>
       <path id="DejaVuSans-73" d="M 2834 3397 
L 2834 2853 
Q 2591 2978 2328 3040 
Q 2066 3103 1784 3103 
Q 1356 3103 1142 2972 
Q 928 2841 928 2578 
Q 928 2378 1081 2264 
Q 1234 2150 1697 2047 
L 1894 2003 
Q 2506 1872 2764 1633 
Q 3022 1394 3022 966 
Q 3022 478 2636 193 
Q 2250 -91 1575 -91 
Q 1294 -91 989 -36 
Q 684 19 347 128 
L 347 722 
Q 666 556 975 473 
Q 1284 391 1588 391 
Q 1994 391 2212 530 
Q 2431 669 2431 922 
Q 2431 1156 2273 1281 
Q 2116 1406 1581 1522 
L 1381 1569 
Q 847 1681 609 1914 
Q 372 2147 372 2553 
Q 372 3047 722 3315 
Q 1072 3584 1716 3584 
Q 2034 3584 2315 3537 
Q 2597 3491 2834 3397 
z
" transform="scale(0.015625)"/>
      </defs>
      <use xlink:href="#DejaVuSans-70"/>
      <use xlink:href="#DejaVuSans-68" transform="translate(63.476562 0)"/>
      <use xlink:href="#DejaVuSans-61" transform="translate(126.855469 0)"/>
      <use xlink:href="#DejaVuSans-73" transform="translate(188.134766 0)"/>
      <use xlink:href="#DejaVuSans-65" transform="translate(240.234375 0)"/>
      <use xlink:href="#DejaVuSans-20" transform="translate(301.757812 0)"/>
      <use xlink:href="#DejaVuSans-5b" transform="translate(333.544922 0)"/>
      <use xlink:href="#DejaVuSans-64" transform="translate(372.558594 0)"/>
      <use xlink:href="#DejaVuSans-65" transform="translate(436.035156 0)"/>
      <use xlink:href="#DejaVuSans-67" transform="translate(497.558594 0)"/>
      <use xlink:href="#DejaVuSans-5d" transform="translate(561.035156 0)"/>
     </g>
    </g>
   </g>
   <g id="line2d_111">
    <path d="M 78.298636 256.618478 
L 131.120227 256.853237 
L 162.018877 256.844105 
L 236.763409 257.827352 
L 261.031318 258.29186 
L 267.662059 258.554879 
L 279.409181 258.583134 
L 284.666813 258.527917 
L 294.204926 257.570138 
L 298.560709 257.652347 
L 302.680926 257.235311 
L 306.589754 255.306086 
L 310.30783 254.570171 
L 313.852909 252.854024 
L 317.240375 251.429438 
L 320.48365 250.637131 
L 323.594508 251.543103 
L 326.58334 248.997699 
L 329.459359 249.12442 
L 332.230771 250.850782 
L 334.904921 251.576797 
L 337.488404 251.637114 
L 339.987167 251.967006 
L 342.406591 249.869819 
L 344.751559 250.351738 
L 347.026517 251.216413 
L 349.235526 252.449154 
L 351.3823 252.310909 
L 353.470251 252.546208 
L 355.502517 250.258227 
L 357.48199 249.313594 
L 359.411345 247.589426 
L 361.293057 246.087041 
L 363.129421 244.035722 
L 364.922573 243.437128 
L 366.6745 243.394564 
L 368.387054 243.47191 
L 370.061966 242.488678 
L 371.700856 240.980496 
L 373.305241 241.691108 
L 374.876543 239.785382 
L 376.416099 239.263625 
L 377.925167 239.144341 
L 379.404931 236.599049 
L 380.856507 236.547568 
L 382.28095 233.920193 
L 383.679254 236.07561 
L 385.052362 235.9494 
L 386.401167 235.35785 
L 387.726512 236.042829 
L 389.029201 235.376018 
L 390.309995 234.36893 
L 391.569618 234.121141 
L 392.808758 232.353295 
L 394.028071 230.225197 
L 395.228182 229.902201 
L 396.409685 230.076465 
L 397.57315 229.974948 
L 398.719118 229.527864 
L 399.848108 232.112783 
L 400.960616 231.483704 
L 402.057116 230.702953 
L 403.138063 229.306176 
L 404.203891 230.804783 
L 405.255017 229.843627 
L 406.291842 231.111189 
L 407.314749 231.444302 
L 408.324108 231.264334 
L 409.320271 229.18034 
L 410.303581 229.967466 
L 411.274364 230.036465 
L 412.232936 230.493571 
L 413.1796 230.667062 
L 414.114648 231.736661 
L 415.038361 232.418291 
L 415.951012 234.400611 
L 417.744164 232.166277 
L 418.625162 230.644807 
L 419.496091 233.29452 
L 420.357178 234.777785 
L 421.208645 234.593159 
L 422.050703 234.841038 
L 422.883557 235.499045 
L 423.707408 234.872667 
L 424.522447 235.435632 
L 425.328862 234.90543 
L 426.126832 232.433815 
L 426.916533 231.79695 
L 427.698134 233.702586 
L 429.23769 234.62791 
L 429.995959 233.863262 
L 430.746758 232.878165 
L 431.490232 234.904983 
L 432.226522 233.668772 
L 432.955766 235.449655 
L 433.678098 235.904787 
L 434.393648 237.499005 
L 435.102541 237.424242 
L 435.8049 238.7013 
L 436.500845 236.210829 
L 437.190492 236.415731 
L 437.873953 234.490035 
L 438.551339 234.842234 
L 439.222757 233.344142 
L 439.888311 234.150307 
L 440.548103 232.151425 
L 441.202231 231.211085 
L 441.850792 228.85647 
L 443.764 227.512736 
L 444.391209 227.550246 
L 445.013297 226.314764 
L 446.242444 230.056572 
L 446.849662 228.028914 
L 447.45208 228.801379 
L 448.049773 227.045346 
L 448.642814 228.862612 
L 449.231276 227.106549 
L 449.815229 227.395527 
L 450.394741 225.036974 
L 450.969879 225.950382 
L 452.107295 222.307839 
L 452.669699 223.067522 
L 453.227983 221.906609 
L 453.782207 219.376075 
L 454.332429 220.432952 
L 454.878707 220.732128 
L 456.494431 218.036968 
L 457.025482 217.555115 
L 457.552857 217.649129 
L 458.076608 220.170206 
L 458.596784 220.944583 
L 459.113433 219.826209 
L 459.626603 219.171343 
L 460.13634 217.521434 
L 460.64269 216.643917 
L 461.145698 216.960123 
L 461.645408 216.202217 
L 462.141862 213.6177 
L 462.635103 212.32499 
L 463.125172 214.168483 
L 463.612109 215.253827 
L 464.095955 214.058598 
L 465.054527 213.828735 
L 465.529329 214.079714 
L 466.001191 215.690997 
L 466.470149 215.070723 
L 466.936238 213.800325 
L 467.399495 214.14008 
L 467.859952 215.706802 
L 468.317644 213.986781 
L 468.772603 213.812773 
L 469.224862 212.246304 
L 469.674453 211.501006 
L 470.121407 212.307553 
L 471.007527 215.143411 
L 471.446753 215.910581 
L 472.317682 213.570059 
L 472.749442 211.076215 
L 473.178769 212.708996 
L 473.605692 210.274324 
L 474.030236 210.69801 
L 474.452428 208.322835 
L 474.872293 208.490956 
L 475.289859 210.188226 
L 475.705148 209.962761 
L 476.118187 208.160286 
L 476.528999 207.032026 
L 477.344038 211.77233 
L 478.150453 213.737985 
L 478.550482 211.37355 
L 478.948423 212.837563 
L 479.738123 209.594627 
L 480.129926 210.646472 
L 480.519725 212.149282 
L 480.907539 214.635788 
L 481.293391 215.67061 
L 481.677298 217.879051 
L 482.439359 212.716053 
L 483.193874 215.817237 
L 483.568349 216.667667 
L 484.311823 220.708737 
L 484.680857 221.537853 
L 485.048113 219.538322 
L 486.499689 227.726095 
L 486.858304 225.468432 
L 487.215239 225.266177 
L 487.924132 220.174857 
L 488.27612 222.639878 
L 488.626491 222.784116 
L 489.322436 227.577605 
L 489.668039 226.206424 
L 490.35458 221.19603 
L 490.695544 219.904335 
L 491.03499 217.279327 
L 491.37293 218.708352 
L 491.709379 216.20271 
L 492.044348 217.678768 
L 492.377852 219.662882 
L 492.709902 220.670469 
L 493.369694 225.048678 
L 493.69746 224.247343 
L 494.023822 222.076767 
L 494.348792 220.846141 
L 495.315471 215.275548 
L 495.634991 217.881475 
L 496.585591 210.966092 
L 497.2128 206.848949 
L 497.834888 209.307882 
L 498.144039 211.542825 
L 498.45194 210.937929 
L 498.758602 211.142451 
L 499.064035 213.664281 
L 499.368249 212.759423 
L 499.973057 208.319636 
L 500.273671 206.82632 
L 500.573103 204.170449 
L 500.871364 205.786449 
L 500.871364 205.786449 
" clip-path="url(#pfa193050dd)" style="fill: none; stroke: #4c78a8; stroke-width: 1.5; stroke-linecap: square"/>
   </g>
   <g id="line2d_112">
    <path d="M 78.298636 257.818431 
L 131.120227 258.209281 
L 162.018877 258.268883 
L 200.946572 259.081352 
L 214.840468 259.258282 
L 226.58759 259.701846 
L 245.739118 260.05292 
L 253.768163 260.771273 
L 261.031318 260.229523 
L 267.662059 259.932798 
L 273.761749 259.933241 
L 279.409181 259.521635 
L 284.666813 257.041607 
L 289.585 255.855117 
L 298.560709 253.456068 
L 302.680926 252.73182 
L 306.589754 255.307111 
L 310.30783 254.888271 
L 313.852909 253.071611 
L 317.240375 251.895487 
L 320.48365 251.502319 
L 326.58334 248.12773 
L 329.459359 248.369718 
L 332.230771 249.802571 
L 337.488404 244.653283 
L 339.987167 244.192648 
L 342.406591 242.51998 
L 344.751559 241.382502 
L 347.026517 239.867119 
L 349.235526 241.295583 
L 351.3823 241.218318 
L 353.470251 242.552161 
L 355.502517 242.32867 
L 357.48199 240.810832 
L 359.411345 239.885082 
L 361.293057 239.144091 
L 363.129421 237.157998 
L 364.922573 237.928938 
L 366.6745 237.155913 
L 368.387054 237.237639 
L 370.061966 237.515171 
L 371.700856 236.671996 
L 373.305241 236.245104 
L 374.876543 238.692823 
L 376.416099 237.123535 
L 377.925167 236.861092 
L 379.404931 235.330553 
L 380.856507 235.359406 
L 382.28095 233.535751 
L 383.679254 234.185769 
L 385.052362 233.11022 
L 386.401167 232.407764 
L 387.726512 231.550739 
L 389.029201 231.119937 
L 390.309995 230.999734 
L 391.569618 232.607855 
L 392.808758 235.201776 
L 395.228182 233.636837 
L 396.409685 234.244831 
L 398.719118 232.957113 
L 399.848108 233.084327 
L 400.960616 235.318085 
L 402.057116 234.873428 
L 403.138063 235.676422 
L 404.203891 237.11412 
L 405.255017 237.088087 
L 406.291842 235.689331 
L 408.324108 233.382 
L 409.320271 231.849218 
L 410.303581 231.84787 
L 412.232936 227.801972 
L 413.1796 227.69105 
L 414.114648 228.948166 
L 415.038361 229.336066 
L 415.951012 229.325129 
L 416.852862 231.228884 
L 417.744164 233.707056 
L 418.625162 232.492817 
L 419.496091 230.863676 
L 420.357178 230.363297 
L 421.208645 230.068024 
L 422.050703 229.426525 
L 422.883557 226.928384 
L 423.707408 225.695335 
L 424.522447 228.149794 
L 425.328862 228.869026 
L 426.126832 228.883408 
L 426.916533 227.579669 
L 427.698134 229.398686 
L 428.4718 231.496872 
L 429.23769 229.175784 
L 429.995959 228.66866 
L 430.746758 227.669959 
L 431.490232 229.150294 
L 432.226522 229.357999 
L 432.955766 227.985985 
L 433.678098 227.989681 
L 434.393648 226.411504 
L 435.102541 228.506648 
L 436.500845 231.350313 
L 437.190492 228.998571 
L 438.551339 228.972738 
L 441.202231 228.177343 
L 441.850792 229.952169 
L 442.49388 229.684895 
L 443.131586 228.636062 
L 443.764 228.70564 
L 444.391209 226.235147 
L 445.013297 224.431105 
L 445.630349 223.358772 
L 446.242444 223.072254 
L 446.849662 225.72945 
L 447.45208 225.050187 
L 448.049773 222.532287 
L 448.642814 222.517325 
L 449.231276 220.897754 
L 449.815229 220.524524 
L 450.394741 219.933451 
L 450.969879 222.282854 
L 451.540709 220.235281 
L 452.669699 218.299812 
L 453.227983 218.458798 
L 453.782207 217.895399 
L 454.332429 215.656816 
L 454.878707 215.37138 
L 455.421097 213.512928 
L 455.959654 211.175808 
L 456.494431 211.837038 
L 457.025482 211.792659 
L 457.552857 209.73905 
L 458.076608 208.426352 
L 458.596784 207.626408 
L 459.113433 207.417439 
L 459.626603 206.695003 
L 460.13634 205.754 
L 460.64269 204.464936 
L 461.145698 203.860774 
L 461.645408 205.745536 
L 462.635103 205.490482 
L 463.125172 204.17956 
L 463.612109 203.520096 
L 464.095955 203.354244 
L 464.576748 202.496801 
L 465.054527 203.068071 
L 465.529329 203.026031 
L 466.001191 204.500905 
L 466.936238 199.628324 
L 467.399495 198.48847 
L 467.859952 196.983525 
L 468.772603 198.35658 
L 470.121407 192.993481 
L 470.565755 193.195873 
L 471.007527 190.785092 
L 471.446753 189.548041 
L 471.883461 186.901106 
L 472.317682 186.644304 
L 472.749442 184.595379 
L 473.178769 184.884766 
L 473.605692 183.648317 
L 474.030236 183.933112 
L 474.452428 182.761451 
L 474.872293 182.129918 
L 475.289859 183.177869 
L 475.705148 182.036332 
L 476.118187 183.519847 
L 476.528999 181.558319 
L 476.937608 182.101007 
L 477.344038 180.786722 
L 477.748312 178.248044 
L 478.150453 177.978144 
L 478.550482 175.311704 
L 478.948423 176.057722 
L 479.344296 177.508601 
L 480.519725 172.6055 
L 480.907539 173.356414 
L 482.81755 182.683831 
L 483.940993 176.743869 
L 484.680857 181.796241 
L 485.048113 182.847573 
L 485.413607 180.27495 
L 485.777357 181.549833 
L 486.139379 180.779561 
L 486.858304 175.823591 
L 487.215239 175.393395 
L 487.570509 172.756449 
L 487.924132 175.379928 
L 489.668039 162.80514 
L 490.012083 164.238982 
L 490.695544 159.967647 
L 491.37293 155.185012 
L 491.709379 157.670246 
L 492.044348 159.275551 
L 493.369694 151.156727 
L 494.023822 156.225194 
L 494.348792 155.851154 
L 494.994605 151.77927 
L 495.634991 155.900363 
L 495.953177 154.709596 
L 496.585591 159.143704 
L 496.89984 156.605827 
L 497.2128 159.228432 
L 497.524479 156.995564 
L 497.834888 158.981549 
L 498.45194 154.445729 
L 498.758602 155.497142 
L 499.671253 161.975237 
L 499.973057 159.37491 
L 500.273671 161.435473 
L 500.871364 163.088419 
L 500.871364 163.088419 
" clip-path="url(#pfa193050dd)" style="fill: none; stroke: #f58518; stroke-width: 1.5; stroke-linecap: square"/>
   </g>
   <g id="patch_8">
    <path d="M 57.17 266.252 
L 57.17 145.676 
" style="fill: none; stroke: #000000; stroke-width: 0.8; stroke-linejoin: miter; stroke-linecap: square"/>
   </g>
   <g id="patch_9">
    <path d="M 522 266.252 
L 522 145.676 
" style="fill: none; stroke: #000000; stroke-width: 0.8; stroke-linejoin: miter; stroke-linecap: square"/>
   </g>
   <g id="patch_10">
    <path d="M 57.17 266.252 
L 522 266.252 
" style="fill: none; stroke: #000000; stroke-width: 0.8; stroke-linejoin: miter; stroke-linecap: square"/>
   </g>
   <g id="patch_11">
    <path d="M 57.17 145.676 
L 522 145.676 
" style="fill: none; stroke: #000000; stroke-width: 0.8; stroke-linejoin: miter; stroke-linecap: square"/>
   </g>
  </g>
  <g id="axes_3">
   <g id="patch_12">
    <path d="M 57.17 401.128 
L 522 401.128 
L 522 280.552 
L 57.17 280.552 
z
" style="fill: #ffffff"/>
   </g>
   <g id="matplotlib.axis_5">
    <g id="xtick_47">
     <g id="line2d_113">
      <path d="M 202.753901 401.128 
L 202.753901 280.552 
" clip-path="url(#paf1ca2d8fa)" style="fill: none; stroke: #b0b0b0; stroke-opacity: 0.25; stroke-width: 0.8; stroke-linecap: square"/>
     </g>
     <g id="line2d_114">
      <g>
       <use xlink:href="#m994f895a8a" x="202.753901" y="401.128" style="stroke: #000000; stroke-width: 0.8"/>
      </g>
     </g>
     <g id="text_12">
      <!-- $\mathdefault{10^{0}}$ -->
      <g transform="translate(193.953901 415.726438) scale(0.1 -0.1)">
       <use xlink:href="#DejaVuSans-31" transform="translate(0 0.765625)"/>
       <use xlink:href="#DejaVuSans-30" transform="translate(63.623047 0.765625)"/>
       <use xlink:href="#DejaVuSans-30" transform="translate(128.203125 39.046875) scale(0.7)"/>
      </g>
     </g>
    </g>
    <g id="xtick_48">
     <g id="line2d_115">
      <path d="M 378.223428 401.128 
L 378.223428 280.552 
" clip-path="url(#paf1ca2d8fa)" style="fill: none; stroke: #b0b0b0; stroke-opacity: 0.25; stroke-width: 0.8; stroke-linecap: square"/>
     </g>
     <g id="line2d_116">
      <g>
       <use xlink:href="#m994f895a8a" x="378.223428" y="401.128" style="stroke: #000000; stroke-width: 0.8"/>
      </g>
     </g>
     <g id="text_13">
      <!-- $\mathdefault{10^{1}}$ -->
      <g transform="translate(369.423428 415.726438) scale(0.1 -0.1)">
       <use xlink:href="#DejaVuSans-31" transform="translate(0 0.684375)"/>
       <use xlink:href="#DejaVuSans-30" transform="translate(63.623047 0.684375)"/>
       <use xlink:href="#DejaVuSans-31" transform="translate(128.203125 38.965625) scale(0.7)"/>
      </g>
     </g>
    </g>
    <g id="xtick_49">
     <g id="line2d_117">
      <path d="M 80.105965 401.128 
L 80.105965 280.552 
" clip-path="url(#paf1ca2d8fa)" style="fill: none; stroke: #b0b0b0; stroke-opacity: 0.25; stroke-width: 0.8; stroke-linecap: square"/>
     </g>
     <g id="line2d_118">
      <g>
       <use xlink:href="#m7f9f7416fa" x="80.105965" y="401.128" style="stroke: #000000; stroke-width: 0.6"/>
      </g>
     </g>
    </g>
    <g id="xtick_50">
     <g id="line2d_119">
      <path d="M 111.004615 401.128 
L 111.004615 280.552 
" clip-path="url(#paf1ca2d8fa)" style="fill: none; stroke: #b0b0b0; stroke-opacity: 0.25; stroke-width: 0.8; stroke-linecap: square"/>
     </g>
     <g id="line2d_120">
      <g>
       <use xlink:href="#m7f9f7416fa" x="111.004615" y="401.128" style="stroke: #000000; stroke-width: 0.6"/>
      </g>
     </g>
    </g>
    <g id="xtick_51">
     <g id="line2d_121">
      <path d="M 132.927556 401.128 
L 132.927556 280.552 
" clip-path="url(#paf1ca2d8fa)" style="fill: none; stroke: #b0b0b0; stroke-opacity: 0.25; stroke-width: 0.8; stroke-linecap: square"/>
     </g>
     <g id="line2d_122">
      <g>
       <use xlink:href="#m7f9f7416fa" x="132.927556" y="401.128" style="stroke: #000000; stroke-width: 0.6"/>
      </g>
     </g>
    </g>
    <g id="xtick_52">
     <g id="line2d_123">
      <path d="M 149.93231 401.128 
L 149.93231 280.552 
" clip-path="url(#paf1ca2d8fa)" style="fill: none; stroke: #b0b0b0; stroke-opacity: 0.25; stroke-width: 0.8; stroke-linecap: square"/>
     </g>
     <g id="line2d_124">
      <g>
       <use xlink:href="#m7f9f7416fa" x="149.93231" y="401.128" style="stroke: #000000; stroke-width: 0.6"/>
      </g>
     </g>
    </g>
    <g id="xtick_53">
     <g id="line2d_125">
      <path d="M 163.826206 401.128 
L 163.826206 280.552 
" clip-path="url(#paf1ca2d8fa)" style="fill: none; stroke: #b0b0b0; stroke-opacity: 0.25; stroke-width: 0.8; stroke-linecap: square"/>
     </g>
     <g id="line2d_126">
      <g>
       <use xlink:href="#m7f9f7416fa" x="163.826206" y="401.128" style="stroke: #000000; stroke-width: 0.6"/>
      </g>
     </g>
    </g>
    <g id="xtick_54">
     <g id="line2d_127">
      <path d="M 175.573327 401.128 
L 175.573327 280.552 
" clip-path="url(#paf1ca2d8fa)" style="fill: none; stroke: #b0b0b0; stroke-opacity: 0.25; stroke-width: 0.8; stroke-linecap: square"/>
     </g>
     <g id="line2d_128">
      <g>
       <use xlink:href="#m7f9f7416fa" x="175.573327" y="401.128" style="stroke: #000000; stroke-width: 0.6"/>
      </g>
     </g>
    </g>
    <g id="xtick_55">
     <g id="line2d_129">
      <path d="M 185.749147 401.128 
L 185.749147 280.552 
" clip-path="url(#paf1ca2d8fa)" style="fill: none; stroke: #b0b0b0; stroke-opacity: 0.25; stroke-width: 0.8; stroke-linecap: square"/>
     </g>
     <g id="line2d_130">
      <g>
       <use xlink:href="#m7f9f7416fa" x="185.749147" y="401.128" style="stroke: #000000; stroke-width: 0.6"/>
      </g>
     </g>
    </g>
    <g id="xtick_56">
     <g id="line2d_131">
      <path d="M 194.724856 401.128 
L 194.724856 280.552 
" clip-path="url(#paf1ca2d8fa)" style="fill: none; stroke: #b0b0b0; stroke-opacity: 0.25; stroke-width: 0.8; stroke-linecap: square"/>
     </g>
     <g id="line2d_132">
      <g>
       <use xlink:href="#m7f9f7416fa" x="194.724856" y="401.128" style="stroke: #000000; stroke-width: 0.6"/>
      </g>
     </g>
    </g>
    <g id="xtick_57">
     <g id="line2d_133">
      <path d="M 255.575492 401.128 
L 255.575492 280.552 
" clip-path="url(#paf1ca2d8fa)" style="fill: none; stroke: #b0b0b0; stroke-opacity: 0.25; stroke-width: 0.8; stroke-linecap: square"/>
     </g>
     <g id="line2d_134">
      <g>
       <use xlink:href="#m7f9f7416fa" x="255.575492" y="401.128" style="stroke: #000000; stroke-width: 0.6"/>
      </g>
     </g>
    </g>
    <g id="xtick_58">
     <g id="line2d_135">
      <path d="M 286.474142 401.128 
L 286.474142 280.552 
" clip-path="url(#paf1ca2d8fa)" style="fill: none; stroke: #b0b0b0; stroke-opacity: 0.25; stroke-width: 0.8; stroke-linecap: square"/>
     </g>
     <g id="line2d_136">
      <g>
       <use xlink:href="#m7f9f7416fa" x="286.474142" y="401.128" style="stroke: #000000; stroke-width: 0.6"/>
      </g>
     </g>
    </g>
    <g id="xtick_59">
     <g id="line2d_137">
      <path d="M 308.397083 401.128 
L 308.397083 280.552 
" clip-path="url(#paf1ca2d8fa)" style="fill: none; stroke: #b0b0b0; stroke-opacity: 0.25; stroke-width: 0.8; stroke-linecap: square"/>
     </g>
     <g id="line2d_138">
      <g>
       <use xlink:href="#m7f9f7416fa" x="308.397083" y="401.128" style="stroke: #000000; stroke-width: 0.6"/>
      </g>
     </g>
    </g>
    <g id="xtick_60">
     <g id="line2d_139">
      <path d="M 325.401837 401.128 
L 325.401837 280.552 
" clip-path="url(#paf1ca2d8fa)" style="fill: none; stroke: #b0b0b0; stroke-opacity: 0.25; stroke-width: 0.8; stroke-linecap: square"/>
     </g>
     <g id="line2d_140">
      <g>
       <use xlink:href="#m7f9f7416fa" x="325.401837" y="401.128" style="stroke: #000000; stroke-width: 0.6"/>
      </g>
     </g>
    </g>
    <g id="xtick_61">
     <g id="line2d_141">
      <path d="M 339.295733 401.128 
L 339.295733 280.552 
" clip-path="url(#paf1ca2d8fa)" style="fill: none; stroke: #b0b0b0; stroke-opacity: 0.25; stroke-width: 0.8; stroke-linecap: square"/>
     </g>
     <g id="line2d_142">
      <g>
       <use xlink:href="#m7f9f7416fa" x="339.295733" y="401.128" style="stroke: #000000; stroke-width: 0.6"/>
      </g>
     </g>
    </g>
    <g id="xtick_62">
     <g id="line2d_143">
      <path d="M 351.042854 401.128 
L 351.042854 280.552 
" clip-path="url(#paf1ca2d8fa)" style="fill: none; stroke: #b0b0b0; stroke-opacity: 0.25; stroke-width: 0.8; stroke-linecap: square"/>
     </g>
     <g id="line2d_144">
      <g>
       <use xlink:href="#m7f9f7416fa" x="351.042854" y="401.128" style="stroke: #000000; stroke-width: 0.6"/>
      </g>
     </g>
    </g>
    <g id="xtick_63">
     <g id="line2d_145">
      <path d="M 361.218674 401.128 
L 361.218674 280.552 
" clip-path="url(#paf1ca2d8fa)" style="fill: none; stroke: #b0b0b0; stroke-opacity: 0.25; stroke-width: 0.8; stroke-linecap: square"/>
     </g>
     <g id="line2d_146">
      <g>
       <use xlink:href="#m7f9f7416fa" x="361.218674" y="401.128" style="stroke: #000000; stroke-width: 0.6"/>
      </g>
     </g>
    </g>
    <g id="xtick_64">
     <g id="line2d_147">
      <path d="M 370.194382 401.128 
L 370.194382 280.552 
" clip-path="url(#paf1ca2d8fa)" style="fill: none; stroke: #b0b0b0; stroke-opacity: 0.25; stroke-width: 0.8; stroke-linecap: square"/>
     </g>
     <g id="line2d_148">
      <g>
       <use xlink:href="#m7f9f7416fa" x="370.194382" y="401.128" style="stroke: #000000; stroke-width: 0.6"/>
      </g>
     </g>
    </g>
    <g id="xtick_65">
     <g id="line2d_149">
      <path d="M 431.045019 401.128 
L 431.045019 280.552 
" clip-path="url(#paf1ca2d8fa)" style="fill: none; stroke: #b0b0b0; stroke-opacity: 0.25; stroke-width: 0.8; stroke-linecap: square"/>
     </g>
     <g id="line2d_150">
      <g>
       <use xlink:href="#m7f9f7416fa" x="431.045019" y="401.128" style="stroke: #000000; stroke-width: 0.6"/>
      </g>
     </g>
    </g>
    <g id="xtick_66">
     <g id="line2d_151">
      <path d="M 461.943669 401.128 
L 461.943669 280.552 
" clip-path="url(#paf1ca2d8fa)" style="fill: none; stroke: #b0b0b0; stroke-opacity: 0.25; stroke-width: 0.8; stroke-linecap: square"/>
     </g>
     <g id="line2d_152">
      <g>
       <use xlink:href="#m7f9f7416fa" x="461.943669" y="401.128" style="stroke: #000000; stroke-width: 0.6"/>
      </g>
     </g>
    </g>
    <g id="xtick_67">
     <g id="line2d_153">
      <path d="M 483.86661 401.128 
L 483.86661 280.552 
" clip-path="url(#paf1ca2d8fa)" style="fill: none; stroke: #b0b0b0; stroke-opacity: 0.25; stroke-width: 0.8; stroke-linecap: square"/>
     </g>
     <g id="line2d_154">
      <g>
       <use xlink:href="#m7f9f7416fa" x="483.86661" y="401.128" style="stroke: #000000; stroke-width: 0.6"/>
      </g>
     </g>
    </g>
    <g id="xtick_68">
     <g id="line2d_155">
      <path d="M 500.871364 401.128 
L 500.871364 280.552 
" clip-path="url(#paf1ca2d8fa)" style="fill: none; stroke: #b0b0b0; stroke-opacity: 0.25; stroke-width: 0.8; stroke-linecap: square"/>
     </g>
     <g id="line2d_156">
      <g>
       <use xlink:href="#m7f9f7416fa" x="500.871364" y="401.128" style="stroke: #000000; stroke-width: 0.6"/>
      </g>
     </g>
    </g>
    <g id="xtick_69">
     <g id="line2d_157">
      <path d="M 514.765259 401.128 
L 514.765259 280.552 
" clip-path="url(#paf1ca2d8fa)" style="fill: none; stroke: #b0b0b0; stroke-opacity: 0.25; stroke-width: 0.8; stroke-linecap: square"/>
     </g>
     <g id="line2d_158">
      <g>
       <use xlink:href="#m7f9f7416fa" x="514.765259" y="401.128" style="stroke: #000000; stroke-width: 0.6"/>
      </g>
     </g>
    </g>
    <g id="text_14">
     <!-- frequency [Hz] -->
     <g transform="translate(252.633438 429.404562) scale(0.1 -0.1)">
      <defs>
       <path id="DejaVuSans-66" d="M 2375 4863 
L 2375 4384 
L 1825 4384 
Q 1516 4384 1395 4259 
Q 1275 4134 1275 3809 
L 1275 3500 
L 2222 3500 
L 2222 3053 
L 1275 3053 
L 1275 0 
L 697 0 
L 697 3053 
L 147 3053 
L 147 3500 
L 697 3500 
L 697 3744 
Q 697 4328 969 4595 
Q 1241 4863 1831 4863 
L 2375 4863 
z
" transform="scale(0.015625)"/>
       <path id="DejaVuSans-72" d="M 2631 2963 
Q 2534 3019 2420 3045 
Q 2306 3072 2169 3072 
Q 1681 3072 1420 2755 
Q 1159 2438 1159 1844 
L 1159 0 
L 581 0 
L 581 3500 
L 1159 3500 
L 1159 2956 
Q 1341 3275 1631 3429 
Q 1922 3584 2338 3584 
Q 2397 3584 2469 3576 
Q 2541 3569 2628 3553 
L 2631 2963 
z
" transform="scale(0.015625)"/>
       <path id="DejaVuSans-71" d="M 947 1747 
Q 947 1113 1208 752 
Q 1469 391 1925 391 
Q 2381 391 2643 752 
Q 2906 1113 2906 1747 
Q 2906 2381 2643 2742 
Q 2381 3103 1925 3103 
Q 1469 3103 1208 2742 
Q 947 2381 947 1747 
z
M 2906 525 
Q 2725 213 2448 61 
Q 2172 -91 1784 -91 
Q 1150 -91 751 415 
Q 353 922 353 1747 
Q 353 2572 751 3078 
Q 1150 3584 1784 3584 
Q 2172 3584 2448 3432 
Q 2725 3281 2906 2969 
L 2906 3500 
L 3481 3500 
L 3481 -1331 
L 2906 -1331 
L 2906 525 
z
" transform="scale(0.015625)"/>
       <path id="DejaVuSans-63" d="M 3122 3366 
L 3122 2828 
Q 2878 2963 2633 3030 
Q 2388 3097 2138 3097 
Q 1578 3097 1268 2742 
Q 959 2388 959 1747 
Q 959 1106 1268 751 
Q 1578 397 2138 397 
Q 2388 397 2633 464 
Q 2878 531 3122 666 
L 3122 134 
Q 2881 22 2623 -34 
Q 2366 -91 2075 -91 
Q 1284 -91 818 406 
Q 353 903 353 1747 
Q 353 2603 823 3093 
Q 1294 3584 2113 3584 
Q 2378 3584 2631 3529 
Q 2884 3475 3122 3366 
z
" transform="scale(0.015625)"/>
       <path id="DejaVuSans-79" d="M 2059 -325 
Q 1816 -950 1584 -1140 
Q 1353 -1331 966 -1331 
L 506 -1331 
L 506 -850 
L 844 -850 
Q 1081 -850 1212 -737 
Q 1344 -625 1503 -206 
L 1606 56 
L 191 3500 
L 800 3500 
L 1894 763 
L 2988 3500 
L 3597 3500 
L 2059 -325 
z
" transform="scale(0.015625)"/>
       <path id="DejaVuSans-48" d="M 628 4666 
L 1259 4666 
L 1259 2753 
L 3553 2753 
L 3553 4666 
L 4184 4666 
L 4184 0 
L 3553 0 
L 3553 2222 
L 1259 2222 
L 1259 0 
L 628 0 
L 628 4666 
z
" transform="scale(0.015625)"/>
       <path id="DejaVuSans-7a" d="M 353 3500 
L 3084 3500 
L 3084 2975 
L 922 459 
L 3084 459 
L 3084 0 
L 275 0 
L 275 525 
L 2438 3041 
L 353 3041 
L 353 3500 
z
" transform="scale(0.015625)"/>
      </defs>
      <use xlink:href="#DejaVuSans-66"/>
      <use xlink:href="#DejaVuSans-72" transform="translate(35.205078 0)"/>
      <use xlink:href="#DejaVuSans-65" transform="translate(74.068359 0)"/>
      <use xlink:href="#DejaVuSans-71" transform="translate(135.591797 0)"/>
      <use xlink:href="#DejaVuSans-75" transform="translate(199.068359 0)"/>
      <use xlink:href="#DejaVuSans-65" transform="translate(262.447266 0)"/>
      <use xlink:href="#DejaVuSans-6e" transform="translate(323.970703 0)"/>
      <use xlink:href="#DejaVuSans-63" transform="translate(387.349609 0)"/>
      <use xlink:href="#DejaVuSans-79" transform="translate(442.330078 0)"/>
      <use xlink:href="#DejaVuSans-20" transform="translate(501.509766 0)"/>
      <use xlink:href="#DejaVuSans-5b" transform="translate(533.296875 0)"/>
      <use xlink:href="#DejaVuSans-48" transform="translate(572.310547 0)"/>
      <use xlink:href="#DejaVuSans-7a" transform="translate(647.505859 0)"/>
      <use xlink:href="#DejaVuSans-5d" transform="translate(699.996094 0)"/>
     </g>
    </g>
   </g>
   <g id="matplotlib.axis_6">
    <g id="ytick_8">
     <g id="line2d_159">
      <path d="M 57.17 401.128 
L 522 401.128 
" clip-path="url(#paf1ca2d8fa)" style="fill: none; stroke: #b0b0b0; stroke-opacity: 0.25; stroke-width: 0.8; stroke-linecap: square"/>
     </g>
     <g id="line2d_160">
      <g>
       <use xlink:href="#m63a77a60ce" x="57.17" y="401.128" style="stroke: #000000; stroke-width: 0.8"/>
      </g>
     </g>
     <g id="text_15">
      <!-- 0.0 -->
      <g transform="translate(34.266875 404.927219) scale(0.1 -0.1)">
       <defs>
        <path id="DejaVuSans-2e" d="M 684 794 
L 1344 794 
L 1344 0 
L 684 0 
L 684 794 
z
" transform="scale(0.015625)"/>
       </defs>
       <use xlink:href="#DejaVuSans-30"/>
       <use xlink:href="#DejaVuSans-2e" transform="translate(63.623047 0)"/>
       <use xlink:href="#DejaVuSans-30" transform="translate(95.410156 0)"/>
      </g>
     </g>
    </g>
    <g id="ytick_9">
     <g id="line2d_161">
      <path d="M 57.17 378.161143 
L 522 378.161143 
" clip-path="url(#paf1ca2d8fa)" style="fill: none; stroke: #b0b0b0; stroke-opacity: 0.25; stroke-width: 0.8; stroke-linecap: square"/>
     </g>
     <g id="line2d_162">
      <g>
       <use xlink:href="#m63a77a60ce" x="57.17" y="378.161143" style="stroke: #000000; stroke-width: 0.8"/>
      </g>
     </g>
     <g id="text_16">
      <!-- 0.2 -->
      <g transform="translate(34.266875 381.960362) scale(0.1 -0.1)">
       <use xlink:href="#DejaVuSans-30"/>
       <use xlink:href="#DejaVuSans-2e" transform="translate(63.623047 0)"/>
       <use xlink:href="#DejaVuSans-32" transform="translate(95.410156 0)"/>
      </g>
     </g>
    </g>
    <g id="ytick_10">
     <g id="line2d_163">
      <path d="M 57.17 355.194286 
L 522 355.194286 
" clip-path="url(#paf1ca2d8fa)" style="fill: none; stroke: #b0b0b0; stroke-opacity: 0.25; stroke-width: 0.8; stroke-linecap: square"/>
     </g>
     <g id="line2d_164">
      <g>
       <use xlink:href="#m63a77a60ce" x="57.17" y="355.194286" style="stroke: #000000; stroke-width: 0.8"/>
      </g>
     </g>
     <g id="text_17">
      <!-- 0.4 -->
      <g transform="translate(34.266875 358.993504) scale(0.1 -0.1)">
       <use xlink:href="#DejaVuSans-30"/>
       <use xlink:href="#DejaVuSans-2e" transform="translate(63.623047 0)"/>
       <use xlink:href="#DejaVuSans-34" transform="translate(95.410156 0)"/>
      </g>
     </g>
    </g>
    <g id="ytick_11">
     <g id="line2d_165">
      <path d="M 57.17 332.227429 
L 522 332.227429 
" clip-path="url(#paf1ca2d8fa)" style="fill: none; stroke: #b0b0b0; stroke-opacity: 0.25; stroke-width: 0.8; stroke-linecap: square"/>
     </g>
     <g id="line2d_166">
      <g>
       <use xlink:href="#m63a77a60ce" x="57.17" y="332.227429" style="stroke: #000000; stroke-width: 0.8"/>
      </g>
     </g>
     <g id="text_18">
      <!-- 0.6 -->
      <g transform="translate(34.266875 336.026647) scale(0.1 -0.1)">
       <use xlink:href="#DejaVuSans-30"/>
       <use xlink:href="#DejaVuSans-2e" transform="translate(63.623047 0)"/>
       <use xlink:href="#DejaVuSans-36" transform="translate(95.410156 0)"/>
      </g>
     </g>
    </g>
    <g id="ytick_12">
     <g id="line2d_167">
      <path d="M 57.17 309.260571 
L 522 309.260571 
" clip-path="url(#paf1ca2d8fa)" style="fill: none; stroke: #b0b0b0; stroke-opacity: 0.25; stroke-width: 0.8; stroke-linecap: square"/>
     </g>
     <g id="line2d_168">
      <g>
       <use xlink:href="#m63a77a60ce" x="57.17" y="309.260571" style="stroke: #000000; stroke-width: 0.8"/>
      </g>
     </g>
     <g id="text_19">
      <!-- 0.8 -->
      <g transform="translate(34.266875 313.05979) scale(0.1 -0.1)">
       <defs>
        <path id="DejaVuSans-38" d="M 2034 2216 
Q 1584 2216 1326 1975 
Q 1069 1734 1069 1313 
Q 1069 891 1326 650 
Q 1584 409 2034 409 
Q 2484 409 2743 651 
Q 3003 894 3003 1313 
Q 3003 1734 2745 1975 
Q 2488 2216 2034 2216 
z
M 1403 2484 
Q 997 2584 770 2862 
Q 544 3141 544 3541 
Q 544 4100 942 4425 
Q 1341 4750 2034 4750 
Q 2731 4750 3128 4425 
Q 3525 4100 3525 3541 
Q 3525 3141 3298 2862 
Q 3072 2584 2669 2484 
Q 3125 2378 3379 2068 
Q 3634 1759 3634 1313 
Q 3634 634 3220 271 
Q 2806 -91 2034 -91 
Q 1263 -91 848 271 
Q 434 634 434 1313 
Q 434 1759 690 2068 
Q 947 2378 1403 2484 
z
M 1172 3481 
Q 1172 3119 1398 2916 
Q 1625 2713 2034 2713 
Q 2441 2713 2670 2916 
Q 2900 3119 2900 3481 
Q 2900 3844 2670 4047 
Q 2441 4250 2034 4250 
Q 1625 4250 1398 4047 
Q 1172 3844 1172 3481 
z
" transform="scale(0.015625)"/>
       </defs>
       <use xlink:href="#DejaVuSans-30"/>
       <use xlink:href="#DejaVuSans-2e" transform="translate(63.623047 0)"/>
       <use xlink:href="#DejaVuSans-38" transform="translate(95.410156 0)"/>
      </g>
     </g>
    </g>
    <g id="ytick_13">
     <g id="line2d_169">
      <path d="M 57.17 286.293714 
L 522 286.293714 
" clip-path="url(#paf1ca2d8fa)" style="fill: none; stroke: #b0b0b0; stroke-opacity: 0.25; stroke-width: 0.8; stroke-linecap: square"/>
     </g>
     <g id="line2d_170">
      <g>
       <use xlink:href="#m63a77a60ce" x="57.17" y="286.293714" style="stroke: #000000; stroke-width: 0.8"/>
      </g>
     </g>
     <g id="text_20">
      <!-- 1.0 -->
      <g transform="translate(34.266875 290.092933) scale(0.1 -0.1)">
       <use xlink:href="#DejaVuSans-31"/>
       <use xlink:href="#DejaVuSans-2e" transform="translate(63.623047 0)"/>
       <use xlink:href="#DejaVuSans-30" transform="translate(95.410156 0)"/>
      </g>
     </g>
    </g>
    <g id="text_21">
     <!-- coherence -->
     <g transform="translate(28.187188 366.907969) rotate(-90) scale(0.1 -0.1)">
      <defs>
       <path id="DejaVuSans-6f" d="M 1959 3097 
Q 1497 3097 1228 2736 
Q 959 2375 959 1747 
Q 959 1119 1226 758 
Q 1494 397 1959 397 
Q 2419 397 2687 759 
Q 2956 1122 2956 1747 
Q 2956 2369 2687 2733 
Q 2419 3097 1959 3097 
z
M 1959 3584 
Q 2709 3584 3137 3096 
Q 3566 2609 3566 1747 
Q 3566 888 3137 398 
Q 2709 -91 1959 -91 
Q 1206 -91 779 398 
Q 353 888 353 1747 
Q 353 2609 779 3096 
Q 1206 3584 1959 3584 
z
" transform="scale(0.015625)"/>
      </defs>
      <use xlink:href="#DejaVuSans-63"/>
      <use xlink:href="#DejaVuSans-6f" transform="translate(54.980469 0)"/>
      <use xlink:href="#DejaVuSans-68" transform="translate(116.162109 0)"/>
      <use xlink:href="#DejaVuSans-65" transform="translate(179.541016 0)"/>
      <use xlink:href="#DejaVuSans-72" transform="translate(241.064453 0)"/>
      <use xlink:href="#DejaVuSans-65" transform="translate(279.927734 0)"/>
      <use xlink:href="#DejaVuSans-6e" transform="translate(341.451172 0)"/>
      <use xlink:href="#DejaVuSans-63" transform="translate(404.830078 0)"/>
      <use xlink:href="#DejaVuSans-65" transform="translate(459.810547 0)"/>
     </g>
    </g>
   </g>
   <g id="line2d_171">
    <path d="M 78.298636 355.656905 
L 131.120227 312.517733 
L 162.018877 320.927283 
L 183.941818 326.013794 
L 200.946572 300.454431 
L 214.840468 301.312021 
L 226.58759 302.923516 
L 236.763409 300.873576 
L 245.739118 306.514711 
L 253.768163 316.036593 
L 261.031318 358.007712 
L 267.662059 373.547344 
L 273.761749 366.092892 
L 279.409181 386.186532 
L 284.666813 381.20715 
L 289.585 393.429106 
L 294.204926 390.328273 
L 298.560709 394.739067 
L 302.680926 397.129495 
L 306.589754 399.952741 
L 310.30783 390.447044 
L 313.852909 384.841518 
L 317.240375 391.796178 
L 320.48365 389.512897 
L 323.594508 396.331358 
L 326.58334 379.154926 
L 329.459359 382.298202 
L 332.230771 400.205773 
L 334.904921 399.624948 
L 337.488404 398.453037 
L 339.987167 387.380208 
L 342.406591 397.105465 
L 344.751559 374.428933 
L 347.026517 386.023141 
L 349.235526 401.008819 
L 351.3823 395.018918 
L 353.470251 399.04318 
L 355.502517 393.598418 
L 357.48199 371.603193 
L 359.411345 394.467514 
L 361.293057 393.659126 
L 363.129421 390.368488 
L 364.922573 398.298294 
L 366.6745 399.240134 
L 368.387054 396.450511 
L 370.061966 380.175916 
L 371.700856 398.644031 
L 373.305241 397.600594 
L 374.876543 400.147838 
L 376.416099 380.734805 
L 377.925167 400.253973 
L 379.404931 398.724545 
L 380.856507 394.552828 
L 382.28095 396.023555 
L 383.679254 382.0724 
L 385.052362 395.039974 
L 387.726512 370.963928 
L 389.029201 382.415883 
L 390.309995 363.70093 
L 391.569618 396.455406 
L 392.808758 398.0459 
L 394.028071 391.507213 
L 395.228182 386.902503 
L 396.409685 386.375368 
L 397.57315 374.549087 
L 398.719118 392.170201 
L 399.848108 400.871121 
L 400.960616 399.032825 
L 402.057116 395.142372 
L 403.138063 399.264266 
L 404.203891 399.951346 
L 405.255017 399.796665 
L 406.291842 397.03694 
L 407.314749 365.360865 
L 408.324108 392.567914 
L 409.320271 384.786582 
L 410.303581 389.485103 
L 411.274364 396.883611 
L 412.232936 399.744162 
L 413.1796 387.994024 
L 414.114648 394.827338 
L 415.038361 388.782759 
L 415.951012 392.696774 
L 416.852862 389.061864 
L 417.744164 393.050243 
L 418.625162 400.015594 
L 419.496091 387.532611 
L 420.357178 399.841057 
L 421.208645 390.681422 
L 422.050703 395.026799 
L 422.883557 398.359605 
L 423.707408 398.770873 
L 424.522447 378.249563 
L 426.126832 395.904147 
L 426.916533 397.582526 
L 427.698134 385.141844 
L 428.4718 395.037431 
L 429.23769 381.881578 
L 429.995959 393.738279 
L 430.746758 381.977182 
L 431.490232 386.617476 
L 432.226522 398.823981 
L 432.955766 398.871697 
L 433.678098 400.018869 
L 434.393648 382.514512 
L 435.102541 391.551473 
L 435.8049 396.200772 
L 436.500845 397.031305 
L 437.190492 397.568106 
L 437.873953 376.342106 
L 438.551339 381.011031 
L 439.222757 400.619052 
L 439.888311 398.037824 
L 440.548103 385.778489 
L 441.202231 382.323778 
L 441.850792 391.505414 
L 442.49388 369.564368 
L 443.131586 393.237928 
L 443.764 391.142425 
L 444.391209 392.937813 
L 445.013297 396.988206 
L 445.630349 399.760397 
L 446.242444 400.229082 
L 446.849662 399.527808 
L 447.45208 393.627146 
L 448.049773 401.105684 
L 448.642814 399.977073 
L 449.231276 376.48181 
L 449.815229 397.173106 
L 450.394741 392.511569 
L 450.969879 398.345269 
L 451.540709 400.664362 
L 452.107295 396.32511 
L 452.669699 391.00319 
L 453.227983 400.645088 
L 453.782207 383.618084 
L 454.332429 398.062547 
L 454.878707 400.220156 
L 455.421097 386.580569 
L 455.959654 392.165174 
L 456.494431 369.116572 
L 457.025482 362.747176 
L 457.552857 395.446428 
L 458.076608 399.64903 
L 458.596784 396.542312 
L 459.113433 381.97105 
L 459.626603 401.095667 
L 460.13634 395.161988 
L 460.64269 394.323186 
L 461.145698 388.964357 
L 461.645408 397.729125 
L 462.141862 384.326167 
L 462.635103 395.498875 
L 463.125172 394.651316 
L 463.612109 397.488748 
L 464.095955 375.993309 
L 464.576748 381.253857 
L 465.529329 399.727195 
L 466.001191 378.755795 
L 466.470149 396.586814 
L 466.936238 396.854374 
L 467.399495 381.992406 
L 467.859952 395.634704 
L 468.317644 400.988842 
L 468.772603 382.86039 
L 469.224862 396.16797 
L 469.674453 380.576901 
L 470.121407 401.025381 
L 470.565755 398.188448 
L 471.007527 399.798982 
L 471.446753 399.246496 
L 471.883461 394.337251 
L 472.317682 382.671204 
L 472.749442 395.837047 
L 473.178769 400.6773 
L 473.605692 381.138871 
L 474.030236 392.663673 
L 474.452428 396.712151 
L 474.872293 393.549823 
L 475.289859 395.968452 
L 475.705148 392.929549 
L 476.118187 384.425844 
L 476.528999 387.530001 
L 476.937608 389.079626 
L 477.344038 400.218096 
L 477.748312 399.903805 
L 478.150453 400.843043 
L 478.550482 395.5685 
L 479.344296 399.812034 
L 479.738123 400.500271 
L 480.129926 396.734367 
L 480.519725 395.462116 
L 480.907539 400.236224 
L 481.293391 394.850768 
L 481.677298 394.155484 
L 482.059281 386.774711 
L 482.81755 399.685591 
L 483.193874 399.07967 
L 483.568349 400.342344 
L 483.940993 397.677871 
L 484.311823 400.04581 
L 484.680857 400.287505 
L 485.048113 388.503655 
L 485.413607 389.269869 
L 485.777357 383.111571 
L 486.139379 381.181024 
L 486.499689 370.345483 
L 486.858304 400.803615 
L 487.215239 386.027915 
L 487.570509 382.549206 
L 487.924132 395.006778 
L 488.27612 400.844245 
L 488.626491 387.847506 
L 488.975258 379.381519 
L 489.322436 400.845469 
L 489.668039 388.415553 
L 490.012083 365.07257 
L 490.695544 400.281709 
L 491.03499 400.580111 
L 491.37293 396.868425 
L 491.709379 396.757975 
L 492.044348 400.854641 
L 492.377852 398.907613 
L 492.709902 397.839405 
L 493.040512 387.349996 
L 493.369694 391.601924 
L 493.69746 400.557914 
L 494.023822 390.282641 
L 494.348792 398.984691 
L 494.672383 385.210868 
L 494.994605 392.175648 
L 495.315471 359.889248 
L 495.634991 372.861019 
L 495.953177 395.690702 
L 496.27004 399.13079 
L 496.585591 397.766384 
L 496.89984 395.584746 
L 497.2128 389.229008 
L 497.524479 399.940443 
L 497.834888 396.872883 
L 498.144039 399.265049 
L 498.45194 400.67057 
L 498.758602 399.815485 
L 499.064035 395.610706 
L 499.368249 399.10017 
L 499.671253 386.925791 
L 499.973057 397.193164 
L 500.273671 388.220879 
L 500.871364 400.711629 
L 500.871364 400.711629 
" clip-path="url(#paf1ca2d8fa)" style="fill: none; stroke: #4c78a8; stroke-width: 1.5; stroke-linecap: square"/>
   </g>
   <g id="line2d_172">
    <path d="M 78.298636 376.804903 
L 131.120227 356.944482 
L 162.018877 320.113099 
L 183.941818 382.219806 
L 200.946572 358.001415 
L 214.840468 361.111767 
L 226.58759 380.3963 
L 236.763409 351.524454 
L 245.739118 376.520667 
L 253.768163 389.18573 
L 261.031318 362.956986 
L 267.662059 359.43031 
L 273.761749 381.912362 
L 279.409181 400.61756 
L 284.666813 371.426541 
L 289.585 391.075534 
L 294.204926 390.634343 
L 298.560709 398.806019 
L 302.680926 400.261179 
L 306.589754 369.817755 
L 310.30783 392.457445 
L 313.852909 390.994214 
L 317.240375 382.424975 
L 320.48365 392.286172 
L 323.594508 400.401838 
L 326.58334 399.57803 
L 329.459359 359.518731 
L 332.230771 398.44151 
L 334.904921 397.208664 
L 337.488404 394.046361 
L 339.987167 398.006853 
L 342.406591 400.964143 
L 344.751559 386.775004 
L 347.026517 400.720106 
L 349.235526 399.919503 
L 351.3823 399.961123 
L 353.470251 391.202275 
L 355.502517 371.824392 
L 357.48199 388.55625 
L 359.411345 375.545872 
L 361.293057 387.078698 
L 363.129421 396.902348 
L 364.922573 364.679472 
L 366.6745 385.42029 
L 370.061966 395.676448 
L 371.700856 390.142724 
L 373.305241 397.839562 
L 374.876543 378.0685 
L 376.416099 389.530306 
L 377.925167 398.847512 
L 379.404931 400.114936 
L 380.856507 395.882181 
L 382.28095 400.554383 
L 383.679254 393.152431 
L 385.052362 395.935655 
L 386.401167 395.843784 
L 387.726512 396.009025 
L 389.029201 377.259745 
L 390.309995 395.728635 
L 391.569618 399.609829 
L 392.808758 396.905697 
L 394.028071 393.805975 
L 395.228182 392.585767 
L 396.409685 379.273695 
L 397.57315 400.558595 
L 398.719118 394.187679 
L 399.848108 400.596287 
L 400.960616 400.723328 
L 402.057116 389.737844 
L 403.138063 400.865682 
L 404.203891 397.580764 
L 405.255017 398.621555 
L 406.291842 397.295628 
L 407.314749 398.205169 
L 408.324108 398.255988 
L 409.320271 392.52542 
L 411.274364 397.467552 
L 412.232936 394.447427 
L 413.1796 398.414616 
L 414.114648 396.224579 
L 415.038361 395.268332 
L 415.951012 394.842891 
L 416.852862 400.417024 
L 417.744164 397.356008 
L 418.625162 395.070352 
L 419.496091 388.297415 
L 420.357178 356.672222 
L 421.208645 382.035073 
L 422.050703 399.70127 
L 422.883557 395.633153 
L 424.522447 398.123605 
L 425.328862 400.446476 
L 426.126832 393.906113 
L 426.916533 382.472984 
L 427.698134 400.044015 
L 428.4718 400.813738 
L 429.23769 399.883079 
L 429.995959 391.686597 
L 430.746758 398.653177 
L 431.490232 395.803311 
L 432.226522 380.691537 
L 432.955766 353.825165 
L 433.678098 381.954875 
L 434.393648 382.15395 
L 435.102541 399.077684 
L 435.8049 372.844294 
L 436.500845 392.361282 
L 437.190492 400.088086 
L 437.873953 394.156674 
L 438.551339 400.157547 
L 439.222757 398.933644 
L 439.888311 367.535672 
L 440.548103 374.847511 
L 441.202231 398.387585 
L 441.850792 395.910265 
L 442.49388 396.441094 
L 443.131586 390.406898 
L 443.764 377.966207 
L 444.391209 396.043591 
L 445.013297 388.081067 
L 445.630349 396.017219 
L 446.242444 398.937129 
L 446.849662 396.954601 
L 447.45208 392.492168 
L 448.049773 394.683385 
L 448.642814 399.575264 
L 449.815229 383.142164 
L 450.394741 399.284574 
L 450.969879 397.56018 
L 451.540709 393.031142 
L 452.107295 397.650055 
L 452.669699 398.886982 
L 453.227983 400.579347 
L 453.782207 396.048259 
L 454.332429 396.519744 
L 454.878707 398.148598 
L 455.421097 399.146537 
L 455.959654 397.706688 
L 456.494431 390.11176 
L 457.025482 392.307584 
L 457.552857 380.119176 
L 458.076608 401.061148 
L 459.113433 393.691306 
L 459.626603 365.995561 
L 460.13634 384.729716 
L 460.64269 395.351876 
L 461.145698 393.109444 
L 461.645408 397.181798 
L 462.141862 370.852713 
L 462.635103 393.222099 
L 463.125172 395.546317 
L 463.612109 398.452565 
L 464.095955 381.232826 
L 464.576748 391.529105 
L 465.054527 380.131718 
L 465.529329 397.30174 
L 466.001191 394.562302 
L 466.470149 399.025662 
L 466.936238 398.142542 
L 467.399495 384.891951 
L 468.317644 398.174355 
L 469.224862 389.759008 
L 469.674453 394.613116 
L 470.121407 393.193818 
L 470.565755 400.706055 
L 471.007527 395.779927 
L 471.446753 389.05038 
L 471.883461 392.696927 
L 472.317682 391.717092 
L 472.749442 387.870888 
L 473.178769 398.221853 
L 473.605692 385.608869 
L 474.030236 394.756517 
L 474.452428 395.306549 
L 474.872293 378.743184 
L 475.289859 400.342341 
L 475.705148 383.800102 
L 476.118187 399.705547 
L 476.528999 392.85416 
L 476.937608 399.851147 
L 477.344038 386.662329 
L 477.748312 399.561785 
L 478.150453 400.59024 
L 478.550482 398.900974 
L 478.948423 400.885564 
L 479.344296 398.189454 
L 479.738123 394.272395 
L 480.129926 394.244697 
L 480.519725 399.829557 
L 480.907539 396.044756 
L 481.293391 389.910026 
L 481.677298 393.210474 
L 482.059281 383.716539 
L 482.439359 399.061175 
L 482.81755 396.495033 
L 483.193874 391.00582 
L 483.568349 396.214657 
L 483.940993 393.781789 
L 484.311823 381.660979 
L 484.680857 398.173928 
L 485.413607 392.309691 
L 485.777357 400.021408 
L 486.139379 398.09075 
L 486.499689 385.737318 
L 486.858304 397.737775 
L 487.215239 398.140401 
L 487.570509 385.357937 
L 487.924132 387.188107 
L 488.27612 394.449392 
L 488.626491 386.529969 
L 488.975258 383.52175 
L 489.322436 387.630279 
L 489.668039 396.08116 
L 490.012083 399.799216 
L 490.35458 397.001461 
L 490.695544 391.687529 
L 491.03499 377.128636 
L 491.37293 384.612992 
L 491.709379 397.090686 
L 492.044348 396.12107 
L 492.377852 386.224488 
L 492.709902 380.464946 
L 493.040512 387.983898 
L 493.369694 382.211992 
L 493.69746 393.809663 
L 494.023822 395.837378 
L 494.348792 398.951296 
L 494.994605 368.627619 
L 495.315471 395.619382 
L 495.634991 400.108819 
L 495.953177 397.230257 
L 496.585591 400.805254 
L 497.2128 393.782941 
L 497.524479 400.378171 
L 498.144039 395.805439 
L 498.45194 396.25049 
L 498.758602 392.518449 
L 499.064035 376.052859 
L 499.368249 393.890086 
L 499.671253 396.844237 
L 499.973057 392.02773 
L 500.573103 399.180598 
L 500.871364 399.053987 
L 500.871364 399.053987 
" clip-path="url(#paf1ca2d8fa)" style="fill: none; stroke: #f58518; stroke-width: 1.5; stroke-linecap: square"/>
   </g>
   <g id="patch_13">
    <path d="M 57.17 401.128 
L 57.17 280.552 
" style="fill: none; stroke: #000000; stroke-width: 0.8; stroke-linejoin: miter; stroke-linecap: square"/>
   </g>
   <g id="patch_14">
    <path d="M 522 401.128 
L 522 280.552 
" style="fill: none; stroke: #000000; stroke-width: 0.8; stroke-linejoin: miter; stroke-linecap: square"/>
   </g>
   <g id="patch_15">
    <path d="M 57.17 401.128 
L 522 401.128 
" style="fill: none; stroke: #000000; stroke-width: 0.8; stroke-linejoin: miter; stroke-linecap: square"/>
   </g>
   <g id="patch_16">
    <path d="M 57.17 280.552 
L 522 280.552 
" style="fill: none; stroke: #000000; stroke-width: 0.8; stroke-linejoin: miter; stroke-linecap: square"/>
   </g>
  </g>
 </g>
 <defs>
  <clipPath id="p14ed76b745">
   <rect x="57.17" y="10.8" width="464.83" height="120.576"/>
  </clipPath>
  <clipPath id="pfa193050dd">
   <rect x="57.17" y="145.676" width="464.83" height="120.576"/>
  </clipPath>
  <clipPath id="paf1ca2d8fa">
   <rect x="57.17" y="280.552" width="464.83" height="120.576"/>
  </clipPath>
 </defs>
</svg>
