<?xml version="1.0" encoding="utf-8" standalone="no"?>
<!DOCTYPE svg PUBLIC "-//W3C//DTD SVG 1.1//EN"
  "http://www.w3.org/Graphics/SVG/1.1/DTD/svg11.dtd">
<svg xmlns:xlink="http://www.w3.org/1999/xlink" width="590.4pt" height="417.6pt" viewBox="0 0 590.4 417.6" xmlns="http://www.w3.org/2000/svg" version="1.1">
 <metadata>
  <rdf:RDF xmlns:dc="http://purl.org/dc/elements/1.1/" xmlns:cc="http://creativecommons.org/ns#" xmlns:rdf="http://www.w3.org/1999/02/22-rdf-syntax-ns#">
   <cc:Work>
    <dc:type rdf:resource="http://purl.org/dc/dcmitype/StillImage"/>
    <dc:date>2026-06-10T09:12:14.554243</dc:date>
    <dc:format>image/svg+xml</dc:format>
    <dc:creator>
     <cc:Agent>
      <dc:title>Matplotlib v3.10.9, https://matplotlib.org/</dc:title>
     </cc:Agent>
    </dc:creator>
   </cc:Work>
  </rdf:RDF>
 </metadata>
 <defs>
  <style type="text/css">*{stroke-linejoin: round; stroke-linecap: butt}</style>
 </defs>
 <g id="figure_1">
  <g id="patch_1">
   <path d="M 0 417.6 
L 590.4 417.6 
L 590.4 0 
L 0 0 
z
" style="fill: #ffffff"/>
  </g>
  <g id="axes_1">
   <g id="patch_2">
    <path d="M 62.3 122.88 
L 579.6 122.88 
L 579.6 10.8 
L 62.3 10.8 
z
" style="fill: #ffffff"/>
   </g>
   <g id="matplotlib.axis_1">
    <g id="xtick_1">
     <g id="line2d_1">
      <path d="M 85.813636 122.88 
L 85.813636 10.8 
" clip-path="url(#pa133090891)" style="fill: none; stroke: #b0b0b0; stroke-opacity: 0.25; stroke-width: 0.8; stroke-linecap: square"/>
     </g>
     <g id="line2d_2">
      <defs>
       <path id="m2ba7c06d88" d="M 0 0 
L 0 3.5 
" style="stroke: #000000; stroke-width: 0.8"/>
      </defs>
      <g>
       <use xlink:href="#m2ba7c06d88" x="85.813636" y="122.88" style="stroke: #000000; stroke-width: 0.8"/>
      </g>
     </g>
    </g>
    <g id="xtick_2">
     <g id="line2d_3">
      <path d="M 179.868182 122.88 
L 179.868182 10.8 
" clip-path="url(#pa133090891)" style="fill: none; stroke: #b0b0b0; stroke-opacity: 0.25; stroke-width: 0.8; stroke-linecap: square"/>
     </g>
     <g id="line2d_4">
      <g>
       <use xlink:href="#m2ba7c06d88" x="179.868182" y="122.88" style="stroke: #000000; stroke-width: 0.8"/>
      </g>
     </g>
    </g>
    <g id="xtick_3">
     <g id="line2d_5">
      <path d="M 273.922727 122.88 
L 273.922727 10.8 
" clip-path="url(#pa133090891)" style="fill: none; stroke: #b0b0b0; stroke-opacity: 0.25; stroke-width: 0.8; stroke-linecap: square"/>
     </g>
     <g id="line2d_6">
      <g>
       <use xlink:href="#m2ba7c06d88" x="273.922727" y="122.88" style="stroke: #000000; stroke-width: 0.8"/>
      </g>
     </g>
    </g>
    <g id="xtick_4">
     <g id="line2d_7">
      <path d="M 367.977273 122.88 
L 367.977273 10.8 
" clip-path="url(#pa133090891)" style="fill: none; stroke: #b0b0b0; stroke-opacity: 0.25; stroke-width: 0.8; stroke-linecap: square"/>
     </g>
     <g id="line2d_8">
      <g>
       <use xlink:href="#m2ba7c06d88" x="367.977273" y="122.88" style="stroke: #000000; stroke-width: 0.8"/>
      </g>
     </g>
    </g>
    <g id="xtick_5">
     <g id="line2d_9">
      <path d="M 462.031818 122.88 
L 462.031818 10.8 
" clip-path="url(#pa133090891)" style="fill: none; stroke: #b0b0b0; stroke-opacity: 0.25; stroke-width: 0.8; stroke-linecap: square"/>
     </g>
     <g id="line2d_10">
      <g>
       <use xlink:href="#m2ba7c06d88" x="462.031818" y="122.88" style="stroke: #000000; stroke-width: 0.8"/>
      </g>
     </g>
    </g>
    <g id="xtick_6">
     <g id="line2d_11">
      <path d="M 556.086364 122.88 
L 556.086364 10.8 
" clip-path="url(#pa133090891)" style="fill: none; stroke: #b0b0b0; stroke-opacity: 0.25; stroke-width: 0.8; stroke-linecap: square"/>
     </g>
     <g id="line2d_12">
      <g>
       <use xlink:href="#m2ba7c06d88" x="556.086364" y="122.88" style="stroke: #000000; stroke-width: 0.8"/>
      </g>
     </g>
    </g>
   </g>
   <g id="matplotlib.axis_2">
    <g id="ytick_1">
     <g id="line2d_13">
      <path d="M 62.3 104.21732 
L 579.6 104.21732 
" clip-path="url(#pa133090891)" style="fill: none; stroke: #b0b0b0; stroke-opacity: 0.25; stroke-width: 0.8; stroke-linecap: square"/>
     </g>
     <g id="line2d_14">
      <defs>
       <path id="mfc37ebe1d9" d="M 0 0 
L -3.5 0 
" style="stroke: #000000; stroke-width: 0.8"/>
      </defs>
      <g>
       <use xlink:href="#mfc37ebe1d9" x="62.3" y="104.21732" style="stroke: #000000; stroke-width: 0.8"/>
      </g>
     </g>
     <g id="text_1">
      <!-- 0.00 -->
      <g transform="translate(33.034375 108.016539) scale(0.1 -0.1)">
       <defs>
        <path id="DejaVuSans-30" d="M 2034 4250 
Q 1547 4250 1301 3770 
Q 1056 3291 1056 2328 
Q 1056 1369 1301 889 
Q 1547 409 2034 409 
Q 2525 409 2770 889 
Q 3016 1369 3016 2328 
Q 3016 3291 2770 3770 
Q 2525 4250 2034 4250 
z
M 2034 4750 
Q 2819 4750 3233 4129 
Q 3647 3509 3647 2328 
Q 3647 1150 3233 529 
Q 2819 -91 2034 -91 
Q 1250 -91 836 529 
Q 422 1150 422 2328 
Q 422 3509 836 4129 
Q 1250 4750 2034 4750 
z
" transform="scale(0.015625)"/>
        <path id="DejaVuSans-2e" d="M 684 794 
L 1344 794 
L 1344 0 
L 684 0 
L 684 794 
z
" transform="scale(0.015625)"/>
       </defs>
       <use xlink:href="#DejaVuSans-30"/>
       <use xlink:href="#DejaVuSans-2e" transform="translate(63.623047 0)"/>
       <use xlink:href="#DejaVuSans-30" transform="translate(95.410156 0)"/>
       <use xlink:href="#DejaVuSans-30" transform="translate(159.033203 0)"/>
      </g>
     </g>
    </g>
    <g id="ytick_2">
     <g id="line2d_15">
      <path d="M 62.3 77.60892 
L 579.6 77.60892 
" clip-path="url(#pa133090891)" style="fill: none; stroke: #b0b0b0; stroke-opacity: 0.25; stroke-width: 0.8; stroke-linecap: square"/>
     </g>
     <g id="line2d_16">
      <g>
       <use xlink:href="#mfc37ebe1d9" x="62.3" y="77.60892" style="stroke: #000000; stroke-width: 0.8"/>
      </g>
     </g>
     <g id="text_2">
      <!-- 0.05 -->
      <g transform="translate(33.034375 81.408139) scale(0.1 -0.1)">
       <defs>
        <path id="DejaVuSans-35" d="M 691 4666 
L 3169 4666 
L 3169 4134 
L 1269 4134 
L 1269 2991 
Q 1406 3038 1543 3061 
Q 1681 3084 1819 3084 
Q 2600 3084 3056 2656 
Q 3513 2228 3513 1497 
Q 3513 744 3044 326 
Q 2575 -91 1722 -91 
Q 1428 -91 1123 -41 
Q 819 9 494 109 
L 494 744 
Q 775 591 1075 516 
Q 1375 441 1709 441 
Q 2250 441 2565 725 
Q 2881 1009 2881 1497 
Q 2881 1984 2565 2268 
Q 2250 2553 1709 2553 
Q 1456 2553 1204 2497 
Q 953 2441 691 2322 
L 691 4666 
z
" transform="scale(0.015625)"/>
       </defs>
       <use xlink:href="#DejaVuSans-30"/>
       <use xlink:href="#DejaVuSans-2e" transform="translate(63.623047 0)"/>
       <use xlink:href="#DejaVuSans-30" transform="translate(95.410156 0)"/>
       <use xlink:href="#DejaVuSans-35" transform="translate(159.033203 0)"/>
      </g>
     </g>
    </g>
    <g id="ytick_3">
     <g id="line2d_17">
      <path d="M 62.3 51.00052 
L 579.6 51.00052 
" clip-path="url(#pa133090891)" style="fill: none; stroke: #b0b0b0; stroke-opacity: 0.25; stroke-width: 0.8; stroke-linecap: square"/>
     </g>
     <g id="line2d_18">
      <g>
       <use xlink:href="#mfc37ebe1d9" x="62.3" y="51.00052" style="stroke: #000000; stroke-width: 0.8"/>
      </g>
     </g>
     <g id="text_3">
      <!-- 0.10 -->
      <g transform="translate(33.034375 54.799738) scale(0.1 -0.1)">
       <defs>
        <path id="DejaVuSans-31" d="M 794 531 
L 1825 531 
L 1825 4091 
L 703 3866 
L 703 4441 
L 1819 4666 
L 2450 4666 
L 2450 531 
L 3481 531 
L 3481 0 
L 794 0 
L 794 531 
z
" transform="scale(0.015625)"/>
       </defs>
       <use xlink:href="#DejaVuSans-30"/>
       <use xlink:href="#DejaVuSans-2e" transform="translate(63.623047 0)"/>
       <use xlink:href="#DejaVuSans-31" transform="translate(95.410156 0)"/>
       <use xlink:href="#DejaVuSans-30" transform="translate(159.033203 0)"/>
      </g>
     </g>
    </g>
    <g id="ytick_4">
     <g id="line2d_19">
      <path d="M 62.3 24.392119 
L 579.6 24.392119 
" clip-path="url(#pa133090891)" style="fill: none; stroke: #b0b0b0; stroke-opacity: 0.25; stroke-width: 0.8; stroke-linecap: square"/>
     </g>
     <g id="line2d_20">
      <g>
       <use xlink:href="#mfc37ebe1d9" x="62.3" y="24.392119" style="stroke: #000000; stroke-width: 0.8"/>
      </g>
     </g>
     <g id="text_4">
      <!-- 0.15 -->
      <g transform="translate(33.034375 28.191338) scale(0.1 -0.1)">
       <use xlink:href="#DejaVuSans-30"/>
       <use xlink:href="#DejaVuSans-2e" transform="translate(63.623047 0)"/>
       <use xlink:href="#DejaVuSans-31" transform="translate(95.410156 0)"/>
       <use xlink:href="#DejaVuSans-35" transform="translate(159.033203 0)"/>
      </g>
     </g>
    </g>
    <g id="text_5">
     <!-- C_L -->
     <g transform="translate(26.676563 75.617344) rotate(-90) scale(0.1 -0.1)">
      <defs>
       <path id="DejaVuSans-43" d="M 4122 4306 
L 4122 3641 
Q 3803 3938 3442 4084 
Q 3081 4231 2675 4231 
Q 1875 4231 1450 3742 
Q 1025 3253 1025 2328 
Q 1025 1406 1450 917 
Q 1875 428 2675 428 
Q 3081 428 3442 575 
Q 3803 722 4122 1019 
L 4122 359 
Q 3791 134 3420 21 
Q 3050 -91 2638 -91 
Q 1578 -91 968 557 
Q 359 1206 359 2328 
Q 359 3453 968 4101 
Q 1578 4750 2638 4750 
Q 3056 4750 3426 4639 
Q 3797 4528 4122 4306 
z
" transform="scale(0.015625)"/>
       <path id="DejaVuSans-5f" d="M 3263 -1063 
L 3263 -1509 
L -63 -1509 
L -63 -1063 
L 3263 -1063 
z
" transform="scale(0.015625)"/>
       <path id="DejaVuSans-4c" d="M 628 4666 
L 1259 4666 
L 1259 531 
L 3531 531 
L 3531 0 
L 628 0 
L 628 4666 
z
" transform="scale(0.015625)"/>
      </defs>
      <use xlink:href="#DejaVuSans-43"/>
      <use xlink:href="#DejaVuSans-5f" transform="translate(69.824219 0)"/>
      <use xlink:href="#DejaVuSans-4c" transform="translate(119.824219 0)"/>
     </g>
    </g>
   </g>
   <g id="line2d_21">
    <path d="M 85.813636 91.314762 
L 88.635273 89.892109 
L 90.046091 89.511494 
L 91.927182 89.245934 
L 94.748818 89.120071 
L 99.921818 89.175958 
L 105.565091 89.427804 
L 109.797545 89.821066 
L 113.559727 90.375456 
L 117.321909 91.141278 
L 121.554364 92.247304 
L 125.786818 93.581428 
L 130.959818 95.460784 
L 137.543636 98.125356 
L 146.008545 101.570313 
L 149.300455 102.678452 
L 152.122091 103.405939 
L 154.473455 103.812548 
L 156.824818 104.016218 
L 159.176182 104.009696 
L 161.527545 103.792677 
L 163.878909 103.360144 
L 166.230273 102.689608 
L 168.111364 101.951866 
L 169.992455 101.001187 
L 171.873545 99.80402 
L 173.754636 98.331695 
L 175.635727 96.564689 
L 177.516818 94.488531 
L 179.397909 92.074852 
L 181.279 89.245697 
L 182.689818 86.754646 
L 184.100636 83.836036 
L 185.511455 80.37193 
L 186.922273 76.195234 
L 188.333091 71.131993 
L 189.743909 65.131236 
L 191.625 55.960286 
L 194.446636 42.072015 
L 195.857455 36.51922 
L 196.798 33.599713 
L 197.738545 31.318741 
L 198.679091 29.642078 
L 199.619636 28.513817 
L 200.560182 27.864012 
L 201.500727 27.609953 
L 202.441273 27.667113 
L 203.381818 27.96802 
L 204.322364 28.469115 
L 205.733182 29.548192 
L 207.144 31.004016 
L 208.554818 32.860139 
L 209.965636 35.1682 
L 211.376455 37.987805 
L 212.787273 41.362169 
L 214.198091 45.291161 
L 216.079182 51.265607 
L 221.722455 70.158955 
L 223.603545 75.313156 
L 225.014364 78.52062 
L 226.425182 81.093712 
L 227.365727 82.429856 
L 228.306273 83.447015 
L 229.246818 84.13687 
L 230.187364 84.498732 
L 231.127909 84.542395 
L 232.068455 84.289783 
L 233.009 83.774209 
L 233.949545 83.03655 
L 235.360364 81.603369 
L 236.771182 79.865814 
L 238.182 77.839501 
L 239.592818 75.430603 
L 241.003636 72.453132 
L 241.944182 70.04015 
L 243.355 65.626814 
L 244.765818 60.140898 
L 246.176636 53.570861 
L 250.879364 30.092397 
L 252.290182 24.723876 
L 253.230727 21.839035 
L 254.171273 19.544272 
L 255.111818 17.838141 
L 256.052364 16.694377 
L 256.992909 16.06719 
L 257.933455 15.894545 
L 258.874 16.109695 
L 259.814545 16.652781 
L 260.755091 17.474789 
L 262.165909 19.139361 
L 264.047 21.920455 
L 267.338909 27.019093 
L 269.22 29.46623 
L 271.101091 31.515487 
L 273.452455 33.723555 
L 276.744364 36.553405 
L 277.684909 37.153596 
L 278.625455 37.529934 
L 279.566 37.634005 
L 280.506545 37.424846 
L 281.447091 36.911784 
L 282.387636 36.151248 
L 283.798455 34.684165 
L 285.679545 32.348591 
L 288.501182 28.803135 
L 289.912 27.399542 
L 290.852545 26.713754 
L 291.793091 26.296755 
L 292.733636 26.227608 
L 293.203909 26.353604 
L 293.674182 26.603504 
L 294.144455 26.988855 
L 295.085 28.202375 
L 296.025545 30.039288 
L 296.966091 32.485613 
L 298.376909 37.083185 
L 305.431 62.369558 
L 307.312091 67.858779 
L 308.722909 71.377678 
L 310.133727 74.419472 
L 311.544545 77.048346 
L 312.955364 79.303179 
L 314.366182 81.198097 
L 315.777 82.746347 
L 317.187818 83.976628 
L 318.598636 84.934954 
L 320.479727 85.883102 
L 322.831091 86.717706 
L 324.712182 87.450612 
L 326.123 88.276326 
L 327.533818 89.388551 
L 330.825727 92.229005 
L 331.766273 92.779738 
L 332.706818 93.103395 
L 333.647364 93.166482 
L 334.587909 92.964108 
L 335.528455 92.538007 
L 339.290636 90.50501 
L 343.993364 88.441691 
L 344.933909 87.71394 
L 345.874455 86.751679 
L 346.815 85.526686 
L 348.225818 83.186107 
L 349.636636 80.323255 
L 352.458273 74.244119 
L 353.398818 72.6591 
L 354.339364 71.558943 
L 354.809636 71.231828 
L 355.279909 71.06982 
L 355.750182 71.079048 
L 356.220455 71.258934 
L 356.690727 71.601719 
L 357.631273 72.712965 
L 358.571818 74.244302 
L 362.334 80.915493 
L 363.274545 82.075119 
L 364.215091 82.946611 
L 365.155636 83.577876 
L 366.566455 84.206224 
L 367.977273 84.539518 
L 368.917818 84.577676 
L 369.858364 84.431247 
L 370.798909 84.075342 
L 371.739455 83.503461 
L 373.150273 82.27931 
L 375.501636 79.689676 
L 376.912455 78.315087 
L 377.853 77.748482 
L 378.323273 77.623787 
L 378.793545 77.624786 
L 379.263818 77.761721 
L 379.734091 78.039515 
L 380.674636 79.005948 
L 381.615182 80.437922 
L 383.496273 84.004215 
L 384.907091 86.520412 
L 385.847636 87.792063 
L 386.788182 88.59373 
L 387.728727 88.894897 
L 388.669273 88.782754 
L 390.080091 88.230549 
L 392.901727 86.974937 
L 393.842273 86.224173 
L 394.782818 85.016835 
L 395.723364 83.204625 
L 396.663909 80.690975 
L 397.604455 77.441941 
L 399.015273 71.321988 
L 401.836909 57.712338 
L 402.777455 54.328652 
L 403.247727 53.110267 
L 403.718 52.259875 
L 404.188273 51.798375 
L 404.658545 51.729459 
L 405.128818 52.039084 
L 405.599091 52.696592 
L 406.539636 54.867348 
L 407.950455 59.394734 
L 409.831545 65.562924 
L 410.772091 68.073081 
L 411.712636 70.075713 
L 412.653182 71.606608 
L 413.593727 72.718301 
L 414.534273 73.413601 
L 415.004545 73.587747 
L 415.474818 73.631392 
L 415.945091 73.532683 
L 416.415364 73.281061 
L 416.885636 72.868467 
L 417.826182 71.545184 
L 418.766727 69.571718 
L 419.707273 67.022804 
L 421.118091 62.450547 
L 422.999182 56.222659 
L 423.939727 53.785798 
L 424.41 52.901982 
L 424.880273 52.300227 
L 425.350545 52.015337 
L 425.820818 52.069898 
L 426.291091 52.470929 
L 426.761364 53.207833 
L 427.701909 55.561278 
L 428.642455 58.752674 
L 431.464091 69.196523 
L 432.404636 72.022583 
L 433.345182 74.311357 
L 434.285727 76.092854 
L 435.226273 77.45606 
L 436.166818 78.488722 
L 437.107364 79.24529 
L 438.047909 79.755097 
L 438.988455 80.048708 
L 440.399273 80.211555 
L 441.810091 80.361396 
L 442.750636 80.707771 
L 443.691182 81.428076 
L 444.631727 82.612672 
L 445.572273 84.254769 
L 447.453364 88.321702 
L 449.804727 93.248652 
L 451.685818 96.798869 
L 452.626364 98.306851 
L 453.566909 99.429608 
L 454.507455 100.053806 
L 455.448 100.198676 
L 456.388545 100.00913 
L 459.210182 99.09315 
L 460.621 98.9373 
L 462.031818 99.062184 
L 462.972364 99.322999 
L 463.912909 99.756136 
L 465.323727 100.732481 
L 467.204818 102.203446 
L 468.145364 102.734334 
L 469.085909 103.055441 
L 470.026455 103.187024 
L 470.967 103.125892 
L 471.907545 102.793333 
L 472.848091 102.075033 
L 473.788636 100.931608 
L 475.199455 98.697522 
L 476.610273 96.47812 
L 478.021091 94.667012 
L 479.902182 92.715258 
L 483.194091 89.329518 
L 487.426545 84.640679 
L 488.367091 83.151275 
L 489.307636 81.284187 
L 490.718455 77.857348 
L 493.069818 71.976657 
L 496.361727 64.6781 
L 497.772545 60.590882 
L 499.183364 55.67132 
L 502.475273 43.410712 
L 503.415818 40.730755 
L 504.356364 38.771883 
L 505.296909 37.505018 
L 506.237455 36.751117 
L 507.178 36.303934 
L 508.118545 36.056737 
L 509.059091 36.02659 
L 509.999636 36.262114 
L 511.410455 37.005141 
L 512.821273 37.703703 
L 513.761818 37.842735 
L 514.702364 37.667353 
L 515.642909 37.140364 
L 516.583455 36.28687 
L 518.464545 34.027135 
L 519.405091 33.012291 
L 520.345636 32.382529 
L 520.815909 32.26168 
L 521.286182 32.27742 
L 522.226727 32.668279 
L 525.988909 35.123508 
L 527.399727 36.027788 
L 529.751091 37.773221 
L 530.691636 38.15487 
L 531.632182 38.256861 
L 532.572727 38.125011 
L 534.453818 37.702056 
L 535.394364 37.795392 
L 535.864636 38.003868 
L 536.334909 38.345068 
L 537.275455 39.453249 
L 538.216 41.058592 
L 540.567364 45.53626 
L 541.507909 46.911454 
L 542.918727 48.482085 
L 544.799818 50.407807 
L 546.210636 52.18115 
L 548.091727 55.005827 
L 550.443091 59.032801 
L 552.794455 63.613844 
L 554.675545 67.193693 
L 555.616091 68.676132 
L 556.086364 69.304761 
L 556.086364 69.304761 
" clip-path="url(#pa133090891)" style="fill: none; stroke: #000000; stroke-width: 1.4; stroke-linecap: square"/>
   </g>
   <g id="line2d_22">
    <path d="M 85.813636 68.349815 
L 86.283909 69.713535 
L 87.224455 71.572741 
L 90.986636 77.453479 
L 94.278545 82.230076 
L 95.219091 84.318557 
L 98.511 92.437404 
L 99.451545 94.014964 
L 100.392091 95.217356 
L 101.332636 96.121042 
L 102.273182 96.791973 
L 103.684 97.474557 
L 105.094818 97.890981 
L 106.975909 98.214133 
L 114.970545 99.290092 
L 118.262455 100.099882 
L 125.316545 101.932759 
L 129.078727 102.592468 
L 133.311182 103.081471 
L 139.424727 103.522963 
L 147.889636 103.896783 
L 154.943727 104.004809 
L 163.878909 103.890587 
L 170.462727 103.630377 
L 174.224909 103.270446 
L 179.397909 102.496995 
L 184.100636 101.685325 
L 185.981727 101.146298 
L 187.862818 100.365686 
L 190.214182 99.0817 
L 192.095273 98.087569 
L 194.446636 97.145028 
L 196.798 96.428995 
L 200.089909 95.689993 
L 202.441273 95.35709 
L 204.792636 95.236258 
L 207.614273 95.342254 
L 210.906182 95.731534 
L 214.198091 96.324123 
L 216.549455 97.002458 
L 218.900818 97.962919 
L 225.954909 101.188589 
L 228.306273 101.853655 
L 231.127909 102.4203 
L 233.479273 102.69444 
L 235.360364 102.707468 
L 237.241455 102.498628 
L 239.122545 102.096225 
L 240.533364 101.636589 
L 241.944182 100.976164 
L 243.355 100.087343 
L 245.236091 98.611286 
L 248.528 95.764175 
L 251.819909 92.833816 
L 253.230727 92.005854 
L 254.171273 91.680463 
L 255.111818 91.533202 
L 256.522636 91.608252 
L 257.933455 91.978883 
L 259.344273 92.574555 
L 261.225364 93.6048 
L 265.457818 96.051436 
L 266.868636 96.503747 
L 268.279455 96.655536 
L 269.690273 96.534153 
L 271.571364 96.07763 
L 275.803818 94.868998 
L 280.506545 93.869469 
L 282.387636 93.6137 
L 285.209273 93.543149 
L 288.971455 93.453417 
L 291.322818 93.107341 
L 292.733636 92.976272 
L 293.674182 93.157135 
L 294.614727 93.675841 
L 295.555273 94.56786 
L 296.495818 95.804973 
L 300.258 101.505757 
L 301.198545 102.491524 
L 302.139091 103.23552 
L 303.549909 103.977898 
L 306.841818 105.254855 
L 308.252636 106.218558 
L 311.544545 108.772553 
L 312.955364 109.500031 
L 314.366182 109.983467 
L 316.717545 110.480219 
L 319.068909 110.971497 
L 320.479727 111.432652 
L 321.420273 111.866829 
L 322.360818 112.507709 
L 323.301364 113.463414 
L 324.241909 114.749717 
L 326.123 117.785455 
L 341.171727 117.75848 
L 342.582545 117.182738 
L 343.993364 116.951981 
L 345.404182 117.029349 
L 346.815 117.386852 
L 347.755545 117.780136 
L 357.631273 117.785455 
L 369.858364 117.730755 
L 372.209727 117.142772 
L 373.620545 116.600791 
L 375.031364 115.786566 
L 376.442182 114.602332 
L 378.793545 112.097533 
L 381.144909 109.676371 
L 382.085455 109.063049 
L 382.555727 108.950742 
L 383.026 108.996882 
L 383.496273 109.200705 
L 384.436818 109.962148 
L 385.377364 110.790068 
L 385.847636 111.033098 
L 386.317909 111.067283 
L 386.788182 110.859216 
L 387.258455 110.424233 
L 388.669273 108.448356 
L 391.490909 104.405358 
L 391.961182 103.968755 
L 392.901727 103.529037 
L 393.842273 103.455559 
L 397.134182 103.484566 
L 399.955818 103.308231 
L 401.366636 103.506931 
L 403.718 103.980056 
L 407.009909 104.143883 
L 408.420727 104.03955 
L 409.831545 103.644985 
L 412.182909 102.972056 
L 418.296455 101.592335 
L 419.707273 100.919142 
L 421.118091 99.980001 
L 423.469455 98.170221 
L 423.939727 97.963824 
L 424.41 97.882792 
L 424.880273 97.941306 
L 425.820818 98.440099 
L 428.642455 100.634902 
L 429.583 100.995453 
L 430.523545 101.113519 
L 431.934364 100.982791 
L 434.285727 100.689723 
L 436.166818 100.715232 
L 441.810091 101.23045 
L 444.161455 101.783958 
L 447.453364 102.793114 
L 448.864182 103.411353 
L 450.275 104.088955 
L 451.215545 104.239285 
L 454.507455 104.286542 
L 459.210182 104.480902 
L 466.264273 104.294493 
L 472.377818 104.814342 
L 474.729182 104.724556 
L 476.610273 104.467991 
L 478.961636 103.884284 
L 482.253545 103.043423 
L 484.604909 102.645562 
L 490.248182 102.089779 
L 491.659 101.667525 
L 493.540091 100.81802 
L 495.891455 99.441979 
L 498.242818 98.089032 
L 499.653636 97.467064 
L 501.064455 97.130819 
L 502.475273 97.119073 
L 505.767182 97.317713 
L 508.588818 97.416416 
L 510.940182 97.543897 
L 512.351 97.413166 
L 514.702364 96.915032 
L 516.113182 96.683603 
L 517.053727 96.701306 
L 517.994273 96.917434 
L 519.405091 97.544076 
L 521.286182 98.446426 
L 522.697 98.853066 
L 523.637545 98.893661 
L 524.578091 98.720054 
L 526.929455 98.073537 
L 528.340273 98.006763 
L 529.751091 98.163127 
L 531.632182 98.611116 
L 535.394364 99.725294 
L 537.745727 99.992643 
L 542.448455 100.400273 
L 548.562 101.755068 
L 551.383636 101.996702 
L 555.145818 102.277079 
L 556.086364 102.534342 
L 556.086364 102.534342 
" clip-path="url(#pa133090891)" style="fill: none; stroke: #e45756; stroke-width: 1.1; stroke-linecap: square"/>
   </g>
   <g id="patch_3">
    <path d="M 62.3 122.88 
L 62.3 10.8 
" style="fill: none; stroke: #000000; stroke-width: 0.8; stroke-linejoin: miter; stroke-linecap: square"/>
   </g>
   <g id="patch_4">
    <path d="M 579.6 122.88 
L 579.6 10.8 
" style="fill: none; stroke: #000000; stroke-width: 0.8; stroke-linejoin: miter; stroke-linecap: square"/>
   </g>
   <g id="patch_5">
    <path d="M 62.3 122.88 
L 579.6 122.88 
" style="fill: none; stroke: #000000; stroke-width: 0.8; stroke-linejoin: miter; stroke-linecap: square"/>
   </g>
   <g id="patch_6">
    <path d="M 62.3 10.8 
L 579.6 10.8 
" style="fill: none; stroke: #000000; stroke-width: 0.8; stroke-linejoin: miter; stroke-linecap: square"/>
   </g>
   <g id="legend_1">
    <g id="line2d_23">
     <path d="M 71.3 23.898438 
L 81.3 23.898438 
L 91.3 23.898438 
" style="fill: none; stroke: #000000; stroke-width: 1.4; stroke-linecap: square"/>
    </g>
    <g id="text_6">
     <!-- True residual -->
     <g transform="translate(99.3 27.398438) scale(0.1 -0.1)">
      <defs>
       <path id="DejaVuSans-54" d="M -19 4666 
L 3928 4666 
L 3928 4134 
L 2272 4134 
L 2272 0 
L 1638 0 
L 1638 4134 
L -19 4134 
L -19 4666 
z
" transform="scale(0.015625)"/>
       <path id="DejaVuSans-72" d="M 2631 2963 
Q 2534 3019 2420 3045 
Q 2306 3072 2169 3072 
Q 1681 3072 1420 2755 
Q 1159 2438 1159 1844 
L 1159 0 
L 581 0 
L 581 3500 
L 1159 3500 
L 1159 2956 
Q 1341 3275 1631 3429 
Q 1922 3584 2338 3584 
Q 2397 3584 2469 3576 
Q 2541 3569 2628 3553 
L 2631 2963 
z
" transform="scale(0.015625)"/>
       <path id="DejaVuSans-75" d="M 544 1381 
L 544 3500 
L 1119 3500 
L 1119 1403 
Q 1119 906 1312 657 
Q 1506 409 1894 409 
Q 2359 409 2629 706 
Q 2900 1003 2900 1516 
L 2900 3500 
L 3475 3500 
L 3475 0 
L 2900 0 
L 2900 538 
Q 2691 219 2414 64 
Q 2138 -91 1772 -91 
Q 1169 -91 856 284 
Q 544 659 544 1381 
z
M 1991 3584 
L 1991 3584 
z
" transform="scale(0.015625)"/>
       <path id="DejaVuSans-65" d="M 3597 1894 
L 3597 1613 
L 953 1613 
Q 991 1019 1311 708 
Q 1631 397 2203 397 
Q 2534 397 2845 478 
Q 3156 559 3463 722 
L 3463 178 
Q 3153 47 2828 -22 
Q 2503 -91 2169 -91 
Q 1331 -91 842 396 
Q 353 884 353 1716 
Q 353 2575 817 3079 
Q 1281 3584 2069 3584 
Q 2775 3584 3186 3129 
Q 3597 2675 3597 1894 
z
M 3022 2063 
Q 3016 2534 2758 2815 
Q 2500 3097 2075 3097 
Q 1594 3097 1305 2825 
Q 1016 2553 972 2059 
L 3022 2063 
z
" transform="scale(0.015625)"/>
       <path id="DejaVuSans-20" transform="scale(0.015625)"/>
       <path id="DejaVuSans-73" d="M 2834 3397 
L 2834 2853 
Q 2591 2978 2328 3040 
Q 2066 3103 1784 3103 
Q 1356 3103 1142 2972 
Q 928 2841 928 2578 
Q 928 2378 1081 2264 
Q 1234 2150 1697 2047 
L 1894 2003 
Q 2506 1872 2764 1633 
Q 3022 1394 3022 966 
Q 3022 478 2636 193 
Q 2250 -91 1575 -91 
Q 1294 -91 989 -36 
Q 684 19 347 128 
L 347 722 
Q 666 556 975 473 
Q 1284 391 1588 391 
Q 1994 391 2212 530 
Q 2431 669 2431 922 
Q 2431 1156 2273 1281 
Q 2116 1406 1581 1522 
L 1381 1569 
Q 847 1681 609 1914 
Q 372 2147 372 2553 
Q 372 3047 722 3315 
Q 1072 3584 1716 3584 
Q 2034 3584 2315 3537 
Q 2597 3491 2834 3397 
z
" transform="scale(0.015625)"/>
       <path id="DejaVuSans-69" d="M 603 3500 
L 1178 3500 
L 1178 0 
L 603 0 
L 603 3500 
z
M 603 4863 
L 1178 4863 
L 1178 4134 
L 603 4134 
L 603 4863 
z
" transform="scale(0.015625)"/>
       <path id="DejaVuSans-64" d="M 2906 2969 
L 2906 4863 
L 3481 4863 
L 3481 0 
L 2906 0 
L 2906 525 
Q 2725 213 2448 61 
Q 2172 -91 1784 -91 
Q 1150 -91 751 415 
Q 353 922 353 1747 
Q 353 2572 751 3078 
Q 1150 3584 1784 3584 
Q 2172 3584 2448 3432 
Q 2725 3281 2906 2969 
z
M 947 1747 
Q 947 1113 1208 752 
Q 1469 391 1925 391 
Q 2381 391 2643 752 
Q 2906 1113 2906 1747 
Q 2906 2381 2643 2742 
Q 2381 3103 1925 3103 
Q 1469 3103 1208 2742 
Q 947 2381 947 1747 
z
" transform="scale(0.015625)"/>
       <path id="DejaVuSans-61" d="M 2194 1759 
Q 1497 1759 1228 1600 
Q 959 1441 959 1056 
Q 959 750 1161 570 
Q 1363 391 1709 391 
Q 2188 391 2477 730 
Q 2766 1069 2766 1631 
L 2766 1759 
L 2194 1759 
z
M 3341 1997 
L 3341 0 
L 2766 0 
L 2766 531 
Q 2569 213 2275 61 
Q 1981 -91 1556 -91 
Q 1019 -91 701 211 
Q 384 513 384 1019 
Q 384 1609 779 1909 
Q 1175 2209 1959 2209 
L 2766 2209 
L 2766 2266 
Q 2766 2663 2505 2880 
Q 2244 3097 1772 3097 
Q 1472 3097 1187 3025 
Q 903 2953 641 2809 
L 641 3341 
Q 956 3463 1253 3523 
Q 1550 3584 1831 3584 
Q 2591 3584 2966 3190 
Q 3341 2797 3341 1997 
z
" transform="scale(0.015625)"/>
       <path id="DejaVuSans-6c" d="M 603 4863 
L 1178 4863 
L 1178 0 
L 603 0 
L 603 4863 
z
" transform="scale(0.015625)"/>
      </defs>
      <use xlink:href="#DejaVuSans-54"/>
      <use xlink:href="#DejaVuSans-72" transform="translate(46.333984 0)"/>
      <use xlink:href="#DejaVuSans-75" transform="translate(87.447266 0)"/>
      <use xlink:href="#DejaVuSans-65" transform="translate(150.826172 0)"/>
      <use xlink:href="#DejaVuSans-20" transform="translate(212.349609 0)"/>
      <use xlink:href="#DejaVuSans-72" transform="translate(244.136719 0)"/>
      <use xlink:href="#DejaVuSans-65" transform="translate(283 0)"/>
      <use xlink:href="#DejaVuSans-73" transform="translate(344.523438 0)"/>
      <use xlink:href="#DejaVuSans-69" transform="translate(396.623047 0)"/>
      <use xlink:href="#DejaVuSans-64" transform="translate(424.40625 0)"/>
      <use xlink:href="#DejaVuSans-75" transform="translate(487.882812 0)"/>
      <use xlink:href="#DejaVuSans-61" transform="translate(551.261719 0)"/>
      <use xlink:href="#DejaVuSans-6c" transform="translate(612.541016 0)"/>
     </g>
    </g>
    <g id="line2d_24">
     <path d="M 71.3 38.576563 
L 81.3 38.576563 
L 91.3 38.576563 
" style="fill: none; stroke: #e45756; stroke-width: 1.1; stroke-linecap: square"/>
    </g>
    <g id="text_7">
     <!-- PINN-CoeffClosure -->
     <g transform="translate(99.3 42.076563) scale(0.1 -0.1)">
      <defs>
       <path id="DejaVuSans-50" d="M 1259 4147 
L 1259 2394 
L 2053 2394 
Q 2494 2394 2734 2622 
Q 2975 2850 2975 3272 
Q 2975 3691 2734 3919 
Q 2494 4147 2053 4147 
L 1259 4147 
z
M 628 4666 
L 2053 4666 
Q 2838 4666 3239 4311 
Q 3641 3956 3641 3272 
Q 3641 2581 3239 2228 
Q 2838 1875 2053 1875 
L 1259 1875 
L 1259 0 
L 628 0 
L 628 4666 
z
" transform="scale(0.015625)"/>
       <path id="DejaVuSans-49" d="M 628 4666 
L 1259 4666 
L 1259 0 
L 628 0 
L 628 4666 
z
" transform="scale(0.015625)"/>
       <path id="DejaVuSans-4e" d="M 628 4666 
L 1478 4666 
L 3547 763 
L 3547 4666 
L 4159 4666 
L 4159 0 
L 3309 0 
L 1241 3903 
L 1241 0 
L 628 0 
L 628 4666 
z
" transform="scale(0.015625)"/>
       <path id="DejaVuSans-2d" d="M 313 2009 
L 1997 2009 
L 1997 1497 
L 313 1497 
L 313 2009 
z
" transform="scale(0.015625)"/>
       <path id="DejaVuSans-6f" d="M 1959 3097 
Q 1497 3097 1228 2736 
Q 959 2375 959 1747 
Q 959 1119 1226 758 
Q 1494 397 1959 397 
Q 2419 397 2687 759 
Q 2956 1122 2956 1747 
Q 2956 2369 2687 2733 
Q 2419 3097 1959 3097 
z
M 1959 3584 
Q 2709 3584 3137 3096 
Q 3566 2609 3566 1747 
Q 3566 888 3137 398 
Q 2709 -91 1959 -91 
Q 1206 -91 779 398 
Q 353 888 353 1747 
Q 353 2609 779 3096 
Q 1206 3584 1959 3584 
z
" transform="scale(0.015625)"/>
       <path id="DejaVuSans-66" d="M 2375 4863 
L 2375 4384 
L 1825 4384 
Q 1516 4384 1395 4259 
Q 1275 4134 1275 3809 
L 1275 3500 
L 2222 3500 
L 2222 3053 
L 1275 3053 
L 1275 0 
L 697 0 
L 697 3053 
L 147 3053 
L 147 3500 
L 697 3500 
L 697 3744 
Q 697 4328 969 4595 
Q 1241 4863 1831 4863 
L 2375 4863 
z
" transform="scale(0.015625)"/>
      </defs>
      <use xlink:href="#DejaVuSans-50"/>
      <use xlink:href="#DejaVuSans-49" transform="translate(60.302734 0)"/>
      <use xlink:href="#DejaVuSans-4e" transform="translate(89.794922 0)"/>
      <use xlink:href="#DejaVuSans-4e" transform="translate(164.599609 0)"/>
      <use xlink:href="#DejaVuSans-2d" transform="translate(239.404297 0)"/>
      <use xlink:href="#DejaVuSans-43" transform="translate(275.488281 0)"/>
      <use xlink:href="#DejaVuSans-6f" transform="translate(345.3125 0)"/>
      <use xlink:href="#DejaVuSans-65" transform="translate(406.494141 0)"/>
      <use xlink:href="#DejaVuSans-66" transform="translate(468.017578 0)"/>
      <use xlink:href="#DejaVuSans-66" transform="translate(503.222656 0)"/>
      <use xlink:href="#DejaVuSans-43" transform="translate(538.427734 0)"/>
      <use xlink:href="#DejaVuSans-6c" transform="translate(608.251953 0)"/>
      <use xlink:href="#DejaVuSans-6f" transform="translate(636.035156 0)"/>
      <use xlink:href="#DejaVuSans-73" transform="translate(697.216797 0)"/>
      <use xlink:href="#DejaVuSans-75" transform="translate(749.316406 0)"/>
      <use xlink:href="#DejaVuSans-72" transform="translate(812.695312 0)"/>
      <use xlink:href="#DejaVuSans-65" transform="translate(851.558594 0)"/>
     </g>
    </g>
   </g>
  </g>
  <g id="axes_2">
   <g id="patch_7">
    <path d="M 62.3 249.26 
L 579.6 249.26 
L 579.6 137.18 
L 62.3 137.18 
z
" style="fill: #ffffff"/>
   </g>
   <g id="matplotlib.axis_3">
    <g id="xtick_7">
     <g id="line2d_25">
      <path d="M 85.813636 249.26 
L 85.813636 137.18 
" clip-path="url(#pbea23073f6)" style="fill: none; stroke: #b0b0b0; stroke-opacity: 0.25; stroke-width: 0.8; stroke-linecap: square"/>
     </g>
     <g id="line2d_26">
      <g>
       <use xlink:href="#m2ba7c06d88" x="85.813636" y="249.26" style="stroke: #000000; stroke-width: 0.8"/>
      </g>
     </g>
    </g>
    <g id="xtick_8">
     <g id="line2d_27">
      <path d="M 179.868182 249.26 
L 179.868182 137.18 
" clip-path="url(#pbea23073f6)" style="fill: none; stroke: #b0b0b0; stroke-opacity: 0.25; stroke-width: 0.8; stroke-linecap: square"/>
     </g>
     <g id="line2d_28">
      <g>
       <use xlink:href="#m2ba7c06d88" x="179.868182" y="249.26" style="stroke: #000000; stroke-width: 0.8"/>
      </g>
     </g>
    </g>
    <g id="xtick_9">
     <g id="line2d_29">
      <path d="M 273.922727 249.26 
L 273.922727 137.18 
" clip-path="url(#pbea23073f6)" style="fill: none; stroke: #b0b0b0; stroke-opacity: 0.25; stroke-width: 0.8; stroke-linecap: square"/>
     </g>
     <g id="line2d_30">
      <g>
       <use xlink:href="#m2ba7c06d88" x="273.922727" y="249.26" style="stroke: #000000; stroke-width: 0.8"/>
      </g>
     </g>
    </g>
    <g id="xtick_10">
     <g id="line2d_31">
      <path d="M 367.977273 249.26 
L 367.977273 137.18 
" clip-path="url(#pbea23073f6)" style="fill: none; stroke: #b0b0b0; stroke-opacity: 0.25; stroke-width: 0.8; stroke-linecap: square"/>
     </g>
     <g id="line2d_32">
      <g>
       <use xlink:href="#m2ba7c06d88" x="367.977273" y="249.26" style="stroke: #000000; stroke-width: 0.8"/>
      </g>
     </g>
    </g>
    <g id="xtick_11">
     <g id="line2d_33">
      <path d="M 462.031818 249.26 
L 462.031818 137.18 
" clip-path="url(#pbea23073f6)" style="fill: none; stroke: #b0b0b0; stroke-opacity: 0.25; stroke-width: 0.8; stroke-linecap: square"/>
     </g>
     <g id="line2d_34">
      <g>
       <use xlink:href="#m2ba7c06d88" x="462.031818" y="249.26" style="stroke: #000000; stroke-width: 0.8"/>
      </g>
     </g>
    </g>
    <g id="xtick_12">
     <g id="line2d_35">
      <path d="M 556.086364 249.26 
L 556.086364 137.18 
" clip-path="url(#pbea23073f6)" style="fill: none; stroke: #b0b0b0; stroke-opacity: 0.25; stroke-width: 0.8; stroke-linecap: square"/>
     </g>
     <g id="line2d_36">
      <g>
       <use xlink:href="#m2ba7c06d88" x="556.086364" y="249.26" style="stroke: #000000; stroke-width: 0.8"/>
      </g>
     </g>
    </g>
   </g>
   <g id="matplotlib.axis_4">
    <g id="ytick_5">
     <g id="line2d_37">
      <path d="M 62.3 223.347517 
L 579.6 223.347517 
" clip-path="url(#pbea23073f6)" style="fill: none; stroke: #b0b0b0; stroke-opacity: 0.25; stroke-width: 0.8; stroke-linecap: square"/>
     </g>
     <g id="line2d_38">
      <g>
       <use xlink:href="#mfc37ebe1d9" x="62.3" y="223.347517" style="stroke: #000000; stroke-width: 0.8"/>
      </g>
     </g>
     <g id="text_8">
      <!-- −0.2 -->
      <g transform="translate(31.017188 227.146736) scale(0.1 -0.1)">
       <defs>
        <path id="DejaVuSans-2212" d="M 678 2272 
L 4684 2272 
L 4684 1741 
L 678 1741 
L 678 2272 
z
" transform="scale(0.015625)"/>
        <path id="DejaVuSans-32" d="M 1228 531 
L 3431 531 
L 3431 0 
L 469 0 
L 469 531 
Q 828 903 1448 1529 
Q 2069 2156 2228 2338 
Q 2531 2678 2651 2914 
Q 2772 3150 2772 3378 
Q 2772 3750 2511 3984 
Q 2250 4219 1831 4219 
Q 1534 4219 1204 4116 
Q 875 4013 500 3803 
L 500 4441 
Q 881 4594 1212 4672 
Q 1544 4750 1819 4750 
Q 2544 4750 2975 4387 
Q 3406 4025 3406 3419 
Q 3406 3131 3298 2873 
Q 3191 2616 2906 2266 
Q 2828 2175 2409 1742 
Q 1991 1309 1228 531 
z
" transform="scale(0.015625)"/>
       </defs>
       <use xlink:href="#DejaVuSans-2212"/>
       <use xlink:href="#DejaVuSans-30" transform="translate(83.789062 0)"/>
       <use xlink:href="#DejaVuSans-2e" transform="translate(147.412109 0)"/>
       <use xlink:href="#DejaVuSans-32" transform="translate(179.199219 0)"/>
      </g>
     </g>
    </g>
    <g id="ytick_6">
     <g id="line2d_39">
      <path d="M 62.3 197.257643 
L 579.6 197.257643 
" clip-path="url(#pbea23073f6)" style="fill: none; stroke: #b0b0b0; stroke-opacity: 0.25; stroke-width: 0.8; stroke-linecap: square"/>
     </g>
     <g id="line2d_40">
      <g>
       <use xlink:href="#mfc37ebe1d9" x="62.3" y="197.257643" style="stroke: #000000; stroke-width: 0.8"/>
      </g>
     </g>
     <g id="text_9">
      <!-- 0.0 -->
      <g transform="translate(39.396875 201.056861) scale(0.1 -0.1)">
       <use xlink:href="#DejaVuSans-30"/>
       <use xlink:href="#DejaVuSans-2e" transform="translate(63.623047 0)"/>
       <use xlink:href="#DejaVuSans-30" transform="translate(95.410156 0)"/>
      </g>
     </g>
    </g>
    <g id="ytick_7">
     <g id="line2d_41">
      <path d="M 62.3 171.167768 
L 579.6 171.167768 
" clip-path="url(#pbea23073f6)" style="fill: none; stroke: #b0b0b0; stroke-opacity: 0.25; stroke-width: 0.8; stroke-linecap: square"/>
     </g>
     <g id="line2d_42">
      <g>
       <use xlink:href="#mfc37ebe1d9" x="62.3" y="171.167768" style="stroke: #000000; stroke-width: 0.8"/>
      </g>
     </g>
     <g id="text_10">
      <!-- 0.2 -->
      <g transform="translate(39.396875 174.966987) scale(0.1 -0.1)">
       <use xlink:href="#DejaVuSans-30"/>
       <use xlink:href="#DejaVuSans-2e" transform="translate(63.623047 0)"/>
       <use xlink:href="#DejaVuSans-32" transform="translate(95.410156 0)"/>
      </g>
     </g>
    </g>
    <g id="ytick_8">
     <g id="line2d_43">
      <path d="M 62.3 145.077894 
L 579.6 145.077894 
" clip-path="url(#pbea23073f6)" style="fill: none; stroke: #b0b0b0; stroke-opacity: 0.25; stroke-width: 0.8; stroke-linecap: square"/>
     </g>
     <g id="line2d_44">
      <g>
       <use xlink:href="#mfc37ebe1d9" x="62.3" y="145.077894" style="stroke: #000000; stroke-width: 0.8"/>
      </g>
     </g>
     <g id="text_11">
      <!-- 0.4 -->
      <g transform="translate(39.396875 148.877113) scale(0.1 -0.1)">
       <defs>
        <path id="DejaVuSans-34" d="M 2419 4116 
L 825 1625 
L 2419 1625 
L 2419 4116 
z
M 2253 4666 
L 3047 4666 
L 3047 1625 
L 3713 1625 
L 3713 1100 
L 3047 1100 
L 3047 0 
L 2419 0 
L 2419 1100 
L 313 1100 
L 313 1709 
L 2253 4666 
z
" transform="scale(0.015625)"/>
       </defs>
       <use xlink:href="#DejaVuSans-30"/>
       <use xlink:href="#DejaVuSans-2e" transform="translate(63.623047 0)"/>
       <use xlink:href="#DejaVuSans-34" transform="translate(95.410156 0)"/>
      </g>
     </g>
    </g>
    <g id="text_12">
     <!-- C_D -->
     <g transform="translate(24.659375 203.061406) rotate(-90) scale(0.1 -0.1)">
      <defs>
       <path id="DejaVuSans-44" d="M 1259 4147 
L 1259 519 
L 2022 519 
Q 2988 519 3436 956 
Q 3884 1394 3884 2338 
Q 3884 3275 3436 3711 
Q 2988 4147 2022 4147 
L 1259 4147 
z
M 628 4666 
L 1925 4666 
Q 3281 4666 3915 4102 
Q 4550 3538 4550 2338 
Q 4550 1131 3912 565 
Q 3275 0 1925 0 
L 628 0 
L 628 4666 
z
" transform="scale(0.015625)"/>
      </defs>
      <use xlink:href="#DejaVuSans-43"/>
      <use xlink:href="#DejaVuSans-5f" transform="translate(69.824219 0)"/>
      <use xlink:href="#DejaVuSans-44" transform="translate(119.824219 0)"/>
     </g>
    </g>
   </g>
   <g id="line2d_45">
    <path d="M 85.813636 196.917549 
L 94.278545 196.839953 
L 124.376 196.926094 
L 170.933 197.145544 
L 177.516818 197.005026 
L 181.749273 196.724527 
L 185.041182 196.301444 
L 187.862818 195.717416 
L 190.684455 194.895148 
L 197.738545 192.599178 
L 199.619636 192.278929 
L 201.500727 192.15207 
L 203.852091 192.235024 
L 206.673727 192.596181 
L 210.906182 193.418872 
L 218.900818 195.036151 
L 223.603545 195.727894 
L 228.776545 196.255279 
L 232.538727 196.424626 
L 235.830636 196.330829 
L 238.652273 196.026964 
L 241.473909 195.492148 
L 243.825273 194.836805 
L 246.646909 193.775572 
L 248.998273 192.625718 
L 252.760455 190.438278 
L 255.111818 189.22331 
L 256.992909 188.514905 
L 258.403727 188.179297 
L 259.814545 188.028393 
L 261.225364 188.062416 
L 263.106455 188.367351 
L 264.987545 188.905026 
L 268.279455 190.13801 
L 271.571364 191.313306 
L 273.452455 191.788492 
L 275.333545 192.053207 
L 277.214636 192.114183 
L 279.566 191.968072 
L 282.857909 191.52676 
L 289.912 190.42085 
L 292.263364 190.377182 
L 294.144455 190.559577 
L 296.495818 191.043418 
L 298.847182 191.754936 
L 302.139091 193.005264 
L 306.841818 194.824603 
L 309.193182 195.482572 
L 311.544545 195.912953 
L 314.836455 196.243361 
L 320.009455 196.483329 
L 335.058182 196.849537 
L 338.820364 196.784987 
L 343.993364 196.43421 
L 349.636636 196.128597 
L 356.220455 195.999651 
L 359.512364 196.132696 
L 366.566455 196.57623 
L 373.150273 196.416569 
L 379.734091 196.386767 
L 384.436818 196.569483 
L 389.139545 196.793626 
L 391.490909 196.640998 
L 397.134182 195.919225 
L 404.188273 195.038181 
L 406.069364 195.120439 
L 408.420727 195.475638 
L 411.712636 195.981752 
L 413.593727 196.043874 
L 416.415364 195.854399 
L 425.350545 195.007776 
L 427.701909 195.141173 
L 430.523545 195.577111 
L 434.285727 196.205749 
L 437.107364 196.381018 
L 445.102 196.480949 
L 451.685818 196.510951 
L 457.799364 197.053136 
L 463.442636 197.08732 
L 467.675091 196.957472 
L 470.967 196.89737 
L 477.080545 197.018468 
L 488.837364 196.441984 
L 492.129273 196.031565 
L 495.421182 195.33386 
L 502.475273 193.744666 
L 505.767182 193.25944 
L 509.059091 193.017654 
L 514.702364 192.584636 
L 517.994273 192.402186 
L 521.756455 192.485336 
L 529.751091 192.733715 
L 533.983545 192.845545 
L 540.567364 193.310718 
L 544.329545 193.813605 
L 550.913364 194.704009 
L 556.086364 195.199405 
L 556.086364 195.199405 
" clip-path="url(#pbea23073f6)" style="fill: none; stroke: #000000; stroke-width: 1.4; stroke-linecap: square"/>
   </g>
   <g id="line2d_46">
    <path d="M 85.813636 244.165455 
L 86.283909 229.029782 
L 87.224455 210.200759 
L 88.165 197.804626 
L 88.635273 193.892597 
L 89.105545 191.289582 
L 89.575818 189.802471 
L 90.046091 189.24794 
L 90.516364 189.465516 
L 90.986636 190.32139 
L 91.456909 191.705954 
L 92.397455 195.703541 
L 93.808273 203.571967 
L 95.689364 214.383247 
L 96.629909 218.823976 
L 97.570455 222.200662 
L 98.511 224.385688 
L 98.981273 225.033206 
L 99.451545 225.400834 
L 99.921818 225.508358 
L 100.392091 225.379474 
L 100.862364 225.04033 
L 101.802909 223.840234 
L 102.743455 222.119241 
L 104.154273 218.950418 
L 108.857 207.805033 
L 110.267818 205.248489 
L 111.678636 203.275238 
L 112.619182 202.270029 
L 114.03 201.161471 
L 115.440818 200.430624 
L 116.851636 199.965695 
L 118.732727 199.602126 
L 121.554364 199.321715 
L 136.603091 198.172915 
L 144.597727 197.500777 
L 150.711273 197.222838 
L 160.116727 196.828366 
L 164.349182 196.369521 
L 169.051909 195.853265 
L 171.403273 195.833324 
L 173.284364 196.036041 
L 175.635727 196.531142 
L 177.987091 196.9949 
L 179.397909 197.049964 
L 180.808727 196.854428 
L 182.689818 196.308858 
L 185.041182 195.663353 
L 185.981727 195.602222 
L 186.922273 195.763532 
L 188.803364 196.339341 
L 189.273636 196.313266 
L 189.743909 196.128224 
L 190.684455 195.278685 
L 191.625 194.293786 
L 192.095273 194.006984 
L 193.035818 193.84038 
L 193.976364 193.723386 
L 194.916909 193.320438 
L 195.857455 192.598888 
L 197.268273 191.108878 
L 199.619636 188.541834 
L 201.030455 187.358426 
L 201.971 186.760471 
L 202.911545 186.371562 
L 203.852091 186.232914 
L 204.792636 186.359078 
L 205.733182 186.747213 
L 206.673727 187.386415 
L 207.614273 188.260401 
L 209.025091 189.956785 
L 210.906182 192.730927 
L 216.549455 201.464866 
L 218.430545 203.977636 
L 219.841364 205.488722 
L 220.781909 206.231412 
L 221.722455 206.708147 
L 222.663 206.870607 
L 223.603545 206.679052 
L 224.544091 206.118543 
L 225.484636 205.212126 
L 226.895455 203.35325 
L 230.657636 197.863266 
L 232.068455 196.348848 
L 233.479273 195.247254 
L 234.419818 194.728887 
L 235.360364 194.393677 
L 236.300909 194.270812 
L 237.241455 194.389283 
L 238.182 194.755138 
L 239.122545 195.338574 
L 241.003636 196.875552 
L 242.414455 197.993483 
L 243.825273 198.81351 
L 244.765818 199.122878 
L 245.706364 199.197951 
L 247.117182 199.004116 
L 248.528 198.561089 
L 251.349636 197.369288 
L 254.171273 195.546819 
L 255.582091 194.98536 
L 256.522636 194.832754 
L 257.463182 194.87009 
L 258.403727 195.120515 
L 259.344273 195.613054 
L 260.284818 196.353245 
L 262.165909 198.303734 
L 263.576727 199.588277 
L 264.517273 200.089035 
L 265.457818 200.278031 
L 266.868636 200.202153 
L 268.749727 200.084189 
L 271.101091 200.276829 
L 274.863273 200.549187 
L 276.274091 200.477122 
L 277.684909 200.222567 
L 279.095727 199.796882 
L 285.679545 197.099264 
L 287.560636 196.529613 
L 289.441727 196.176837 
L 290.852545 196.15313 
L 291.793091 196.346978 
L 292.733636 196.75643 
L 293.674182 197.365867 
L 294.614727 198.177015 
L 295.555273 199.250486 
L 296.495818 200.6334 
L 299.317455 205.237649 
L 300.258 206.096954 
L 300.728273 206.309777 
L 301.198545 206.375568 
L 301.668818 206.299174 
L 302.139091 206.089081 
L 303.079636 205.311648 
L 304.020182 204.134361 
L 304.960727 202.638484 
L 306.371545 199.949159 
L 308.722909 194.85831 
L 312.485091 186.211711 
L 317.658091 174.227629 
L 319.539182 169.842903 
L 320.95 165.884424 
L 322.360818 161.011029 
L 323.771636 155.215187 
L 325.182455 149.567193 
L 325.652727 148.171068 
L 326.123 147.150105 
L 326.593273 146.520937 
L 327.063545 146.255165 
L 327.533818 146.29096 
L 328.004091 146.548081 
L 330.355455 148.43412 
L 330.825727 148.545559 
L 331.296 148.506382 
L 331.766273 148.316577 
L 332.706818 147.533535 
L 333.647364 146.359425 
L 335.528455 143.837545 
L 336.469 143.104487 
L 337.409545 142.913531 
L 338.820364 142.821823 
L 341.171727 142.274545 
L 342.112273 142.45546 
L 343.052818 143.089635 
L 343.993364 144.241496 
L 344.933909 145.936947 
L 345.874455 148.194854 
L 346.815 151.049363 
L 347.755545 154.545978 
L 349.166364 161.016815 
L 351.047455 171.255192 
L 353.398818 183.801918 
L 356.690727 200.048974 
L 357.631273 203.592046 
L 358.101545 204.932437 
L 358.571818 205.899824 
L 359.042091 206.417997 
L 359.512364 206.394561 
L 359.982636 205.717135 
L 360.452909 204.258473 
L 360.923182 201.901112 
L 361.393455 198.589523 
L 362.334 189.568374 
L 363.744818 175.204089 
L 364.215091 171.677288 
L 364.685364 169.067975 
L 365.155636 167.316317 
L 365.625909 166.288645 
L 366.096182 165.839001 
L 366.566455 165.839262 
L 367.036727 166.186894 
L 367.507 166.802704 
L 368.447545 168.61014 
L 369.858364 172.213027 
L 371.269182 176.444574 
L 372.68 181.270273 
L 374.090818 187.045448 
L 375.501636 194.164221 
L 378.793545 212.254874 
L 379.734091 215.917504 
L 380.674636 218.474416 
L 381.144909 219.347433 
L 381.615182 219.95909 
L 382.085455 220.310176 
L 382.555727 220.396796 
L 383.026 220.217448 
L 383.496273 219.786658 
L 384.436818 218.402238 
L 385.377364 217.076603 
L 385.847636 216.747669 
L 386.317909 216.750922 
L 386.788182 217.12381 
L 387.258455 217.854723 
L 388.199 219.816888 
L 388.669273 220.496868 
L 389.139545 220.600821 
L 389.609818 219.97411 
L 390.080091 218.607634 
L 391.020636 214.357479 
L 391.961182 209.897585 
L 392.901727 206.46517 
L 393.842273 204.034272 
L 394.782818 202.306249 
L 395.723364 201.09576 
L 396.663909 200.319389 
L 397.604455 199.947284 
L 398.545 199.97385 
L 399.485545 200.374596 
L 401.836909 201.891911 
L 402.307182 201.979432 
L 402.777455 201.9159 
L 403.247727 201.696917 
L 404.188273 200.909129 
L 405.128818 200.062103 
L 405.599091 199.779574 
L 406.069364 199.642591 
L 406.539636 199.653097 
L 407.480182 199.988492 
L 408.420727 200.394029 
L 409.361273 200.544974 
L 410.301818 200.392562 
L 411.712636 199.810209 
L 413.593727 199.009215 
L 415.004545 198.757158 
L 418.296455 198.637308 
L 419.237 198.240298 
L 420.177545 197.425947 
L 421.118091 196.09378 
L 422.058636 194.267426 
L 422.999182 192.332808 
L 423.469455 191.593875 
L 423.939727 191.182039 
L 424.41 191.196004 
L 424.880273 191.66714 
L 425.350545 192.538169 
L 428.172182 199.214235 
L 429.112727 200.691304 
L 429.583 201.013563 
L 430.053273 200.93568 
L 430.523545 200.479888 
L 431.934364 198.395119 
L 432.404636 197.935267 
L 432.874909 197.662158 
L 433.815455 197.516928 
L 435.696545 197.771189 
L 437.107364 197.878125 
L 440.399273 197.841359 
L 441.810091 198.391218 
L 442.280364 198.391581 
L 442.750636 198.117423 
L 443.691182 196.878801 
L 444.161455 196.232684 
L 444.631727 195.792367 
L 445.102 195.640779 
L 445.572273 195.78699 
L 446.042545 196.194037 
L 446.983091 197.55909 
L 448.864182 200.779563 
L 449.334455 201.190912 
L 449.804727 201.14479 
L 450.275 200.497667 
L 451.215545 197.799569 
L 451.685818 196.496166 
L 452.156091 195.640599 
L 452.626364 195.236283 
L 453.096636 195.152835 
L 454.037182 195.452959 
L 457.799364 197.325259 
L 458.739909 197.51188 
L 459.680455 197.44269 
L 460.621 197.116182 
L 462.972364 195.970392 
L 463.442636 195.926567 
L 463.912909 196.032559 
L 464.383182 196.298477 
L 465.323727 197.169318 
L 466.264273 198.055547 
L 466.734545 198.351403 
L 467.204818 198.488257 
L 467.675091 198.431331 
L 468.145364 198.162796 
L 469.085909 197.133427 
L 469.556182 196.595497 
L 470.026455 196.238402 
L 470.496727 196.14772 
L 470.967 196.315661 
L 471.907545 197.133627 
L 474.729182 200.012743 
L 475.669727 200.586189 
L 476.14 200.668582 
L 476.610273 200.57223 
L 477.080545 200.285521 
L 478.021091 199.206033 
L 479.902182 196.430273 
L 480.372455 195.992913 
L 480.842727 195.768424 
L 481.313 195.753091 
L 484.604909 196.729751 
L 486.015727 197.364051 
L 488.367091 198.694973 
L 488.837364 198.706495 
L 489.307636 198.543021 
L 491.188727 197.298181 
L 492.129273 197.150007 
L 492.599545 197.254821 
L 493.069818 197.502694 
L 493.540091 197.919432 
L 494.480636 199.237472 
L 495.421182 200.706223 
L 495.891455 201.224548 
L 496.361727 201.493689 
L 496.832 201.487314 
L 497.302273 201.214054 
L 497.772545 200.704717 
L 498.713091 199.156066 
L 500.594182 195.479271 
L 501.064455 194.792541 
L 501.534727 194.310024 
L 502.005 194.06674 
L 502.475273 194.078127 
L 502.945545 194.339262 
L 503.415818 194.827517 
L 504.356364 196.335776 
L 507.178 201.891552 
L 507.648273 202.476309 
L 508.118545 202.831251 
L 508.588818 202.923777 
L 509.059091 202.747943 
L 509.529364 202.327979 
L 510.469909 200.952165 
L 513.761818 195.109526 
L 515.172636 193.398122 
L 516.113182 192.647615 
L 516.583455 192.426095 
L 517.053727 192.329934 
L 517.524 192.37386 
L 517.994273 192.562691 
L 518.934818 193.336285 
L 519.875364 194.500667 
L 521.286182 196.650625 
L 522.226727 198.363314 
L 523.637545 201.569974 
L 524.578091 203.729849 
L 525.518636 205.256814 
L 525.988909 205.691574 
L 526.459182 205.921183 
L 526.929455 205.979408 
L 527.87 205.717773 
L 528.810545 205.110021 
L 530.221364 203.816433 
L 532.102455 202.017638 
L 533.043 201.422295 
L 533.983545 201.175767 
L 534.924091 201.252897 
L 535.864636 201.600139 
L 537.275455 202.508428 
L 538.216 203.095191 
L 539.156545 203.386425 
L 540.097091 203.389353 
L 541.978182 203.085498 
L 543.389 202.645728 
L 544.799818 201.944034 
L 547.151182 200.458455 
L 551.853909 197.38324 
L 552.794455 197.076648 
L 553.735 197.12233 
L 554.675545 197.598546 
L 555.616091 198.514616 
L 556.086364 199.453285 
L 556.086364 199.453285 
" clip-path="url(#pbea23073f6)" style="fill: none; stroke: #e45756; stroke-width: 1.1; stroke-linecap: square"/>
   </g>
   <g id="patch_8">
    <path d="M 62.3 249.26 
L 62.3 137.18 
" style="fill: none; stroke: #000000; stroke-width: 0.8; stroke-linejoin: miter; stroke-linecap: square"/>
   </g>
   <g id="patch_9">
    <path d="M 579.6 249.26 
L 579.6 137.18 
" style="fill: none; stroke: #000000; stroke-width: 0.8; stroke-linejoin: miter; stroke-linecap: square"/>
   </g>
   <g id="patch_10">
    <path d="M 62.3 249.26 
L 579.6 249.26 
" style="fill: none; stroke: #000000; stroke-width: 0.8; stroke-linejoin: miter; stroke-linecap: square"/>
   </g>
   <g id="patch_11">
    <path d="M 62.3 137.18 
L 579.6 137.18 
" style="fill: none; stroke: #000000; stroke-width: 0.8; stroke-linejoin: miter; stroke-linecap: square"/>
   </g>
  </g>
  <g id="axes_3">
   <g id="patch_12">
    <path d="M 62.3 375.64 
L 579.6 375.64 
L 579.6 263.56 
L 62.3 263.56 
z
" style="fill: #ffffff"/>
   </g>
   <g id="matplotlib.axis_5">
    <g id="xtick_13">
     <g id="line2d_47">
      <path d="M 85.813636 375.64 
L 85.813636 263.56 
" clip-path="url(#p37b76bdcd6)" style="fill: none; stroke: #b0b0b0; stroke-opacity: 0.25; stroke-width: 0.8; stroke-linecap: square"/>
     </g>
     <g id="line2d_48">
      <g>
       <use xlink:href="#m2ba7c06d88" x="85.813636" y="375.64" style="stroke: #000000; stroke-width: 0.8"/>
      </g>
     </g>
     <g id="text_13">
      <!-- 0 -->
      <g transform="translate(82.632386 390.238438) scale(0.1 -0.1)">
       <use xlink:href="#DejaVuSans-30"/>
      </g>
     </g>
    </g>
    <g id="xtick_14">
     <g id="line2d_49">
      <path d="M 179.868182 375.64 
L 179.868182 263.56 
" clip-path="url(#p37b76bdcd6)" style="fill: none; stroke: #b0b0b0; stroke-opacity: 0.25; stroke-width: 0.8; stroke-linecap: square"/>
     </g>
     <g id="line2d_50">
      <g>
       <use xlink:href="#m2ba7c06d88" x="179.868182" y="375.64" style="stroke: #000000; stroke-width: 0.8"/>
      </g>
     </g>
     <g id="text_14">
      <!-- 2 -->
      <g transform="translate(176.686932 390.238438) scale(0.1 -0.1)">
       <use xlink:href="#DejaVuSans-32"/>
      </g>
     </g>
    </g>
    <g id="xtick_15">
     <g id="line2d_51">
      <path d="M 273.922727 375.64 
L 273.922727 263.56 
" clip-path="url(#p37b76bdcd6)" style="fill: none; stroke: #b0b0b0; stroke-opacity: 0.25; stroke-width: 0.8; stroke-linecap: square"/>
     </g>
     <g id="line2d_52">
      <g>
       <use xlink:href="#m2ba7c06d88" x="273.922727" y="375.64" style="stroke: #000000; stroke-width: 0.8"/>
      </g>
     </g>
     <g id="text_15">
      <!-- 4 -->
      <g transform="translate(270.741477 390.238438) scale(0.1 -0.1)">
       <use xlink:href="#DejaVuSans-34"/>
      </g>
     </g>
    </g>
    <g id="xtick_16">
     <g id="line2d_53">
      <path d="M 367.977273 375.64 
L 367.977273 263.56 
" clip-path="url(#p37b76bdcd6)" style="fill: none; stroke: #b0b0b0; stroke-opacity: 0.25; stroke-width: 0.8; stroke-linecap: square"/>
     </g>
     <g id="line2d_54">
      <g>
       <use xlink:href="#m2ba7c06d88" x="367.977273" y="375.64" style="stroke: #000000; stroke-width: 0.8"/>
      </g>
     </g>
     <g id="text_16">
      <!-- 6 -->
      <g transform="translate(364.796023 390.238438) scale(0.1 -0.1)">
       <defs>
        <path id="DejaVuSans-36" d="M 2113 2584 
Q 1688 2584 1439 2293 
Q 1191 2003 1191 1497 
Q 1191 994 1439 701 
Q 1688 409 2113 409 
Q 2538 409 2786 701 
Q 3034 994 3034 1497 
Q 3034 2003 2786 2293 
Q 2538 2584 2113 2584 
z
M 3366 4563 
L 3366 3988 
Q 3128 4100 2886 4159 
Q 2644 4219 2406 4219 
Q 1781 4219 1451 3797 
Q 1122 3375 1075 2522 
Q 1259 2794 1537 2939 
Q 1816 3084 2150 3084 
Q 2853 3084 3261 2657 
Q 3669 2231 3669 1497 
Q 3669 778 3244 343 
Q 2819 -91 2113 -91 
Q 1303 -91 875 529 
Q 447 1150 447 2328 
Q 447 3434 972 4092 
Q 1497 4750 2381 4750 
Q 2619 4750 2861 4703 
Q 3103 4656 3366 4563 
z
" transform="scale(0.015625)"/>
       </defs>
       <use xlink:href="#DejaVuSans-36"/>
      </g>
     </g>
    </g>
    <g id="xtick_17">
     <g id="line2d_55">
      <path d="M 462.031818 375.64 
L 462.031818 263.56 
" clip-path="url(#p37b76bdcd6)" style="fill: none; stroke: #b0b0b0; stroke-opacity: 0.25; stroke-width: 0.8; stroke-linecap: square"/>
     </g>
     <g id="line2d_56">
      <g>
       <use xlink:href="#m2ba7c06d88" x="462.031818" y="375.64" style="stroke: #000000; stroke-width: 0.8"/>
      </g>
     </g>
     <g id="text_17">
      <!-- 8 -->
      <g transform="translate(458.850568 390.238438) scale(0.1 -0.1)">
       <defs>
        <path id="DejaVuSans-38" d="M 2034 2216 
Q 1584 2216 1326 1975 
Q 1069 1734 1069 1313 
Q 1069 891 1326 650 
Q 1584 409 2034 409 
Q 2484 409 2743 651 
Q 3003 894 3003 1313 
Q 3003 1734 2745 1975 
Q 2488 2216 2034 2216 
z
M 1403 2484 
Q 997 2584 770 2862 
Q 544 3141 544 3541 
Q 544 4100 942 4425 
Q 1341 4750 2034 4750 
Q 2731 4750 3128 4425 
Q 3525 4100 3525 3541 
Q 3525 3141 3298 2862 
Q 3072 2584 2669 2484 
Q 3125 2378 3379 2068 
Q 3634 1759 3634 1313 
Q 3634 634 3220 271 
Q 2806 -91 2034 -91 
Q 1263 -91 848 271 
Q 434 634 434 1313 
Q 434 1759 690 2068 
Q 947 2378 1403 2484 
z
M 1172 3481 
Q 1172 3119 1398 2916 
Q 1625 2713 2034 2713 
Q 2441 2713 2670 2916 
Q 2900 3119 2900 3481 
Q 2900 3844 2670 4047 
Q 2441 4250 2034 4250 
Q 1625 4250 1398 4047 
Q 1172 3844 1172 3481 
z
" transform="scale(0.015625)"/>
       </defs>
       <use xlink:href="#DejaVuSans-38"/>
      </g>
     </g>
    </g>
    <g id="xtick_18">
     <g id="line2d_57">
      <path d="M 556.086364 375.64 
L 556.086364 263.56 
" clip-path="url(#p37b76bdcd6)" style="fill: none; stroke: #b0b0b0; stroke-opacity: 0.25; stroke-width: 0.8; stroke-linecap: square"/>
     </g>
     <g id="line2d_58">
      <g>
       <use xlink:href="#m2ba7c06d88" x="556.086364" y="375.64" style="stroke: #000000; stroke-width: 0.8"/>
      </g>
     </g>
     <g id="text_18">
      <!-- 10 -->
      <g transform="translate(549.723864 390.238438) scale(0.1 -0.1)">
       <use xlink:href="#DejaVuSans-31"/>
       <use xlink:href="#DejaVuSans-30" transform="translate(63.623047 0)"/>
      </g>
     </g>
    </g>
    <g id="text_19">
     <!-- time [s] -->
     <g transform="translate(301.558594 403.916562) scale(0.1 -0.1)">
      <defs>
       <path id="DejaVuSans-74" d="M 1172 4494 
L 1172 3500 
L 2356 3500 
L 2356 3053 
L 1172 3053 
L 1172 1153 
Q 1172 725 1289 603 
Q 1406 481 1766 481 
L 2356 481 
L 2356 0 
L 1766 0 
Q 1100 0 847 248 
Q 594 497 594 1153 
L 594 3053 
L 172 3053 
L 172 3500 
L 594 3500 
L 594 4494 
L 1172 4494 
z
" transform="scale(0.015625)"/>
       <path id="DejaVuSans-6d" d="M 3328 2828 
Q 3544 3216 3844 3400 
Q 4144 3584 4550 3584 
Q 5097 3584 5394 3201 
Q 5691 2819 5691 2113 
L 5691 0 
L 5113 0 
L 5113 2094 
Q 5113 2597 4934 2840 
Q 4756 3084 4391 3084 
Q 3944 3084 3684 2787 
Q 3425 2491 3425 1978 
L 3425 0 
L 2847 0 
L 2847 2094 
Q 2847 2600 2669 2842 
Q 2491 3084 2119 3084 
Q 1678 3084 1418 2786 
Q 1159 2488 1159 1978 
L 1159 0 
L 581 0 
L 581 3500 
L 1159 3500 
L 1159 2956 
Q 1356 3278 1631 3431 
Q 1906 3584 2284 3584 
Q 2666 3584 2933 3390 
Q 3200 3197 3328 2828 
z
" transform="scale(0.015625)"/>
       <path id="DejaVuSans-5b" d="M 550 4863 
L 1875 4863 
L 1875 4416 
L 1125 4416 
L 1125 -397 
L 1875 -397 
L 1875 -844 
L 550 -844 
L 550 4863 
z
" transform="scale(0.015625)"/>
       <path id="DejaVuSans-5d" d="M 1947 4863 
L 1947 -844 
L 622 -844 
L 622 -397 
L 1369 -397 
L 1369 4416 
L 622 4416 
L 622 4863 
L 1947 4863 
z
" transform="scale(0.015625)"/>
      </defs>
      <use xlink:href="#DejaVuSans-74"/>
      <use xlink:href="#DejaVuSans-69" transform="translate(39.208984 0)"/>
      <use xlink:href="#DejaVuSans-6d" transform="translate(66.992188 0)"/>
      <use xlink:href="#DejaVuSans-65" transform="translate(164.404297 0)"/>
      <use xlink:href="#DejaVuSans-20" transform="translate(225.927734 0)"/>
      <use xlink:href="#DejaVuSans-5b" transform="translate(257.714844 0)"/>
      <use xlink:href="#DejaVuSans-73" transform="translate(296.728516 0)"/>
      <use xlink:href="#DejaVuSans-5d" transform="translate(348.828125 0)"/>
     </g>
    </g>
   </g>
   <g id="matplotlib.axis_6">
    <g id="ytick_9">
     <g id="line2d_59">
      <path d="M 62.3 369.502186 
L 579.6 369.502186 
" clip-path="url(#p37b76bdcd6)" style="fill: none; stroke: #b0b0b0; stroke-opacity: 0.25; stroke-width: 0.8; stroke-linecap: square"/>
     </g>
     <g id="line2d_60">
      <g>
       <use xlink:href="#mfc37ebe1d9" x="62.3" y="369.502186" style="stroke: #000000; stroke-width: 0.8"/>
      </g>
     </g>
     <g id="text_20">
      <!-- −0.3 -->
      <g transform="translate(31.017188 373.301405) scale(0.1 -0.1)">
       <defs>
        <path id="DejaVuSans-33" d="M 2597 2516 
Q 3050 2419 3304 2112 
Q 3559 1806 3559 1356 
Q 3559 666 3084 287 
Q 2609 -91 1734 -91 
Q 1441 -91 1130 -33 
Q 819 25 488 141 
L 488 750 
Q 750 597 1062 519 
Q 1375 441 1716 441 
Q 2309 441 2620 675 
Q 2931 909 2931 1356 
Q 2931 1769 2642 2001 
Q 2353 2234 1838 2234 
L 1294 2234 
L 1294 2753 
L 1863 2753 
Q 2328 2753 2575 2939 
Q 2822 3125 2822 3475 
Q 2822 3834 2567 4026 
Q 2313 4219 1838 4219 
Q 1578 4219 1281 4162 
Q 984 4106 628 3988 
L 628 4550 
Q 988 4650 1302 4700 
Q 1616 4750 1894 4750 
Q 2613 4750 3031 4423 
Q 3450 4097 3450 3541 
Q 3450 3153 3228 2886 
Q 3006 2619 2597 2516 
z
" transform="scale(0.015625)"/>
       </defs>
       <use xlink:href="#DejaVuSans-2212"/>
       <use xlink:href="#DejaVuSans-30" transform="translate(83.789062 0)"/>
       <use xlink:href="#DejaVuSans-2e" transform="translate(147.412109 0)"/>
       <use xlink:href="#DejaVuSans-33" transform="translate(179.199219 0)"/>
      </g>
     </g>
    </g>
    <g id="ytick_10">
     <g id="line2d_61">
      <path d="M 62.3 336.994758 
L 579.6 336.994758 
" clip-path="url(#p37b76bdcd6)" style="fill: none; stroke: #b0b0b0; stroke-opacity: 0.25; stroke-width: 0.8; stroke-linecap: square"/>
     </g>
     <g id="line2d_62">
      <g>
       <use xlink:href="#mfc37ebe1d9" x="62.3" y="336.994758" style="stroke: #000000; stroke-width: 0.8"/>
      </g>
     </g>
     <g id="text_21">
      <!-- −0.2 -->
      <g transform="translate(31.017188 340.793977) scale(0.1 -0.1)">
       <use xlink:href="#DejaVuSans-2212"/>
       <use xlink:href="#DejaVuSans-30" transform="translate(83.789062 0)"/>
       <use xlink:href="#DejaVuSans-2e" transform="translate(147.412109 0)"/>
       <use xlink:href="#DejaVuSans-32" transform="translate(179.199219 0)"/>
      </g>
     </g>
    </g>
    <g id="ytick_11">
     <g id="line2d_63">
      <path d="M 62.3 304.48733 
L 579.6 304.48733 
" clip-path="url(#p37b76bdcd6)" style="fill: none; stroke: #b0b0b0; stroke-opacity: 0.25; stroke-width: 0.8; stroke-linecap: square"/>
     </g>
     <g id="line2d_64">
      <g>
       <use xlink:href="#mfc37ebe1d9" x="62.3" y="304.48733" style="stroke: #000000; stroke-width: 0.8"/>
      </g>
     </g>
     <g id="text_22">
      <!-- −0.1 -->
      <g transform="translate(31.017188 308.286549) scale(0.1 -0.1)">
       <use xlink:href="#DejaVuSans-2212"/>
       <use xlink:href="#DejaVuSans-30" transform="translate(83.789062 0)"/>
       <use xlink:href="#DejaVuSans-2e" transform="translate(147.412109 0)"/>
       <use xlink:href="#DejaVuSans-31" transform="translate(179.199219 0)"/>
      </g>
     </g>
    </g>
    <g id="ytick_12">
     <g id="line2d_65">
      <path d="M 62.3 271.979902 
L 579.6 271.979902 
" clip-path="url(#p37b76bdcd6)" style="fill: none; stroke: #b0b0b0; stroke-opacity: 0.25; stroke-width: 0.8; stroke-linecap: square"/>
     </g>
     <g id="line2d_66">
      <g>
       <use xlink:href="#mfc37ebe1d9" x="62.3" y="271.979902" style="stroke: #000000; stroke-width: 0.8"/>
      </g>
     </g>
     <g id="text_23">
      <!-- 0.0 -->
      <g transform="translate(39.396875 275.779121) scale(0.1 -0.1)">
       <use xlink:href="#DejaVuSans-30"/>
       <use xlink:href="#DejaVuSans-2e" transform="translate(63.623047 0)"/>
       <use xlink:href="#DejaVuSans-30" transform="translate(95.410156 0)"/>
      </g>
     </g>
    </g>
    <g id="text_24">
     <!-- C_M -->
     <g transform="translate(24.659375 329.905469) rotate(-90) scale(0.1 -0.1)">
      <defs>
       <path id="DejaVuSans-4d" d="M 628 4666 
L 1569 4666 
L 2759 1491 
L 3956 4666 
L 4897 4666 
L 4897 0 
L 4281 0 
L 4281 4097 
L 3078 897 
L 2444 897 
L 1241 4097 
L 1241 0 
L 628 0 
L 628 4666 
z
" transform="scale(0.015625)"/>
      </defs>
      <use xlink:href="#DejaVuSans-43"/>
      <use xlink:href="#DejaVuSans-5f" transform="translate(69.824219 0)"/>
      <use xlink:href="#DejaVuSans-4d" transform="translate(119.824219 0)"/>
     </g>
    </g>
   </g>
   <g id="line2d_67">
    <path d="M 85.813636 275.110149 
L 87.224455 275.322067 
L 89.575818 275.394221 
L 93.338 275.238446 
L 105.565091 274.602245 
L 138.954455 273.476712 
L 150.711273 273.097333 
L 163.408636 272.568236 
L 176.576273 272.394493 
L 181.749273 272.145217 
L 183.160091 272.280076 
L 184.570909 272.644416 
L 185.511455 273.091299 
L 186.452 273.781869 
L 187.392545 274.791025 
L 188.333091 276.187739 
L 189.273636 278.029742 
L 190.214182 280.357954 
L 191.154727 283.189122 
L 192.565545 288.309357 
L 196.798 304.960084 
L 197.738545 307.777769 
L 198.679091 310.043986 
L 199.619636 311.732722 
L 200.560182 312.859355 
L 201.500727 313.484701 
L 202.441273 313.700513 
L 203.381818 313.597438 
L 204.322364 313.247542 
L 205.733182 312.372459 
L 207.144 311.181109 
L 209.025091 309.22374 
L 210.906182 306.931155 
L 213.257545 303.696136 
L 222.192727 290.824164 
L 225.484636 286.7515 
L 228.306273 283.617295 
L 230.657636 281.367606 
L 232.538727 279.88877 
L 233.949545 279.007517 
L 235.360364 278.357373 
L 236.771182 277.986146 
L 237.711727 277.92839 
L 238.652273 278.056479 
L 239.592818 278.408771 
L 240.533364 279.032721 
L 241.473909 279.985053 
L 242.414455 281.330826 
L 243.355 283.140885 
L 244.295545 285.489988 
L 245.236091 288.500822 
L 246.176636 292.202616 
L 247.587455 299.007845 
L 248.998273 307.142562 
L 250.879364 319.442556 
L 255.582091 351.163179 
L 256.992909 358.939294 
L 257.933455 363.169467 
L 258.874 366.500384 
L 259.814545 368.856493 
L 260.284818 369.656158 
L 260.755091 370.202083 
L 261.225364 370.496724 
L 261.695636 370.545455 
L 262.165909 370.356506 
L 262.636182 369.940804 
L 263.106455 369.311698 
L 264.047 367.476432 
L 264.987545 364.990003 
L 266.398364 360.36522 
L 268.749727 351.415172 
L 271.571364 340.650314 
L 273.452455 334.318924 
L 274.863273 330.267694 
L 275.803818 328.006167 
L 276.744364 326.180342 
L 277.684909 324.845398 
L 278.625455 324.031532 
L 279.095727 323.823169 
L 279.566 323.746445 
L 280.036273 323.809167 
L 280.506545 324.010429 
L 281.447091 324.787753 
L 282.387636 325.998254 
L 283.328182 327.565271 
L 284.739 330.451765 
L 286.620091 335.088746 
L 289.912 343.480815 
L 291.322818 346.359656 
L 292.263364 347.790887 
L 293.203909 348.707653 
L 293.674182 348.939371 
L 294.144455 349.004082 
L 294.614727 348.89284 
L 295.085 348.599906 
L 295.555273 348.123095 
L 296.495818 346.627473 
L 297.436364 344.459845 
L 298.376909 341.718906 
L 299.787727 336.795024 
L 301.668818 329.274553 
L 307.312091 305.771123 
L 309.193182 299.256353 
L 310.604 295.14811 
L 312.014818 291.754746 
L 313.425636 289.056888 
L 314.836455 286.9849 
L 316.247273 285.439889 
L 317.658091 284.318543 
L 319.068909 283.530174 
L 320.479727 282.998295 
L 322.360818 282.580031 
L 323.771636 282.475069 
L 325.182455 282.569706 
L 327.533818 283.021975 
L 329.414909 283.362728 
L 330.825727 283.417692 
L 332.236545 283.191776 
L 333.647364 282.645228 
L 335.058182 281.814881 
L 340.231182 278.364072 
L 342.112273 277.42561 
L 343.523091 276.925694 
L 344.933909 276.669922 
L 345.874455 276.669798 
L 346.815 276.834558 
L 347.755545 277.191284 
L 348.696091 277.766106 
L 349.636636 278.578271 
L 350.577182 279.631243 
L 351.988 281.601586 
L 355.279909 286.59449 
L 356.220455 287.673451 
L 357.161 288.434644 
L 358.101545 288.822364 
L 359.042091 288.813915 
L 359.982636 288.418484 
L 360.923182 287.674617 
L 361.863727 286.646847 
L 363.274545 284.758931 
L 366.096182 280.844497 
L 367.507 279.289143 
L 368.917818 278.162239 
L 369.858364 277.662017 
L 370.798909 277.359969 
L 371.739455 277.250892 
L 372.68 277.329598 
L 373.620545 277.59103 
L 374.561091 278.028339 
L 375.971909 278.983894 
L 377.853 280.65182 
L 379.734091 282.337995 
L 380.674636 282.996841 
L 381.615182 283.439358 
L 382.555727 283.615776 
L 383.496273 283.496204 
L 384.436818 283.073146 
L 385.377364 282.36556 
L 386.788182 280.879466 
L 391.961182 274.731566 
L 393.372 273.671168 
L 394.312545 273.243367 
L 395.253091 273.108868 
L 396.193636 273.348712 
L 397.134182 274.055672 
L 398.074727 275.31778 
L 399.015273 277.190609 
L 399.955818 279.660129 
L 401.366636 284.18601 
L 403.247727 290.219643 
L 404.188273 292.419301 
L 404.658545 293.185359 
L 405.128818 293.704308 
L 405.599091 293.971994 
L 406.069364 293.994762 
L 406.539636 293.78754 
L 407.009909 293.371429 
L 407.950455 292.013869 
L 408.891 290.13409 
L 410.772091 285.604881 
L 412.653182 281.150812 
L 414.064 278.473064 
L 415.004545 277.166628 
L 415.945091 276.304435 
L 416.885636 275.918663 
L 417.355909 275.911407 
L 417.826182 276.030523 
L 418.296455 276.277181 
L 419.237 277.152959 
L 420.177545 278.523311 
L 421.118091 280.33921 
L 422.528909 283.682823 
L 424.880273 289.419239 
L 425.820818 291.062199 
L 426.291091 291.632086 
L 426.761364 292.014105 
L 427.231636 292.203519 
L 427.701909 292.203323 
L 428.172182 292.022682 
L 428.642455 291.67496 
L 429.583 290.54236 
L 430.523545 288.941332 
L 431.934364 285.973964 
L 434.756 279.794135 
L 436.166818 277.400142 
L 437.107364 276.22318 
L 438.047909 275.397501 
L 438.988455 274.908257 
L 439.929 274.728755 
L 440.869545 274.83115 
L 441.810091 275.189344 
L 442.750636 275.768497 
L 444.161455 276.927331 
L 447.453364 279.790935 
L 448.393909 280.301311 
L 449.334455 280.499273 
L 450.275 280.310848 
L 451.215545 279.723237 
L 452.156091 278.796889 
L 454.037182 276.418167 
L 455.448 274.683044 
L 456.858818 273.305904 
L 457.799364 272.631826 
L 458.739909 272.144985 
L 460.150727 271.71912 
L 461.561545 271.596146 
L 462.972364 271.734961 
L 464.383182 272.131494 
L 465.794 272.774423 
L 469.085909 274.473581 
L 470.026455 274.700487 
L 470.967 274.716647 
L 471.907545 274.527971 
L 473.318364 273.963015 
L 476.610273 272.418945 
L 478.021091 272.001041 
L 479.431909 271.814707 
L 480.842727 271.906701 
L 481.783273 272.164455 
L 482.723818 272.617698 
L 483.664364 273.292149 
L 484.604909 274.189429 
L 486.015727 275.864055 
L 488.367091 278.784159 
L 489.307636 279.707837 
L 490.248182 280.402681 
L 491.188727 280.874508 
L 492.599545 281.298021 
L 494.010364 281.721368 
L 494.950909 282.236623 
L 495.891455 283.086166 
L 496.832 284.360661 
L 497.772545 286.116398 
L 498.713091 288.379546 
L 499.653636 291.145097 
L 501.064455 296.113186 
L 504.356364 308.514623 
L 505.296909 311.169453 
L 506.237455 313.093979 
L 507.178 314.243301 
L 507.648273 314.532921 
L 508.118545 314.643381 
L 508.588818 314.588138 
L 509.059091 314.385513 
L 509.999636 313.636771 
L 512.351 311.230129 
L 513.291545 310.706728 
L 514.232091 310.601505 
L 514.702364 310.704328 
L 515.642909 311.277356 
L 516.583455 312.326215 
L 517.524 313.804335 
L 518.934818 316.566153 
L 520.345636 319.367605 
L 521.286182 320.88277 
L 522.226727 321.919632 
L 522.697 322.231732 
L 523.167273 322.401718 
L 523.637545 322.43033 
L 524.107818 322.320166 
L 524.578091 322.075117 
L 525.518636 321.206124 
L 526.459182 319.918986 
L 528.810545 316.251157 
L 529.751091 315.20696 
L 530.691636 314.614065 
L 531.161909 314.498058 
L 531.632182 314.500555 
L 532.572727 314.837149 
L 533.513273 315.543028 
L 534.924091 316.997956 
L 536.334909 318.447412 
L 537.275455 319.158304 
L 538.216 319.540913 
L 539.156545 319.553899 
L 540.097091 319.195873 
L 541.037636 318.478778 
L 541.978182 317.425447 
L 543.389 315.324937 
L 548.091727 307.422657 
L 549.502545 305.642707 
L 550.913364 304.208369 
L 552.794455 302.687864 
L 555.616091 300.530351 
L 556.086364 300.107872 
L 556.086364 300.107872 
" clip-path="url(#p37b76bdcd6)" style="fill: none; stroke: #000000; stroke-width: 1.4; stroke-linecap: square"/>
   </g>
   <g id="line2d_68">
    <path d="M 85.813636 268.654545 
L 86.283909 269.173772 
L 87.224455 269.67182 
L 88.165 269.898187 
L 90.516364 270.203571 
L 91.456909 270.592807 
L 92.397455 271.25911 
L 93.808273 272.70609 
L 97.100182 276.496639 
L 98.511 277.683491 
L 99.921818 278.469319 
L 101.332636 278.879608 
L 102.743455 278.966573 
L 104.154273 278.800737 
L 106.035364 278.331518 
L 114.03 276.031356 
L 119.203 274.885677 
L 123.905727 274.06273 
L 128.608455 273.482756 
L 134.722 272.987651 
L 142.716636 272.576121 
L 149.770727 272.411938 
L 157.295091 272.481165 
L 183.630364 273.066275 
L 188.333091 273.585426 
L 190.214182 274.003814 
L 192.095273 274.641117 
L 195.387182 276.086804 
L 198.679091 277.42519 
L 201.030455 278.191227 
L 202.911545 278.578626 
L 204.792636 278.719544 
L 206.673727 278.610996 
L 208.554818 278.27301 
L 211.376455 277.502058 
L 223.133273 274.076119 
L 225.484636 273.737388 
L 228.306273 273.550216 
L 241.944182 273.223318 
L 243.825273 273.548873 
L 245.236091 273.946738 
L 246.646909 274.565789 
L 248.057727 275.404168 
L 249.938818 276.840472 
L 252.760455 279.131586 
L 254.641545 280.254412 
L 256.522636 281.116238 
L 258.403727 281.767614 
L 260.284818 282.16749 
L 262.636182 282.36367 
L 266.398364 282.375857 
L 269.22 282.152354 
L 272.041636 281.957317 
L 273.452455 282.083988 
L 275.333545 282.539046 
L 277.214636 283.220097 
L 279.566 284.321351 
L 281.447091 285.359136 
L 283.328182 286.652748 
L 286.620091 289.218476 
L 290.852545 292.657397 
L 293.203909 294.195361 
L 295.085 295.463527 
L 296.966091 297.026939 
L 299.787727 299.493568 
L 301.668818 300.798921 
L 303.549909 301.805315 
L 310.604 304.901649 
L 325.182455 304.901649 
L 327.063545 304.221304 
L 331.296 302.970538 
L 333.177091 302.051901 
L 337.409545 299.724876 
L 341.171727 298.204779 
L 342.582545 297.841055 
L 343.993364 297.660367 
L 345.404182 297.65624 
L 346.815 297.823888 
L 348.225818 298.169679 
L 350.106909 298.892117 
L 354.809636 300.90578 
L 356.690727 301.460033 
L 358.101545 301.659645 
L 359.512364 301.661496 
L 360.923182 301.420829 
L 361.863727 301.043164 
L 362.804273 300.402447 
L 364.685364 298.872327 
L 365.625909 298.445089 
L 366.566455 298.254692 
L 367.977273 298.256388 
L 369.858364 298.543003 
L 375.501636 299.585509 
L 376.912455 299.494269 
L 377.853 299.224534 
L 378.793545 298.762845 
L 379.734091 298.09121 
L 380.674636 297.195402 
L 382.085455 295.51061 
L 384.907091 291.724962 
L 386.317909 289.519683 
L 387.728727 286.70709 
L 391.020636 279.772832 
L 391.961182 278.103746 
L 392.901727 276.827469 
L 393.842273 275.882651 
L 395.253091 274.875386 
L 396.663909 274.165073 
L 398.545 273.49421 
L 399.955818 273.17726 
L 401.366636 273.057025 
L 408.420727 273.0263 
L 410.772091 272.886474 
L 413.593727 273.03693 
L 417.355909 273.174949 
L 420.177545 273.087909 
L 422.058636 272.836789 
L 424.880273 272.278875 
L 425.820818 272.307494 
L 427.231636 272.636016 
L 429.112727 273.140898 
L 431.464091 273.474359 
L 434.756 273.790429 
L 436.637091 273.724369 
L 439.929 273.289053 
L 444.161455 272.691817 
L 446.983091 272.665179 
L 448.864182 272.884758 
L 453.566909 273.803605 
L 455.448 273.768203 
L 457.799364 273.452735 
L 465.794 272.136259 
L 467.204818 272.195804 
L 468.615636 272.527084 
L 471.437273 273.385184 
L 472.848091 273.571183 
L 474.258909 273.572917 
L 476.14 273.347468 
L 480.842727 272.493263 
L 483.194091 271.97403 
L 484.604909 271.903458 
L 486.015727 272.014948 
L 487.426545 272.316184 
L 489.307636 273.014278 
L 490.718455 273.504398 
L 491.659 273.641487 
L 493.069818 273.596483 
L 494.950909 273.508149 
L 496.832 273.700262 
L 501.534727 274.362383 
L 504.826636 274.762751 
L 510.469909 275.712173 
L 512.351 275.699823 
L 514.232091 275.736668 
L 517.524 275.675116 
L 520.345636 275.591019 
L 522.226727 275.753332 
L 526.459182 276.419615 
L 528.810545 276.274929 
L 533.043 275.783806 
L 535.394364 275.284378 
L 537.745727 274.675297 
L 539.156545 274.603036 
L 542.918727 274.756616 
L 544.799818 274.522525 
L 550.913364 273.346243 
L 553.735 272.854396 
L 555.616091 272.80848 
L 556.086364 272.906972 
L 556.086364 272.906972 
" clip-path="url(#p37b76bdcd6)" style="fill: none; stroke: #e45756; stroke-width: 1.1; stroke-linecap: square"/>
   </g>
   <g id="patch_13">
    <path d="M 62.3 375.64 
L 62.3 263.56 
" style="fill: none; stroke: #000000; stroke-width: 0.8; stroke-linejoin: miter; stroke-linecap: square"/>
   </g>
   <g id="patch_14">
    <path d="M 579.6 375.64 
L 579.6 263.56 
" style="fill: none; stroke: #000000; stroke-width: 0.8; stroke-linejoin: miter; stroke-linecap: square"/>
   </g>
   <g id="patch_15">
    <path d="M 62.3 375.64 
L 579.6 375.64 
" style="fill: none; stroke: #000000; stroke-width: 0.8; stroke-linejoin: miter; stroke-linecap: square"/>
   </g>
   <g id="patch_16">
    <path d="M 62.3 263.56 
L 579.6 263.56 
" style="fill: none; stroke: #000000; stroke-width: 0.8; stroke-linejoin: miter; stroke-linecap: square"/>
   </g>
  </g>
 </g>
 <defs>
  <clipPath id="pa133090891">
   <rect x="62.3" y="10.8" width="517.3" height="112.08"/>
  </clipPath>
  <clipPath id="pbea23073f6">
   <rect x="62.3" y="137.18" width="517.3" height="112.08"/>
  </clipPath>
  <clipPath id="p37b76bdcd6">
   <rect x="62.3" y="263.56" width="517.3" height="112.08"/>
  </clipPath>
 </defs>
</svg>
